G04 #@! TF.GenerationSoftware,KiCad,Pcbnew,(5.0.1)-4*
G04 #@! TF.CreationDate,2019-02-15T22:12:16-03:00*
G04 #@! TF.ProjectId,reflow,7265666C6F772E6B696361645F706362,rev?*
G04 #@! TF.SameCoordinates,Original*
G04 #@! TF.FileFunction,Legend,Bot*
G04 #@! TF.FilePolarity,Positive*
%FSLAX46Y46*%
G04 Gerber Fmt 4.6, Leading zero omitted, Abs format (unit mm)*
G04 Created by KiCad (PCBNEW (5.0.1)-4) date 15/2/2019 22:12:16*
%MOMM*%
%LPD*%
G01*
G04 APERTURE LIST*
%ADD10C,0.200000*%
%ADD11C,0.010000*%
G04 APERTURE END LIST*
D10*
X179070000Y-68580000D02*
X180340000Y-67310000D01*
X177800000Y-68580000D02*
X179070000Y-67310000D01*
X176530000Y-68580000D02*
X177800000Y-67310000D01*
X175260000Y-68580000D02*
X176530000Y-67310000D01*
X173990000Y-68580000D02*
X175260000Y-67310000D01*
X172720000Y-68580000D02*
X173990000Y-67310000D01*
X171450000Y-68580000D02*
X172720000Y-67310000D01*
X170180000Y-68580000D02*
X171450000Y-67310000D01*
X168910000Y-68580000D02*
X170180000Y-67310000D01*
X167640000Y-68580000D02*
X168910000Y-67310000D01*
X166370000Y-68580000D02*
X167640000Y-67310000D01*
X165100000Y-68580000D02*
X166370000Y-67310000D01*
X163830000Y-68580000D02*
X165100000Y-67310000D01*
X162560000Y-68580000D02*
X163830000Y-67310000D01*
X161290000Y-68580000D02*
X162560000Y-67310000D01*
X160020000Y-68580000D02*
X161290000Y-67310000D01*
X158750000Y-68580000D02*
X160020000Y-67310000D01*
X157480000Y-68580000D02*
X158750000Y-67310000D01*
X156210000Y-68580000D02*
X157480000Y-67310000D01*
X154940000Y-68580000D02*
X156210000Y-67310000D01*
X153670000Y-68580000D02*
X154940000Y-67310000D01*
X152400000Y-68580000D02*
X153670000Y-67310000D01*
X151130000Y-68580000D02*
X152400000Y-67310000D01*
X149860000Y-68580000D02*
X151130000Y-67310000D01*
X148590000Y-68580000D02*
X149860000Y-67310000D01*
X147320000Y-68580000D02*
X148590000Y-67310000D01*
X146050000Y-68580000D02*
X147320000Y-67310000D01*
X144780000Y-68580000D02*
X146050000Y-67310000D01*
X143510000Y-68580000D02*
X144780000Y-67310000D01*
X142240000Y-68580000D02*
X143510000Y-67310000D01*
X140970000Y-68580000D02*
X142240000Y-67310000D01*
X139700000Y-68580000D02*
X140970000Y-67310000D01*
X138430000Y-68580000D02*
X139700000Y-67310000D01*
X137160000Y-68580000D02*
X138430000Y-67310000D01*
X135890000Y-68580000D02*
X137160000Y-67310000D01*
X134620000Y-68580000D02*
X135890000Y-67310000D01*
X133350000Y-68580000D02*
X134620000Y-67310000D01*
X132080000Y-68580000D02*
X133350000Y-67310000D01*
X130810000Y-68580000D02*
X132080000Y-67310000D01*
X129540000Y-68580000D02*
X130810000Y-67310000D01*
X128270000Y-68580000D02*
X129540000Y-67310000D01*
X127000000Y-68580000D02*
X128270000Y-67310000D01*
X125730000Y-68580000D02*
X127000000Y-67310000D01*
X124460000Y-68580000D02*
X125730000Y-67310000D01*
X123190000Y-68580000D02*
X124460000Y-67310000D01*
X121920000Y-68580000D02*
X123190000Y-67310000D01*
X147320000Y-67310000D02*
X148590000Y-67310000D01*
X144780000Y-68580000D02*
X146050000Y-68580000D01*
X144780000Y-67310000D02*
X146050000Y-67310000D01*
X143510000Y-68580000D02*
X144780000Y-68580000D01*
X143510000Y-67310000D02*
X144780000Y-67310000D01*
X140970000Y-68580000D02*
X142240000Y-68580000D01*
X140970000Y-67310000D02*
X142240000Y-67310000D01*
X138430000Y-68580000D02*
X139700000Y-68580000D01*
X138430000Y-67310000D02*
X139700000Y-67310000D01*
X121920000Y-67310000D02*
X121920000Y-68580000D01*
X121920000Y-68580000D02*
X121920000Y-67310000D01*
X180340000Y-68580000D02*
X121920000Y-68580000D01*
X180340000Y-67310000D02*
X180340000Y-68580000D01*
X121920000Y-67310000D02*
X180340000Y-67310000D01*
D11*
G04 #@! TO.C,G\002A\002A\002A*
G36*
X150531234Y-40948429D02*
X150498306Y-40836273D01*
X150459269Y-40704775D01*
X150421995Y-40580435D01*
X150418274Y-40568113D01*
X150388005Y-40466443D01*
X150361293Y-40374002D01*
X150342658Y-40306518D01*
X150339086Y-40292547D01*
X150328154Y-40252117D01*
X150305613Y-40171944D01*
X150273254Y-40058297D01*
X150232874Y-39917445D01*
X150186265Y-39755656D01*
X150135222Y-39579200D01*
X150112769Y-39501792D01*
X150056584Y-39308229D01*
X150000590Y-39115275D01*
X149947315Y-38931645D01*
X149899288Y-38766053D01*
X149859035Y-38627213D01*
X149829085Y-38523841D01*
X149824313Y-38507358D01*
X149767107Y-38309899D01*
X149703433Y-38090411D01*
X149636489Y-37859900D01*
X149569474Y-37629368D01*
X149505589Y-37409821D01*
X149448032Y-37212262D01*
X149400001Y-37047696D01*
X149392401Y-37021698D01*
X149355844Y-36896049D01*
X149320995Y-36775155D01*
X149291793Y-36672739D01*
X149272173Y-36602526D01*
X149272127Y-36602358D01*
X149253908Y-36537333D01*
X149225393Y-36437661D01*
X149189847Y-36314658D01*
X149150533Y-36179644D01*
X149130471Y-36111132D01*
X149093543Y-35983464D01*
X149061960Y-35870840D01*
X149038030Y-35781765D01*
X149024059Y-35724742D01*
X149021410Y-35709102D01*
X149027444Y-35703790D01*
X149047906Y-35707549D01*
X149086257Y-35722064D01*
X149145956Y-35749018D01*
X149230464Y-35790094D01*
X149343240Y-35846976D01*
X149487744Y-35921347D01*
X149667437Y-36014891D01*
X149885778Y-36129292D01*
X149895943Y-36134629D01*
X149992249Y-36185028D01*
X150118312Y-36250748D01*
X150261310Y-36325118D01*
X150408422Y-36401466D01*
X150495000Y-36446314D01*
X150629436Y-36516208D01*
X150759070Y-36584170D01*
X150873790Y-36644856D01*
X150963484Y-36692926D01*
X151007791Y-36717228D01*
X151137186Y-36789704D01*
X151120432Y-36660088D01*
X151110586Y-36589278D01*
X151095031Y-36483682D01*
X151075652Y-36355835D01*
X151054334Y-36218268D01*
X151046905Y-36171038D01*
X151012371Y-35951519D01*
X150977081Y-35725579D01*
X150942431Y-35502275D01*
X150909817Y-35290664D01*
X150880635Y-35099802D01*
X150856282Y-34938746D01*
X150839118Y-34823160D01*
X150810199Y-34625472D01*
X150480287Y-34625472D01*
X150359446Y-34624062D01*
X150256583Y-34620195D01*
X150180791Y-34614416D01*
X150141162Y-34607266D01*
X150137717Y-34604991D01*
X150143353Y-34577494D01*
X150166993Y-34511737D01*
X150206439Y-34412916D01*
X150259489Y-34286229D01*
X150323945Y-34136872D01*
X150397607Y-33970041D01*
X150478275Y-33790935D01*
X150532118Y-33673233D01*
X150559870Y-33610329D01*
X150576623Y-33567335D01*
X150578868Y-33558413D01*
X150588201Y-33531557D01*
X150612685Y-33473778D01*
X150647051Y-33397507D01*
X150647559Y-33396406D01*
X150690548Y-33302354D01*
X150743027Y-33186183D01*
X150795181Y-33069641D01*
X150806590Y-33043962D01*
X150846546Y-32954496D01*
X150878819Y-32883385D01*
X150898805Y-32840721D01*
X150902832Y-32833102D01*
X150917559Y-32850078D01*
X150956431Y-32901579D01*
X151016045Y-32982913D01*
X151093001Y-33089389D01*
X151183894Y-33216315D01*
X151285323Y-33359001D01*
X151328710Y-33420326D01*
X151439668Y-33577416D01*
X151546804Y-33729188D01*
X151645556Y-33869169D01*
X151731357Y-33990885D01*
X151799642Y-34087862D01*
X151845847Y-34153626D01*
X151852692Y-34163401D01*
X151922971Y-34263836D01*
X152000256Y-34374249D01*
X152056606Y-34454728D01*
X152103349Y-34525791D01*
X152134175Y-34581203D01*
X152143181Y-34610191D01*
X152142471Y-34611428D01*
X152114985Y-34616087D01*
X152047786Y-34620093D01*
X151949084Y-34623167D01*
X151827091Y-34625033D01*
X151727266Y-34625472D01*
X151326104Y-34625472D01*
X151363115Y-34751273D01*
X151389360Y-34839596D01*
X151422446Y-34949748D01*
X151454881Y-35056792D01*
X151478826Y-35135550D01*
X151513522Y-35249889D01*
X151555849Y-35389516D01*
X151602686Y-35544140D01*
X151650915Y-35703467D01*
X151658258Y-35727736D01*
X151711294Y-35902711D01*
X151768060Y-36089448D01*
X151824093Y-36273302D01*
X151874930Y-36439625D01*
X151913841Y-36566415D01*
X151952842Y-36693270D01*
X151987184Y-36805431D01*
X152019915Y-36912989D01*
X152054085Y-37026031D01*
X152092744Y-37154647D01*
X152138941Y-37308925D01*
X152195727Y-37498955D01*
X152196321Y-37500943D01*
X152229608Y-37611854D01*
X152269408Y-37743666D01*
X152308193Y-37871460D01*
X152315768Y-37896321D01*
X152346240Y-37997858D01*
X152372284Y-38087606D01*
X152389929Y-38151754D01*
X152394135Y-38168877D01*
X152406726Y-38225773D01*
X152289542Y-38157428D01*
X152230129Y-38122289D01*
X152139214Y-38067915D01*
X152026234Y-37999979D01*
X151900631Y-37924154D01*
X151800943Y-37863774D01*
X151656593Y-37776486D01*
X151502780Y-37683949D01*
X151353722Y-37594685D01*
X151223636Y-37517217D01*
X151165943Y-37483090D01*
X151056954Y-37418508D01*
X150955103Y-37357553D01*
X150871801Y-37307092D01*
X150818490Y-37274012D01*
X150759055Y-37237153D01*
X150673438Y-37185524D01*
X150576955Y-37128332D01*
X150542924Y-37108394D01*
X150443615Y-37052996D01*
X150380270Y-37026518D01*
X150349205Y-37030959D01*
X150346735Y-37068318D01*
X150369177Y-37140595D01*
X150389143Y-37191834D01*
X150428463Y-37294746D01*
X150468341Y-37406901D01*
X150483712Y-37453019D01*
X150510839Y-37533694D01*
X150548690Y-37641919D01*
X150591162Y-37760369D01*
X150614586Y-37824434D01*
X150655188Y-37935483D01*
X150692992Y-38040480D01*
X150722691Y-38124606D01*
X150734746Y-38159905D01*
X150755673Y-38220703D01*
X150788461Y-38313403D01*
X150828452Y-38424923D01*
X150867024Y-38531321D01*
X150909516Y-38648594D01*
X150949028Y-38758908D01*
X150980900Y-38849179D01*
X150999291Y-38902736D01*
X151026467Y-38982723D01*
X151065307Y-39094605D01*
X151111176Y-39225210D01*
X151159438Y-39361363D01*
X151205457Y-39489894D01*
X151222748Y-39537736D01*
X151296618Y-39741526D01*
X151356108Y-39905946D01*
X151403247Y-40036651D01*
X151440059Y-40139300D01*
X151468572Y-40219551D01*
X151490812Y-40283061D01*
X151508805Y-40335488D01*
X151514537Y-40352453D01*
X151541012Y-40429783D01*
X151578240Y-40536776D01*
X151620818Y-40657971D01*
X151654769Y-40753821D01*
X151697067Y-40879252D01*
X151721575Y-40967187D01*
X151727691Y-41015212D01*
X151721881Y-41023889D01*
X151688937Y-41026112D01*
X151617004Y-41031909D01*
X151514822Y-41040516D01*
X151391129Y-41051167D01*
X151254665Y-41063099D01*
X151114169Y-41075545D01*
X150978379Y-41087741D01*
X150856035Y-41098923D01*
X150755876Y-41108324D01*
X150742495Y-41109612D01*
X150582631Y-41125067D01*
X150531234Y-40948429D01*
X150531234Y-40948429D01*
G37*
X150531234Y-40948429D02*
X150498306Y-40836273D01*
X150459269Y-40704775D01*
X150421995Y-40580435D01*
X150418274Y-40568113D01*
X150388005Y-40466443D01*
X150361293Y-40374002D01*
X150342658Y-40306518D01*
X150339086Y-40292547D01*
X150328154Y-40252117D01*
X150305613Y-40171944D01*
X150273254Y-40058297D01*
X150232874Y-39917445D01*
X150186265Y-39755656D01*
X150135222Y-39579200D01*
X150112769Y-39501792D01*
X150056584Y-39308229D01*
X150000590Y-39115275D01*
X149947315Y-38931645D01*
X149899288Y-38766053D01*
X149859035Y-38627213D01*
X149829085Y-38523841D01*
X149824313Y-38507358D01*
X149767107Y-38309899D01*
X149703433Y-38090411D01*
X149636489Y-37859900D01*
X149569474Y-37629368D01*
X149505589Y-37409821D01*
X149448032Y-37212262D01*
X149400001Y-37047696D01*
X149392401Y-37021698D01*
X149355844Y-36896049D01*
X149320995Y-36775155D01*
X149291793Y-36672739D01*
X149272173Y-36602526D01*
X149272127Y-36602358D01*
X149253908Y-36537333D01*
X149225393Y-36437661D01*
X149189847Y-36314658D01*
X149150533Y-36179644D01*
X149130471Y-36111132D01*
X149093543Y-35983464D01*
X149061960Y-35870840D01*
X149038030Y-35781765D01*
X149024059Y-35724742D01*
X149021410Y-35709102D01*
X149027444Y-35703790D01*
X149047906Y-35707549D01*
X149086257Y-35722064D01*
X149145956Y-35749018D01*
X149230464Y-35790094D01*
X149343240Y-35846976D01*
X149487744Y-35921347D01*
X149667437Y-36014891D01*
X149885778Y-36129292D01*
X149895943Y-36134629D01*
X149992249Y-36185028D01*
X150118312Y-36250748D01*
X150261310Y-36325118D01*
X150408422Y-36401466D01*
X150495000Y-36446314D01*
X150629436Y-36516208D01*
X150759070Y-36584170D01*
X150873790Y-36644856D01*
X150963484Y-36692926D01*
X151007791Y-36717228D01*
X151137186Y-36789704D01*
X151120432Y-36660088D01*
X151110586Y-36589278D01*
X151095031Y-36483682D01*
X151075652Y-36355835D01*
X151054334Y-36218268D01*
X151046905Y-36171038D01*
X151012371Y-35951519D01*
X150977081Y-35725579D01*
X150942431Y-35502275D01*
X150909817Y-35290664D01*
X150880635Y-35099802D01*
X150856282Y-34938746D01*
X150839118Y-34823160D01*
X150810199Y-34625472D01*
X150480287Y-34625472D01*
X150359446Y-34624062D01*
X150256583Y-34620195D01*
X150180791Y-34614416D01*
X150141162Y-34607266D01*
X150137717Y-34604991D01*
X150143353Y-34577494D01*
X150166993Y-34511737D01*
X150206439Y-34412916D01*
X150259489Y-34286229D01*
X150323945Y-34136872D01*
X150397607Y-33970041D01*
X150478275Y-33790935D01*
X150532118Y-33673233D01*
X150559870Y-33610329D01*
X150576623Y-33567335D01*
X150578868Y-33558413D01*
X150588201Y-33531557D01*
X150612685Y-33473778D01*
X150647051Y-33397507D01*
X150647559Y-33396406D01*
X150690548Y-33302354D01*
X150743027Y-33186183D01*
X150795181Y-33069641D01*
X150806590Y-33043962D01*
X150846546Y-32954496D01*
X150878819Y-32883385D01*
X150898805Y-32840721D01*
X150902832Y-32833102D01*
X150917559Y-32850078D01*
X150956431Y-32901579D01*
X151016045Y-32982913D01*
X151093001Y-33089389D01*
X151183894Y-33216315D01*
X151285323Y-33359001D01*
X151328710Y-33420326D01*
X151439668Y-33577416D01*
X151546804Y-33729188D01*
X151645556Y-33869169D01*
X151731357Y-33990885D01*
X151799642Y-34087862D01*
X151845847Y-34153626D01*
X151852692Y-34163401D01*
X151922971Y-34263836D01*
X152000256Y-34374249D01*
X152056606Y-34454728D01*
X152103349Y-34525791D01*
X152134175Y-34581203D01*
X152143181Y-34610191D01*
X152142471Y-34611428D01*
X152114985Y-34616087D01*
X152047786Y-34620093D01*
X151949084Y-34623167D01*
X151827091Y-34625033D01*
X151727266Y-34625472D01*
X151326104Y-34625472D01*
X151363115Y-34751273D01*
X151389360Y-34839596D01*
X151422446Y-34949748D01*
X151454881Y-35056792D01*
X151478826Y-35135550D01*
X151513522Y-35249889D01*
X151555849Y-35389516D01*
X151602686Y-35544140D01*
X151650915Y-35703467D01*
X151658258Y-35727736D01*
X151711294Y-35902711D01*
X151768060Y-36089448D01*
X151824093Y-36273302D01*
X151874930Y-36439625D01*
X151913841Y-36566415D01*
X151952842Y-36693270D01*
X151987184Y-36805431D01*
X152019915Y-36912989D01*
X152054085Y-37026031D01*
X152092744Y-37154647D01*
X152138941Y-37308925D01*
X152195727Y-37498955D01*
X152196321Y-37500943D01*
X152229608Y-37611854D01*
X152269408Y-37743666D01*
X152308193Y-37871460D01*
X152315768Y-37896321D01*
X152346240Y-37997858D01*
X152372284Y-38087606D01*
X152389929Y-38151754D01*
X152394135Y-38168877D01*
X152406726Y-38225773D01*
X152289542Y-38157428D01*
X152230129Y-38122289D01*
X152139214Y-38067915D01*
X152026234Y-37999979D01*
X151900631Y-37924154D01*
X151800943Y-37863774D01*
X151656593Y-37776486D01*
X151502780Y-37683949D01*
X151353722Y-37594685D01*
X151223636Y-37517217D01*
X151165943Y-37483090D01*
X151056954Y-37418508D01*
X150955103Y-37357553D01*
X150871801Y-37307092D01*
X150818490Y-37274012D01*
X150759055Y-37237153D01*
X150673438Y-37185524D01*
X150576955Y-37128332D01*
X150542924Y-37108394D01*
X150443615Y-37052996D01*
X150380270Y-37026518D01*
X150349205Y-37030959D01*
X150346735Y-37068318D01*
X150369177Y-37140595D01*
X150389143Y-37191834D01*
X150428463Y-37294746D01*
X150468341Y-37406901D01*
X150483712Y-37453019D01*
X150510839Y-37533694D01*
X150548690Y-37641919D01*
X150591162Y-37760369D01*
X150614586Y-37824434D01*
X150655188Y-37935483D01*
X150692992Y-38040480D01*
X150722691Y-38124606D01*
X150734746Y-38159905D01*
X150755673Y-38220703D01*
X150788461Y-38313403D01*
X150828452Y-38424923D01*
X150867024Y-38531321D01*
X150909516Y-38648594D01*
X150949028Y-38758908D01*
X150980900Y-38849179D01*
X150999291Y-38902736D01*
X151026467Y-38982723D01*
X151065307Y-39094605D01*
X151111176Y-39225210D01*
X151159438Y-39361363D01*
X151205457Y-39489894D01*
X151222748Y-39537736D01*
X151296618Y-39741526D01*
X151356108Y-39905946D01*
X151403247Y-40036651D01*
X151440059Y-40139300D01*
X151468572Y-40219551D01*
X151490812Y-40283061D01*
X151508805Y-40335488D01*
X151514537Y-40352453D01*
X151541012Y-40429783D01*
X151578240Y-40536776D01*
X151620818Y-40657971D01*
X151654769Y-40753821D01*
X151697067Y-40879252D01*
X151721575Y-40967187D01*
X151727691Y-41015212D01*
X151721881Y-41023889D01*
X151688937Y-41026112D01*
X151617004Y-41031909D01*
X151514822Y-41040516D01*
X151391129Y-41051167D01*
X151254665Y-41063099D01*
X151114169Y-41075545D01*
X150978379Y-41087741D01*
X150856035Y-41098923D01*
X150755876Y-41108324D01*
X150742495Y-41109612D01*
X150582631Y-41125067D01*
X150531234Y-40948429D01*
G36*
X151044045Y-44735945D02*
X150887447Y-44685697D01*
X150733810Y-44590821D01*
X150585182Y-44451863D01*
X150443608Y-44269372D01*
X150358396Y-44131303D01*
X150308998Y-44044604D01*
X150245648Y-43933944D01*
X150178390Y-43816847D01*
X150142818Y-43755094D01*
X150091332Y-43665789D01*
X150021607Y-43544798D01*
X149939317Y-43401966D01*
X149850134Y-43247142D01*
X149759731Y-43090171D01*
X149728668Y-43036226D01*
X149342998Y-42366874D01*
X148951827Y-41688840D01*
X148560541Y-41011415D01*
X148485504Y-40881460D01*
X148390175Y-40716177D01*
X148278137Y-40521789D01*
X148152974Y-40304522D01*
X148018270Y-40070600D01*
X147877610Y-39826247D01*
X147734577Y-39577688D01*
X147592755Y-39331148D01*
X147455729Y-39092851D01*
X147373996Y-38950660D01*
X147292712Y-38809252D01*
X147217213Y-38677957D01*
X147151533Y-38563782D01*
X147099702Y-38473737D01*
X147065754Y-38414828D01*
X147056912Y-38399528D01*
X147001079Y-38303027D01*
X146926305Y-38173587D01*
X146837550Y-38019807D01*
X146739775Y-37850287D01*
X146637938Y-37673626D01*
X146537000Y-37498425D01*
X146441920Y-37333284D01*
X146421192Y-37297264D01*
X146337394Y-37151683D01*
X146251221Y-37002080D01*
X146169560Y-36860397D01*
X146099292Y-36738579D01*
X146055220Y-36662264D01*
X145986876Y-36543591D01*
X145906493Y-36403352D01*
X145825611Y-36261708D01*
X145774038Y-36171038D01*
X145703898Y-36048173D01*
X145629834Y-35919620D01*
X145561636Y-35802309D01*
X145517761Y-35727736D01*
X145459706Y-35629137D01*
X145402744Y-35531075D01*
X145357583Y-35452006D01*
X145350961Y-35440188D01*
X145321693Y-35388431D01*
X145272738Y-35302688D01*
X145208401Y-35190461D01*
X145132985Y-35059252D01*
X145050795Y-34916564D01*
X145007276Y-34841132D01*
X144860335Y-34586440D01*
X144730202Y-34360594D01*
X144618382Y-34166215D01*
X144526380Y-34005921D01*
X144455702Y-33882332D01*
X144415019Y-33810755D01*
X144363541Y-33720481D01*
X144299694Y-33609626D01*
X144228724Y-33487179D01*
X144155880Y-33362129D01*
X144086409Y-33243463D01*
X144025559Y-33140170D01*
X143978576Y-33061239D01*
X143952275Y-33018122D01*
X143901500Y-32929953D01*
X143843265Y-32816882D01*
X143783530Y-32691880D01*
X143728256Y-32567917D01*
X143683403Y-32457964D01*
X143654931Y-32374992D01*
X143652424Y-32365606D01*
X143631643Y-32194467D01*
X143651647Y-32023736D01*
X143709094Y-31863611D01*
X143800640Y-31724295D01*
X143890578Y-31638902D01*
X143973133Y-31587220D01*
X144076152Y-31537896D01*
X144151193Y-31510207D01*
X144167068Y-31505469D01*
X144184061Y-31501057D01*
X144203849Y-31496958D01*
X144228109Y-31493161D01*
X144258520Y-31489656D01*
X144296758Y-31486431D01*
X144344502Y-31483476D01*
X144403428Y-31480778D01*
X144475215Y-31478328D01*
X144561539Y-31476114D01*
X144664078Y-31474125D01*
X144784510Y-31472350D01*
X144924513Y-31470778D01*
X145085763Y-31469398D01*
X145269938Y-31468198D01*
X145478716Y-31467168D01*
X145713775Y-31466297D01*
X145976791Y-31465573D01*
X146269442Y-31464985D01*
X146593406Y-31464523D01*
X146950360Y-31464175D01*
X147341983Y-31463931D01*
X147769950Y-31463778D01*
X148235940Y-31463706D01*
X148741631Y-31463705D01*
X149288700Y-31463762D01*
X149878823Y-31463867D01*
X150513680Y-31464009D01*
X151126533Y-31464160D01*
X151804286Y-31464339D01*
X152435787Y-31464532D01*
X153022710Y-31464751D01*
X153566728Y-31465005D01*
X154069514Y-31465306D01*
X154532740Y-31465664D01*
X154958081Y-31466091D01*
X155347208Y-31466597D01*
X155701796Y-31467193D01*
X156023517Y-31467889D01*
X156314045Y-31468698D01*
X156575052Y-31469628D01*
X156808212Y-31470692D01*
X157015197Y-31471900D01*
X157197681Y-31473263D01*
X157357337Y-31474791D01*
X157495838Y-31476496D01*
X157614856Y-31478389D01*
X157716066Y-31480479D01*
X157801141Y-31482779D01*
X157871752Y-31485298D01*
X157929574Y-31488048D01*
X157976280Y-31491039D01*
X158013542Y-31494282D01*
X158043033Y-31497789D01*
X158066428Y-31501569D01*
X158085398Y-31505634D01*
X158099016Y-31509242D01*
X158279320Y-31581860D01*
X158423726Y-31684303D01*
X158530732Y-31813019D01*
X158598832Y-31964457D01*
X158626522Y-32135065D01*
X158612297Y-32321294D01*
X158554654Y-32519592D01*
X158541074Y-32552736D01*
X158499155Y-32643404D01*
X158441047Y-32758974D01*
X158396524Y-32842851D01*
X157174412Y-32842851D01*
X157158505Y-32708461D01*
X157105518Y-32603589D01*
X157014338Y-32526944D01*
X156883849Y-32477237D01*
X156852566Y-32470341D01*
X156819410Y-32468481D01*
X156740463Y-32466695D01*
X156617855Y-32464991D01*
X156453721Y-32463373D01*
X156250191Y-32461850D01*
X156009399Y-32460426D01*
X155733478Y-32459108D01*
X155424558Y-32457902D01*
X155084773Y-32456815D01*
X154716256Y-32455852D01*
X154321138Y-32455021D01*
X153901552Y-32454326D01*
X153459631Y-32453776D01*
X152997507Y-32453375D01*
X152517311Y-32453130D01*
X152021178Y-32453047D01*
X151511239Y-32453133D01*
X151058113Y-32453350D01*
X145367075Y-32456887D01*
X145258366Y-32520797D01*
X145160082Y-32594778D01*
X145103675Y-32681258D01*
X145083137Y-32790855D01*
X145083092Y-32830477D01*
X145087586Y-32879744D01*
X145099851Y-32932823D01*
X145122666Y-32995611D01*
X145158810Y-33074003D01*
X145211062Y-33173896D01*
X145282201Y-33301187D01*
X145375006Y-33461771D01*
X145403918Y-33511226D01*
X145472768Y-33629463D01*
X145552580Y-33767539D01*
X145630728Y-33903576D01*
X145666665Y-33966509D01*
X145741038Y-34096700D01*
X145825861Y-34244544D01*
X145907483Y-34386271D01*
X145941868Y-34445755D01*
X146017132Y-34575979D01*
X146102383Y-34723861D01*
X146183917Y-34865611D01*
X146218001Y-34925000D01*
X146268949Y-35013718D01*
X146338677Y-35134930D01*
X146421996Y-35279627D01*
X146513719Y-35438802D01*
X146608658Y-35603448D01*
X146673455Y-35715755D01*
X146775147Y-35892014D01*
X146887720Y-36087228D01*
X147007796Y-36295529D01*
X147131994Y-36511052D01*
X147256937Y-36727927D01*
X147379245Y-36940289D01*
X147495540Y-37142270D01*
X147602441Y-37328003D01*
X147696571Y-37491620D01*
X147774550Y-37627255D01*
X147833000Y-37729040D01*
X147846478Y-37752547D01*
X147883307Y-37816662D01*
X147940955Y-37916834D01*
X148016281Y-38047616D01*
X148106142Y-38203560D01*
X148207397Y-38379219D01*
X148316903Y-38569146D01*
X148431519Y-38767893D01*
X148548101Y-38970013D01*
X148663509Y-39170059D01*
X148774601Y-39362583D01*
X148878233Y-39542138D01*
X148971264Y-39703277D01*
X149050553Y-39840553D01*
X149112956Y-39948517D01*
X149155333Y-40021723D01*
X149159531Y-40028962D01*
X149211973Y-40119958D01*
X149263449Y-40210270D01*
X149296245Y-40268585D01*
X149320995Y-40312238D01*
X149366494Y-40391632D01*
X149429450Y-40501053D01*
X149506568Y-40634787D01*
X149594554Y-40787118D01*
X149690113Y-40952331D01*
X149752073Y-41059339D01*
X149852698Y-41233170D01*
X149949577Y-41400750D01*
X150039057Y-41555744D01*
X150117486Y-41691819D01*
X150181211Y-41802641D01*
X150226581Y-41881874D01*
X150242560Y-41910000D01*
X150385424Y-42161574D01*
X150512410Y-42382264D01*
X150622341Y-42570098D01*
X150714041Y-42723108D01*
X150786333Y-42839324D01*
X150838041Y-42916776D01*
X150862853Y-42948507D01*
X150968139Y-43034831D01*
X151080141Y-43079545D01*
X151191905Y-43081600D01*
X151296475Y-43039946D01*
X151325850Y-43018402D01*
X151383051Y-42968505D01*
X151427190Y-42925334D01*
X151434869Y-42916562D01*
X151456233Y-42884333D01*
X151497975Y-42816222D01*
X151556716Y-42717967D01*
X151629076Y-42595307D01*
X151711675Y-42453979D01*
X151801133Y-42299723D01*
X151894069Y-42138277D01*
X151921884Y-42089717D01*
X151992855Y-41965789D01*
X152077193Y-41818721D01*
X152171239Y-41654878D01*
X152271331Y-41480623D01*
X152373809Y-41302322D01*
X152475013Y-41126340D01*
X152571283Y-40959040D01*
X152658958Y-40806788D01*
X152734377Y-40675948D01*
X152793882Y-40572885D01*
X152833810Y-40503964D01*
X152838314Y-40496226D01*
X152870239Y-40440869D01*
X152918581Y-40356354D01*
X152976170Y-40255240D01*
X153023005Y-40172736D01*
X153096205Y-40044198D01*
X153178810Y-39900100D01*
X153257635Y-39763410D01*
X153291247Y-39705472D01*
X153343072Y-39616134D01*
X153413075Y-39495093D01*
X153495568Y-39352205D01*
X153584862Y-39197325D01*
X153675269Y-39040311D01*
X153706162Y-38986604D01*
X153788432Y-38843539D01*
X153864867Y-38710623D01*
X153931505Y-38594743D01*
X153984384Y-38502788D01*
X154019542Y-38441649D01*
X154029984Y-38423490D01*
X154059141Y-38372795D01*
X154105103Y-38292885D01*
X154160782Y-38196087D01*
X154202270Y-38123962D01*
X154244043Y-38051326D01*
X154306143Y-37943322D01*
X154385016Y-37806131D01*
X154477109Y-37645936D01*
X154578867Y-37468919D01*
X154686736Y-37281261D01*
X154797164Y-37089146D01*
X154808385Y-37069622D01*
X154929212Y-36859441D01*
X155056787Y-36637579D01*
X155185808Y-36413253D01*
X155310977Y-36195675D01*
X155426991Y-35994060D01*
X155528550Y-35817623D01*
X155594111Y-35703773D01*
X155687292Y-35541932D01*
X155780990Y-35379060D01*
X155869914Y-35224365D01*
X155948772Y-35087055D01*
X156012274Y-34976338D01*
X156041661Y-34925000D01*
X156113978Y-34798579D01*
X156200282Y-34647819D01*
X156292800Y-34486290D01*
X156383756Y-34327564D01*
X156465376Y-34185211D01*
X156522122Y-34086321D01*
X156550833Y-34036446D01*
X156596728Y-33956862D01*
X156653011Y-33859351D01*
X156701838Y-33774811D01*
X156821196Y-33567886D01*
X156918598Y-33397948D01*
X156996268Y-33260609D01*
X157056432Y-33151480D01*
X157101315Y-33066174D01*
X157133143Y-33000301D01*
X157154140Y-32949473D01*
X157166532Y-32909301D01*
X157172545Y-32875397D01*
X157174404Y-32843373D01*
X157174412Y-32842851D01*
X158396524Y-32842851D01*
X158375111Y-32883191D01*
X158322235Y-32978066D01*
X158194178Y-33201941D01*
X158082981Y-33396296D01*
X157990076Y-33558629D01*
X157916893Y-33686438D01*
X157864867Y-33777222D01*
X157838734Y-33822736D01*
X157774914Y-33933593D01*
X157700264Y-34063151D01*
X157611352Y-34217359D01*
X157504751Y-34402165D01*
X157400100Y-34583538D01*
X157189932Y-34947856D01*
X156986339Y-35300987D01*
X156791077Y-35639877D01*
X156605901Y-35961474D01*
X156432564Y-36262727D01*
X156272823Y-36540583D01*
X156128431Y-36791990D01*
X156001143Y-37013896D01*
X155892714Y-37203248D01*
X155804900Y-37356995D01*
X155743469Y-37465000D01*
X155714739Y-37515313D01*
X155664857Y-37602263D01*
X155596624Y-37720980D01*
X155512844Y-37866596D01*
X155416320Y-38034240D01*
X155309856Y-38219043D01*
X155196256Y-38416135D01*
X155078321Y-38620647D01*
X155015802Y-38729021D01*
X154956040Y-38832770D01*
X154899045Y-38932005D01*
X154852944Y-39012562D01*
X154833628Y-39046509D01*
X154804576Y-39097423D01*
X154756394Y-39181447D01*
X154693907Y-39290184D01*
X154621942Y-39415238D01*
X154545323Y-39548211D01*
X154544454Y-39549717D01*
X154455411Y-39704173D01*
X154359186Y-39871123D01*
X154264216Y-40035927D01*
X154178938Y-40183948D01*
X154130189Y-40268585D01*
X154075705Y-40363194D01*
X154001453Y-40492129D01*
X153911582Y-40648184D01*
X153810240Y-40824154D01*
X153701578Y-41012835D01*
X153589743Y-41207023D01*
X153495394Y-41370849D01*
X153391138Y-41551901D01*
X153292608Y-41723052D01*
X153202797Y-41879100D01*
X153124699Y-42014844D01*
X153061304Y-42125083D01*
X153015605Y-42204617D01*
X152990595Y-42248244D01*
X152989570Y-42250040D01*
X152963027Y-42296417D01*
X152916807Y-42376982D01*
X152855134Y-42484383D01*
X152782229Y-42611266D01*
X152702316Y-42750282D01*
X152666161Y-42813154D01*
X152577362Y-42967656D01*
X152487074Y-43124917D01*
X152401298Y-43274477D01*
X152326031Y-43405874D01*
X152267273Y-43508649D01*
X152256546Y-43527453D01*
X152134036Y-43741575D01*
X152031769Y-43918398D01*
X151946826Y-44062576D01*
X151876286Y-44178765D01*
X151817227Y-44271619D01*
X151766730Y-44345794D01*
X151721874Y-44405944D01*
X151679739Y-44456726D01*
X151659123Y-44479682D01*
X151511144Y-44613432D01*
X151357940Y-44700361D01*
X151201558Y-44741016D01*
X151044045Y-44735945D01*
X151044045Y-44735945D01*
G37*
X151044045Y-44735945D02*
X150887447Y-44685697D01*
X150733810Y-44590821D01*
X150585182Y-44451863D01*
X150443608Y-44269372D01*
X150358396Y-44131303D01*
X150308998Y-44044604D01*
X150245648Y-43933944D01*
X150178390Y-43816847D01*
X150142818Y-43755094D01*
X150091332Y-43665789D01*
X150021607Y-43544798D01*
X149939317Y-43401966D01*
X149850134Y-43247142D01*
X149759731Y-43090171D01*
X149728668Y-43036226D01*
X149342998Y-42366874D01*
X148951827Y-41688840D01*
X148560541Y-41011415D01*
X148485504Y-40881460D01*
X148390175Y-40716177D01*
X148278137Y-40521789D01*
X148152974Y-40304522D01*
X148018270Y-40070600D01*
X147877610Y-39826247D01*
X147734577Y-39577688D01*
X147592755Y-39331148D01*
X147455729Y-39092851D01*
X147373996Y-38950660D01*
X147292712Y-38809252D01*
X147217213Y-38677957D01*
X147151533Y-38563782D01*
X147099702Y-38473737D01*
X147065754Y-38414828D01*
X147056912Y-38399528D01*
X147001079Y-38303027D01*
X146926305Y-38173587D01*
X146837550Y-38019807D01*
X146739775Y-37850287D01*
X146637938Y-37673626D01*
X146537000Y-37498425D01*
X146441920Y-37333284D01*
X146421192Y-37297264D01*
X146337394Y-37151683D01*
X146251221Y-37002080D01*
X146169560Y-36860397D01*
X146099292Y-36738579D01*
X146055220Y-36662264D01*
X145986876Y-36543591D01*
X145906493Y-36403352D01*
X145825611Y-36261708D01*
X145774038Y-36171038D01*
X145703898Y-36048173D01*
X145629834Y-35919620D01*
X145561636Y-35802309D01*
X145517761Y-35727736D01*
X145459706Y-35629137D01*
X145402744Y-35531075D01*
X145357583Y-35452006D01*
X145350961Y-35440188D01*
X145321693Y-35388431D01*
X145272738Y-35302688D01*
X145208401Y-35190461D01*
X145132985Y-35059252D01*
X145050795Y-34916564D01*
X145007276Y-34841132D01*
X144860335Y-34586440D01*
X144730202Y-34360594D01*
X144618382Y-34166215D01*
X144526380Y-34005921D01*
X144455702Y-33882332D01*
X144415019Y-33810755D01*
X144363541Y-33720481D01*
X144299694Y-33609626D01*
X144228724Y-33487179D01*
X144155880Y-33362129D01*
X144086409Y-33243463D01*
X144025559Y-33140170D01*
X143978576Y-33061239D01*
X143952275Y-33018122D01*
X143901500Y-32929953D01*
X143843265Y-32816882D01*
X143783530Y-32691880D01*
X143728256Y-32567917D01*
X143683403Y-32457964D01*
X143654931Y-32374992D01*
X143652424Y-32365606D01*
X143631643Y-32194467D01*
X143651647Y-32023736D01*
X143709094Y-31863611D01*
X143800640Y-31724295D01*
X143890578Y-31638902D01*
X143973133Y-31587220D01*
X144076152Y-31537896D01*
X144151193Y-31510207D01*
X144167068Y-31505469D01*
X144184061Y-31501057D01*
X144203849Y-31496958D01*
X144228109Y-31493161D01*
X144258520Y-31489656D01*
X144296758Y-31486431D01*
X144344502Y-31483476D01*
X144403428Y-31480778D01*
X144475215Y-31478328D01*
X144561539Y-31476114D01*
X144664078Y-31474125D01*
X144784510Y-31472350D01*
X144924513Y-31470778D01*
X145085763Y-31469398D01*
X145269938Y-31468198D01*
X145478716Y-31467168D01*
X145713775Y-31466297D01*
X145976791Y-31465573D01*
X146269442Y-31464985D01*
X146593406Y-31464523D01*
X146950360Y-31464175D01*
X147341983Y-31463931D01*
X147769950Y-31463778D01*
X148235940Y-31463706D01*
X148741631Y-31463705D01*
X149288700Y-31463762D01*
X149878823Y-31463867D01*
X150513680Y-31464009D01*
X151126533Y-31464160D01*
X151804286Y-31464339D01*
X152435787Y-31464532D01*
X153022710Y-31464751D01*
X153566728Y-31465005D01*
X154069514Y-31465306D01*
X154532740Y-31465664D01*
X154958081Y-31466091D01*
X155347208Y-31466597D01*
X155701796Y-31467193D01*
X156023517Y-31467889D01*
X156314045Y-31468698D01*
X156575052Y-31469628D01*
X156808212Y-31470692D01*
X157015197Y-31471900D01*
X157197681Y-31473263D01*
X157357337Y-31474791D01*
X157495838Y-31476496D01*
X157614856Y-31478389D01*
X157716066Y-31480479D01*
X157801141Y-31482779D01*
X157871752Y-31485298D01*
X157929574Y-31488048D01*
X157976280Y-31491039D01*
X158013542Y-31494282D01*
X158043033Y-31497789D01*
X158066428Y-31501569D01*
X158085398Y-31505634D01*
X158099016Y-31509242D01*
X158279320Y-31581860D01*
X158423726Y-31684303D01*
X158530732Y-31813019D01*
X158598832Y-31964457D01*
X158626522Y-32135065D01*
X158612297Y-32321294D01*
X158554654Y-32519592D01*
X158541074Y-32552736D01*
X158499155Y-32643404D01*
X158441047Y-32758974D01*
X158396524Y-32842851D01*
X157174412Y-32842851D01*
X157158505Y-32708461D01*
X157105518Y-32603589D01*
X157014338Y-32526944D01*
X156883849Y-32477237D01*
X156852566Y-32470341D01*
X156819410Y-32468481D01*
X156740463Y-32466695D01*
X156617855Y-32464991D01*
X156453721Y-32463373D01*
X156250191Y-32461850D01*
X156009399Y-32460426D01*
X155733478Y-32459108D01*
X155424558Y-32457902D01*
X155084773Y-32456815D01*
X154716256Y-32455852D01*
X154321138Y-32455021D01*
X153901552Y-32454326D01*
X153459631Y-32453776D01*
X152997507Y-32453375D01*
X152517311Y-32453130D01*
X152021178Y-32453047D01*
X151511239Y-32453133D01*
X151058113Y-32453350D01*
X145367075Y-32456887D01*
X145258366Y-32520797D01*
X145160082Y-32594778D01*
X145103675Y-32681258D01*
X145083137Y-32790855D01*
X145083092Y-32830477D01*
X145087586Y-32879744D01*
X145099851Y-32932823D01*
X145122666Y-32995611D01*
X145158810Y-33074003D01*
X145211062Y-33173896D01*
X145282201Y-33301187D01*
X145375006Y-33461771D01*
X145403918Y-33511226D01*
X145472768Y-33629463D01*
X145552580Y-33767539D01*
X145630728Y-33903576D01*
X145666665Y-33966509D01*
X145741038Y-34096700D01*
X145825861Y-34244544D01*
X145907483Y-34386271D01*
X145941868Y-34445755D01*
X146017132Y-34575979D01*
X146102383Y-34723861D01*
X146183917Y-34865611D01*
X146218001Y-34925000D01*
X146268949Y-35013718D01*
X146338677Y-35134930D01*
X146421996Y-35279627D01*
X146513719Y-35438802D01*
X146608658Y-35603448D01*
X146673455Y-35715755D01*
X146775147Y-35892014D01*
X146887720Y-36087228D01*
X147007796Y-36295529D01*
X147131994Y-36511052D01*
X147256937Y-36727927D01*
X147379245Y-36940289D01*
X147495540Y-37142270D01*
X147602441Y-37328003D01*
X147696571Y-37491620D01*
X147774550Y-37627255D01*
X147833000Y-37729040D01*
X147846478Y-37752547D01*
X147883307Y-37816662D01*
X147940955Y-37916834D01*
X148016281Y-38047616D01*
X148106142Y-38203560D01*
X148207397Y-38379219D01*
X148316903Y-38569146D01*
X148431519Y-38767893D01*
X148548101Y-38970013D01*
X148663509Y-39170059D01*
X148774601Y-39362583D01*
X148878233Y-39542138D01*
X148971264Y-39703277D01*
X149050553Y-39840553D01*
X149112956Y-39948517D01*
X149155333Y-40021723D01*
X149159531Y-40028962D01*
X149211973Y-40119958D01*
X149263449Y-40210270D01*
X149296245Y-40268585D01*
X149320995Y-40312238D01*
X149366494Y-40391632D01*
X149429450Y-40501053D01*
X149506568Y-40634787D01*
X149594554Y-40787118D01*
X149690113Y-40952331D01*
X149752073Y-41059339D01*
X149852698Y-41233170D01*
X149949577Y-41400750D01*
X150039057Y-41555744D01*
X150117486Y-41691819D01*
X150181211Y-41802641D01*
X150226581Y-41881874D01*
X150242560Y-41910000D01*
X150385424Y-42161574D01*
X150512410Y-42382264D01*
X150622341Y-42570098D01*
X150714041Y-42723108D01*
X150786333Y-42839324D01*
X150838041Y-42916776D01*
X150862853Y-42948507D01*
X150968139Y-43034831D01*
X151080141Y-43079545D01*
X151191905Y-43081600D01*
X151296475Y-43039946D01*
X151325850Y-43018402D01*
X151383051Y-42968505D01*
X151427190Y-42925334D01*
X151434869Y-42916562D01*
X151456233Y-42884333D01*
X151497975Y-42816222D01*
X151556716Y-42717967D01*
X151629076Y-42595307D01*
X151711675Y-42453979D01*
X151801133Y-42299723D01*
X151894069Y-42138277D01*
X151921884Y-42089717D01*
X151992855Y-41965789D01*
X152077193Y-41818721D01*
X152171239Y-41654878D01*
X152271331Y-41480623D01*
X152373809Y-41302322D01*
X152475013Y-41126340D01*
X152571283Y-40959040D01*
X152658958Y-40806788D01*
X152734377Y-40675948D01*
X152793882Y-40572885D01*
X152833810Y-40503964D01*
X152838314Y-40496226D01*
X152870239Y-40440869D01*
X152918581Y-40356354D01*
X152976170Y-40255240D01*
X153023005Y-40172736D01*
X153096205Y-40044198D01*
X153178810Y-39900100D01*
X153257635Y-39763410D01*
X153291247Y-39705472D01*
X153343072Y-39616134D01*
X153413075Y-39495093D01*
X153495568Y-39352205D01*
X153584862Y-39197325D01*
X153675269Y-39040311D01*
X153706162Y-38986604D01*
X153788432Y-38843539D01*
X153864867Y-38710623D01*
X153931505Y-38594743D01*
X153984384Y-38502788D01*
X154019542Y-38441649D01*
X154029984Y-38423490D01*
X154059141Y-38372795D01*
X154105103Y-38292885D01*
X154160782Y-38196087D01*
X154202270Y-38123962D01*
X154244043Y-38051326D01*
X154306143Y-37943322D01*
X154385016Y-37806131D01*
X154477109Y-37645936D01*
X154578867Y-37468919D01*
X154686736Y-37281261D01*
X154797164Y-37089146D01*
X154808385Y-37069622D01*
X154929212Y-36859441D01*
X155056787Y-36637579D01*
X155185808Y-36413253D01*
X155310977Y-36195675D01*
X155426991Y-35994060D01*
X155528550Y-35817623D01*
X155594111Y-35703773D01*
X155687292Y-35541932D01*
X155780990Y-35379060D01*
X155869914Y-35224365D01*
X155948772Y-35087055D01*
X156012274Y-34976338D01*
X156041661Y-34925000D01*
X156113978Y-34798579D01*
X156200282Y-34647819D01*
X156292800Y-34486290D01*
X156383756Y-34327564D01*
X156465376Y-34185211D01*
X156522122Y-34086321D01*
X156550833Y-34036446D01*
X156596728Y-33956862D01*
X156653011Y-33859351D01*
X156701838Y-33774811D01*
X156821196Y-33567886D01*
X156918598Y-33397948D01*
X156996268Y-33260609D01*
X157056432Y-33151480D01*
X157101315Y-33066174D01*
X157133143Y-33000301D01*
X157154140Y-32949473D01*
X157166532Y-32909301D01*
X157172545Y-32875397D01*
X157174404Y-32843373D01*
X157174412Y-32842851D01*
X158396524Y-32842851D01*
X158375111Y-32883191D01*
X158322235Y-32978066D01*
X158194178Y-33201941D01*
X158082981Y-33396296D01*
X157990076Y-33558629D01*
X157916893Y-33686438D01*
X157864867Y-33777222D01*
X157838734Y-33822736D01*
X157774914Y-33933593D01*
X157700264Y-34063151D01*
X157611352Y-34217359D01*
X157504751Y-34402165D01*
X157400100Y-34583538D01*
X157189932Y-34947856D01*
X156986339Y-35300987D01*
X156791077Y-35639877D01*
X156605901Y-35961474D01*
X156432564Y-36262727D01*
X156272823Y-36540583D01*
X156128431Y-36791990D01*
X156001143Y-37013896D01*
X155892714Y-37203248D01*
X155804900Y-37356995D01*
X155743469Y-37465000D01*
X155714739Y-37515313D01*
X155664857Y-37602263D01*
X155596624Y-37720980D01*
X155512844Y-37866596D01*
X155416320Y-38034240D01*
X155309856Y-38219043D01*
X155196256Y-38416135D01*
X155078321Y-38620647D01*
X155015802Y-38729021D01*
X154956040Y-38832770D01*
X154899045Y-38932005D01*
X154852944Y-39012562D01*
X154833628Y-39046509D01*
X154804576Y-39097423D01*
X154756394Y-39181447D01*
X154693907Y-39290184D01*
X154621942Y-39415238D01*
X154545323Y-39548211D01*
X154544454Y-39549717D01*
X154455411Y-39704173D01*
X154359186Y-39871123D01*
X154264216Y-40035927D01*
X154178938Y-40183948D01*
X154130189Y-40268585D01*
X154075705Y-40363194D01*
X154001453Y-40492129D01*
X153911582Y-40648184D01*
X153810240Y-40824154D01*
X153701578Y-41012835D01*
X153589743Y-41207023D01*
X153495394Y-41370849D01*
X153391138Y-41551901D01*
X153292608Y-41723052D01*
X153202797Y-41879100D01*
X153124699Y-42014844D01*
X153061304Y-42125083D01*
X153015605Y-42204617D01*
X152990595Y-42248244D01*
X152989570Y-42250040D01*
X152963027Y-42296417D01*
X152916807Y-42376982D01*
X152855134Y-42484383D01*
X152782229Y-42611266D01*
X152702316Y-42750282D01*
X152666161Y-42813154D01*
X152577362Y-42967656D01*
X152487074Y-43124917D01*
X152401298Y-43274477D01*
X152326031Y-43405874D01*
X152267273Y-43508649D01*
X152256546Y-43527453D01*
X152134036Y-43741575D01*
X152031769Y-43918398D01*
X151946826Y-44062576D01*
X151876286Y-44178765D01*
X151817227Y-44271619D01*
X151766730Y-44345794D01*
X151721874Y-44405944D01*
X151679739Y-44456726D01*
X151659123Y-44479682D01*
X151511144Y-44613432D01*
X151357940Y-44700361D01*
X151201558Y-44741016D01*
X151044045Y-44735945D01*
G04 #@! TD*
M02*
