G04 #@! TF.GenerationSoftware,KiCad,Pcbnew,(5.0.1)-4*
G04 #@! TF.CreationDate,2019-02-15T22:12:16-03:00*
G04 #@! TF.ProjectId,reflow,7265666C6F772E6B696361645F706362,rev?*
G04 #@! TF.SameCoordinates,Original*
G04 #@! TF.FileFunction,Legend,Top*
G04 #@! TF.FilePolarity,Positive*
%FSLAX46Y46*%
G04 Gerber Fmt 4.6, Leading zero omitted, Abs format (unit mm)*
G04 Created by KiCad (PCBNEW (5.0.1)-4) date 15/2/2019 22:12:16*
%MOMM*%
%LPD*%
G01*
G04 APERTURE LIST*
%ADD10C,0.300000*%
%ADD11C,0.250000*%
%ADD12C,0.200000*%
%ADD13C,0.400000*%
%ADD14C,0.120000*%
%ADD15C,0.150000*%
%ADD16C,0.381000*%
%ADD17C,0.152400*%
%ADD18C,0.304800*%
%ADD19C,0.127000*%
%ADD20C,0.010000*%
G04 APERTURE END LIST*
D10*
X123717857Y-50890000D02*
X123717857Y-51390000D01*
X124503571Y-51390000D02*
X123003571Y-51390000D01*
X123003571Y-50675714D01*
X123003571Y-50104285D02*
X124217857Y-50104285D01*
X124360714Y-50032857D01*
X124432142Y-49961428D01*
X124503571Y-49818571D01*
X124503571Y-49532857D01*
X124432142Y-49390000D01*
X124360714Y-49318571D01*
X124217857Y-49247142D01*
X123003571Y-49247142D01*
X124432142Y-48604285D02*
X124503571Y-48390000D01*
X124503571Y-48032857D01*
X124432142Y-47890000D01*
X124360714Y-47818571D01*
X124217857Y-47747142D01*
X124075000Y-47747142D01*
X123932142Y-47818571D01*
X123860714Y-47890000D01*
X123789285Y-48032857D01*
X123717857Y-48318571D01*
X123646428Y-48461428D01*
X123575000Y-48532857D01*
X123432142Y-48604285D01*
X123289285Y-48604285D01*
X123146428Y-48532857D01*
X123075000Y-48461428D01*
X123003571Y-48318571D01*
X123003571Y-47961428D01*
X123075000Y-47747142D01*
X123717857Y-47104285D02*
X123717857Y-46604285D01*
X124503571Y-46390000D02*
X124503571Y-47104285D01*
X123003571Y-47104285D01*
X123003571Y-46390000D01*
X123146428Y-44675714D02*
X123075000Y-44604285D01*
X123003571Y-44461428D01*
X123003571Y-44104285D01*
X123075000Y-43961428D01*
X123146428Y-43890000D01*
X123289285Y-43818571D01*
X123432142Y-43818571D01*
X123646428Y-43890000D01*
X124503571Y-44747142D01*
X124503571Y-43818571D01*
X123003571Y-42461428D02*
X123003571Y-43175714D01*
X123717857Y-43247142D01*
X123646428Y-43175714D01*
X123575000Y-43032857D01*
X123575000Y-42675714D01*
X123646428Y-42532857D01*
X123717857Y-42461428D01*
X123860714Y-42390000D01*
X124217857Y-42390000D01*
X124360714Y-42461428D01*
X124432142Y-42532857D01*
X124503571Y-42675714D01*
X124503571Y-43032857D01*
X124432142Y-43175714D01*
X124360714Y-43247142D01*
X123003571Y-41461428D02*
X123003571Y-41318571D01*
X123075000Y-41175714D01*
X123146428Y-41104285D01*
X123289285Y-41032857D01*
X123575000Y-40961428D01*
X123932142Y-40961428D01*
X124217857Y-41032857D01*
X124360714Y-41104285D01*
X124432142Y-41175714D01*
X124503571Y-41318571D01*
X124503571Y-41461428D01*
X124432142Y-41604285D01*
X124360714Y-41675714D01*
X124217857Y-41747142D01*
X123932142Y-41818571D01*
X123575000Y-41818571D01*
X123289285Y-41747142D01*
X123146428Y-41675714D01*
X123075000Y-41604285D01*
X123003571Y-41461428D01*
X123003571Y-40532857D02*
X124503571Y-40032857D01*
X123003571Y-39532857D01*
X123146428Y-37961428D02*
X123075000Y-37890000D01*
X123003571Y-37747142D01*
X123003571Y-37390000D01*
X123075000Y-37247142D01*
X123146428Y-37175714D01*
X123289285Y-37104285D01*
X123432142Y-37104285D01*
X123646428Y-37175714D01*
X124503571Y-38032857D01*
X124503571Y-37104285D01*
X123003571Y-35747142D02*
X123003571Y-36461428D01*
X123717857Y-36532857D01*
X123646428Y-36461428D01*
X123575000Y-36318571D01*
X123575000Y-35961428D01*
X123646428Y-35818571D01*
X123717857Y-35747142D01*
X123860714Y-35675714D01*
X124217857Y-35675714D01*
X124360714Y-35747142D01*
X124432142Y-35818571D01*
X124503571Y-35961428D01*
X124503571Y-36318571D01*
X124432142Y-36461428D01*
X124360714Y-36532857D01*
X123003571Y-34747142D02*
X123003571Y-34604285D01*
X123075000Y-34461428D01*
X123146428Y-34390000D01*
X123289285Y-34318571D01*
X123575000Y-34247142D01*
X123932142Y-34247142D01*
X124217857Y-34318571D01*
X124360714Y-34390000D01*
X124432142Y-34461428D01*
X124503571Y-34604285D01*
X124503571Y-34747142D01*
X124432142Y-34890000D01*
X124360714Y-34961428D01*
X124217857Y-35032857D01*
X123932142Y-35104285D01*
X123575000Y-35104285D01*
X123289285Y-35032857D01*
X123146428Y-34961428D01*
X123075000Y-34890000D01*
X123003571Y-34747142D01*
X124503571Y-33604285D02*
X123503571Y-33604285D01*
X123646428Y-33604285D02*
X123575000Y-33532857D01*
X123503571Y-33390000D01*
X123503571Y-33175714D01*
X123575000Y-33032857D01*
X123717857Y-32961428D01*
X124503571Y-32961428D01*
X123717857Y-32961428D02*
X123575000Y-32890000D01*
X123503571Y-32747142D01*
X123503571Y-32532857D01*
X123575000Y-32390000D01*
X123717857Y-32318571D01*
X124503571Y-32318571D01*
X124075000Y-31675714D02*
X124075000Y-30961428D01*
X124503571Y-31818571D02*
X123003571Y-31318571D01*
X124503571Y-30818571D01*
X155701428Y-29893571D02*
X155630000Y-29965000D01*
X155487142Y-30036428D01*
X155130000Y-30036428D01*
X154987142Y-29965000D01*
X154915714Y-29893571D01*
X154844285Y-29750714D01*
X154844285Y-29607857D01*
X154915714Y-29393571D01*
X155772857Y-28536428D01*
X154844285Y-28536428D01*
X153915714Y-30036428D02*
X153772857Y-30036428D01*
X153630000Y-29965000D01*
X153558571Y-29893571D01*
X153487142Y-29750714D01*
X153415714Y-29465000D01*
X153415714Y-29107857D01*
X153487142Y-28822142D01*
X153558571Y-28679285D01*
X153630000Y-28607857D01*
X153772857Y-28536428D01*
X153915714Y-28536428D01*
X154058571Y-28607857D01*
X154130000Y-28679285D01*
X154201428Y-28822142D01*
X154272857Y-29107857D01*
X154272857Y-29465000D01*
X154201428Y-29750714D01*
X154130000Y-29893571D01*
X154058571Y-29965000D01*
X153915714Y-30036428D01*
X152844285Y-28965000D02*
X152130000Y-28965000D01*
X152987142Y-28536428D02*
X152487142Y-30036428D01*
X151987142Y-28536428D01*
X150344285Y-28536428D02*
X150344285Y-30036428D01*
X149844285Y-28965000D01*
X149344285Y-30036428D01*
X149344285Y-28536428D01*
X148701428Y-28965000D02*
X147987142Y-28965000D01*
X148844285Y-28536428D02*
X148344285Y-30036428D01*
X147844285Y-28536428D01*
X147487142Y-30036428D02*
X146487142Y-28536428D01*
X146487142Y-30036428D02*
X147487142Y-28536428D01*
X155915714Y-27486428D02*
X155915714Y-26272142D01*
X155844285Y-26129285D01*
X155772857Y-26057857D01*
X155630000Y-25986428D01*
X155344285Y-25986428D01*
X155201428Y-26057857D01*
X155130000Y-26129285D01*
X155058571Y-26272142D01*
X155058571Y-27486428D01*
X154344285Y-25986428D02*
X154344285Y-27486428D01*
X153487142Y-25986428D01*
X153487142Y-27486428D01*
X152272857Y-26772142D02*
X152772857Y-26772142D01*
X152772857Y-25986428D02*
X152772857Y-27486428D01*
X152058571Y-27486428D01*
X151487142Y-27486428D02*
X151487142Y-26272142D01*
X151415714Y-26129285D01*
X151344285Y-26057857D01*
X151201428Y-25986428D01*
X150915714Y-25986428D01*
X150772857Y-26057857D01*
X150701428Y-26129285D01*
X150630000Y-26272142D01*
X150630000Y-27486428D01*
X149987142Y-26057857D02*
X149772857Y-25986428D01*
X149415714Y-25986428D01*
X149272857Y-26057857D01*
X149201428Y-26129285D01*
X149130000Y-26272142D01*
X149130000Y-26415000D01*
X149201428Y-26557857D01*
X149272857Y-26629285D01*
X149415714Y-26700714D01*
X149701428Y-26772142D01*
X149844285Y-26843571D01*
X149915714Y-26915000D01*
X149987142Y-27057857D01*
X149987142Y-27200714D01*
X149915714Y-27343571D01*
X149844285Y-27415000D01*
X149701428Y-27486428D01*
X149344285Y-27486428D01*
X149130000Y-27415000D01*
X148487142Y-26772142D02*
X147987142Y-26772142D01*
X147772857Y-25986428D02*
X148487142Y-25986428D01*
X148487142Y-27486428D01*
X147772857Y-27486428D01*
X147130000Y-25986428D02*
X147130000Y-27486428D01*
X146772857Y-27486428D01*
X146558571Y-27415000D01*
X146415714Y-27272142D01*
X146344285Y-27129285D01*
X146272857Y-26843571D01*
X146272857Y-26629285D01*
X146344285Y-26343571D01*
X146415714Y-26200714D01*
X146558571Y-26057857D01*
X146772857Y-25986428D01*
X147130000Y-25986428D01*
D11*
X155171666Y-65638333D02*
X155838333Y-65638333D01*
X155038333Y-66038333D02*
X155505000Y-64638333D01*
X155971666Y-66038333D01*
X156238333Y-64638333D02*
X157038333Y-64638333D01*
X156638333Y-66038333D02*
X156638333Y-64638333D01*
X157305000Y-64638333D02*
X158105000Y-64638333D01*
X157705000Y-66038333D02*
X157705000Y-64638333D01*
X158571666Y-65305000D02*
X159038333Y-65305000D01*
X159238333Y-66038333D02*
X158571666Y-66038333D01*
X158571666Y-64638333D01*
X159238333Y-64638333D01*
X159838333Y-66038333D02*
X159838333Y-64638333D01*
X160638333Y-66038333D01*
X160638333Y-64638333D01*
X161105000Y-64638333D02*
X161905000Y-64638333D01*
X161505000Y-66038333D02*
X161505000Y-64638333D01*
X162371666Y-66038333D02*
X162371666Y-64638333D01*
X163305000Y-64638333D02*
X163571666Y-64638333D01*
X163705000Y-64705000D01*
X163838333Y-64838333D01*
X163905000Y-65105000D01*
X163905000Y-65571666D01*
X163838333Y-65838333D01*
X163705000Y-65971666D01*
X163571666Y-66038333D01*
X163305000Y-66038333D01*
X163171666Y-65971666D01*
X163038333Y-65838333D01*
X162971666Y-65571666D01*
X162971666Y-65105000D01*
X163038333Y-64838333D01*
X163171666Y-64705000D01*
X163305000Y-64638333D01*
X164505000Y-66038333D02*
X164505000Y-64638333D01*
X165305000Y-66038333D01*
X165305000Y-64638333D01*
X165971666Y-65905000D02*
X166038333Y-65971666D01*
X165971666Y-66038333D01*
X165905000Y-65971666D01*
X165971666Y-65905000D01*
X165971666Y-66038333D01*
X165971666Y-65171666D02*
X166038333Y-65238333D01*
X165971666Y-65305000D01*
X165905000Y-65238333D01*
X165971666Y-65171666D01*
X165971666Y-65305000D01*
X168371666Y-66038333D02*
X167705000Y-66038333D01*
X167705000Y-64638333D01*
X168838333Y-66038333D02*
X168838333Y-64638333D01*
X169305000Y-64638333D02*
X169771666Y-66038333D01*
X170238333Y-64638333D01*
X170705000Y-65305000D02*
X171171666Y-65305000D01*
X171371666Y-66038333D02*
X170705000Y-66038333D01*
X170705000Y-64638333D01*
X171371666Y-64638333D01*
X173038333Y-66038333D02*
X173038333Y-64638333D01*
X173571666Y-64638333D01*
X173705000Y-64705000D01*
X173771666Y-64771666D01*
X173838333Y-64905000D01*
X173838333Y-65105000D01*
X173771666Y-65238333D01*
X173705000Y-65305000D01*
X173571666Y-65371666D01*
X173038333Y-65371666D01*
X174371666Y-65638333D02*
X175038333Y-65638333D01*
X174238333Y-66038333D02*
X174705000Y-64638333D01*
X175171666Y-66038333D01*
X176438333Y-66038333D02*
X175971666Y-65371666D01*
X175638333Y-66038333D02*
X175638333Y-64638333D01*
X176171666Y-64638333D01*
X176305000Y-64705000D01*
X176371666Y-64771666D01*
X176438333Y-64905000D01*
X176438333Y-65105000D01*
X176371666Y-65238333D01*
X176305000Y-65305000D01*
X176171666Y-65371666D01*
X175638333Y-65371666D01*
X176838333Y-64638333D02*
X177638333Y-64638333D01*
X177238333Y-66038333D02*
X177238333Y-64638333D01*
X178038333Y-65971666D02*
X178238333Y-66038333D01*
X178571666Y-66038333D01*
X178705000Y-65971666D01*
X178771666Y-65905000D01*
X178838333Y-65771666D01*
X178838333Y-65638333D01*
X178771666Y-65505000D01*
X178705000Y-65438333D01*
X178571666Y-65371666D01*
X178305000Y-65305000D01*
X178171666Y-65238333D01*
X178105000Y-65171666D01*
X178038333Y-65038333D01*
X178038333Y-64905000D01*
X178105000Y-64771666D01*
X178171666Y-64705000D01*
X178305000Y-64638333D01*
X178638333Y-64638333D01*
X178838333Y-64705000D01*
D12*
X179070000Y-68580000D02*
X180340000Y-67310000D01*
X177800000Y-68580000D02*
X179070000Y-67310000D01*
X176530000Y-68580000D02*
X177800000Y-67310000D01*
X175260000Y-68580000D02*
X176530000Y-67310000D01*
X173990000Y-68580000D02*
X175260000Y-67310000D01*
X172720000Y-68580000D02*
X173990000Y-67310000D01*
X171450000Y-68580000D02*
X172720000Y-67310000D01*
X170180000Y-68580000D02*
X171450000Y-67310000D01*
X168910000Y-68580000D02*
X170180000Y-67310000D01*
X167640000Y-68580000D02*
X168910000Y-67310000D01*
X166370000Y-68580000D02*
X167640000Y-67310000D01*
X165100000Y-68580000D02*
X166370000Y-67310000D01*
X163830000Y-68580000D02*
X165100000Y-67310000D01*
X162560000Y-68580000D02*
X163830000Y-67310000D01*
X161290000Y-68580000D02*
X162560000Y-67310000D01*
X160020000Y-68580000D02*
X161290000Y-67310000D01*
X158750000Y-68580000D02*
X160020000Y-67310000D01*
X157480000Y-68580000D02*
X158750000Y-67310000D01*
X156210000Y-68580000D02*
X157480000Y-67310000D01*
X154940000Y-68580000D02*
X156210000Y-67310000D01*
X153670000Y-68580000D02*
X154940000Y-67310000D01*
X152400000Y-68580000D02*
X153670000Y-67310000D01*
X151130000Y-68580000D02*
X152400000Y-67310000D01*
X149860000Y-68580000D02*
X151130000Y-67310000D01*
X148590000Y-68580000D02*
X149860000Y-67310000D01*
X147320000Y-68580000D02*
X148590000Y-67310000D01*
X146050000Y-68580000D02*
X147320000Y-67310000D01*
X144780000Y-68580000D02*
X146050000Y-67310000D01*
X143510000Y-68580000D02*
X144780000Y-67310000D01*
X142240000Y-68580000D02*
X143510000Y-67310000D01*
X140970000Y-68580000D02*
X142240000Y-67310000D01*
X139700000Y-68580000D02*
X140970000Y-67310000D01*
X138430000Y-68580000D02*
X139700000Y-67310000D01*
X137160000Y-68580000D02*
X138430000Y-67310000D01*
X135890000Y-68580000D02*
X137160000Y-67310000D01*
X134620000Y-68580000D02*
X135890000Y-67310000D01*
X133350000Y-68580000D02*
X134620000Y-67310000D01*
X132080000Y-68580000D02*
X133350000Y-67310000D01*
X130810000Y-68580000D02*
X132080000Y-67310000D01*
X129540000Y-68580000D02*
X130810000Y-67310000D01*
X128270000Y-68580000D02*
X129540000Y-67310000D01*
X127000000Y-68580000D02*
X128270000Y-67310000D01*
X125730000Y-68580000D02*
X127000000Y-67310000D01*
X124460000Y-68580000D02*
X125730000Y-67310000D01*
X123190000Y-68580000D02*
X124460000Y-67310000D01*
X121920000Y-68580000D02*
X123190000Y-67310000D01*
X121920000Y-67310000D02*
X121920000Y-68580000D01*
X121920000Y-68580000D02*
X121920000Y-67310000D01*
X180340000Y-68580000D02*
X121920000Y-68580000D01*
X180340000Y-67310000D02*
X180340000Y-68580000D01*
X121920000Y-67310000D02*
X180340000Y-67310000D01*
X134648285Y-105877750D02*
X134534000Y-105800369D01*
X134362571Y-105800369D01*
X134191142Y-105877750D01*
X134076857Y-106032511D01*
X134019714Y-106187273D01*
X133962571Y-106496797D01*
X133962571Y-106728940D01*
X134019714Y-107038464D01*
X134076857Y-107193226D01*
X134191142Y-107347988D01*
X134362571Y-107425369D01*
X134476857Y-107425369D01*
X134648285Y-107347988D01*
X134705428Y-107270607D01*
X134705428Y-106728940D01*
X134476857Y-106728940D01*
X135219714Y-107425369D02*
X135219714Y-105800369D01*
X135505428Y-105800369D01*
X135676857Y-105877750D01*
X135791142Y-106032511D01*
X135848285Y-106187273D01*
X135905428Y-106496797D01*
X135905428Y-106728940D01*
X135848285Y-107038464D01*
X135791142Y-107193226D01*
X135676857Y-107347988D01*
X135505428Y-107425369D01*
X135219714Y-107425369D01*
X133848285Y-108437869D02*
X134248285Y-110062869D01*
X134648285Y-108437869D01*
X135048285Y-109443821D02*
X135962571Y-109443821D01*
X135505428Y-110062869D02*
X135505428Y-108824773D01*
X134019714Y-112700369D02*
X134019714Y-111075369D01*
X134819714Y-111075369D02*
X134934000Y-111075369D01*
X135048285Y-111152750D01*
X135105428Y-111230130D01*
X135162571Y-111384892D01*
X135219714Y-111694416D01*
X135219714Y-112081321D01*
X135162571Y-112390845D01*
X135105428Y-112545607D01*
X135048285Y-112622988D01*
X134934000Y-112700369D01*
X134819714Y-112700369D01*
X134705428Y-112622988D01*
X134648285Y-112545607D01*
X134591142Y-112390845D01*
X134534000Y-112081321D01*
X134534000Y-111694416D01*
X134591142Y-111384892D01*
X134648285Y-111230130D01*
X134705428Y-111152750D01*
X134819714Y-111075369D01*
X134705428Y-115337869D02*
X134305428Y-114564059D01*
X134019714Y-115337869D02*
X134019714Y-113712869D01*
X134476857Y-113712869D01*
X134591142Y-113790250D01*
X134648285Y-113867630D01*
X134705428Y-114022392D01*
X134705428Y-114254535D01*
X134648285Y-114409297D01*
X134591142Y-114486678D01*
X134476857Y-114564059D01*
X134019714Y-114564059D01*
X135105428Y-113712869D02*
X135905428Y-115337869D01*
X135905428Y-113712869D02*
X135105428Y-115337869D01*
X133848285Y-116350369D02*
X134534000Y-116350369D01*
X134191142Y-117975369D02*
X134191142Y-116350369D01*
X134819714Y-116350369D02*
X135619714Y-117975369D01*
X135619714Y-116350369D02*
X134819714Y-117975369D01*
X134019714Y-119761678D02*
X134419714Y-119761678D01*
X134591142Y-120612869D02*
X134019714Y-120612869D01*
X134019714Y-118987869D01*
X134591142Y-118987869D01*
X135105428Y-120612869D02*
X135105428Y-118987869D01*
X135791142Y-120612869D01*
X135791142Y-118987869D01*
X162690750Y-103088714D02*
X162618130Y-103203000D01*
X162618130Y-103374428D01*
X162690750Y-103545857D01*
X162835988Y-103660142D01*
X162981226Y-103717285D01*
X163271702Y-103774428D01*
X163489559Y-103774428D01*
X163780035Y-103717285D01*
X163925273Y-103660142D01*
X164070511Y-103545857D01*
X164143130Y-103374428D01*
X164143130Y-103260142D01*
X164070511Y-103088714D01*
X163997892Y-103031571D01*
X163489559Y-103031571D01*
X163489559Y-103260142D01*
X164143130Y-102517285D02*
X162618130Y-102517285D01*
X162618130Y-102231571D01*
X162690750Y-102060142D01*
X162835988Y-101945857D01*
X162981226Y-101888714D01*
X163271702Y-101831571D01*
X163489559Y-101831571D01*
X163780035Y-101888714D01*
X163925273Y-101945857D01*
X164070511Y-102060142D01*
X164143130Y-102231571D01*
X164143130Y-102517285D01*
X165105630Y-104003000D02*
X166630630Y-103603000D01*
X165105630Y-103203000D01*
X166049678Y-102803000D02*
X166049678Y-101888714D01*
X166630630Y-102345857D02*
X165468726Y-102345857D01*
X169118130Y-103945857D02*
X167593130Y-103945857D01*
X168682416Y-103545857D01*
X167593130Y-103145857D01*
X169118130Y-103145857D01*
X167593130Y-102345857D02*
X167593130Y-102117285D01*
X167665750Y-102003000D01*
X167810988Y-101888714D01*
X168101464Y-101831571D01*
X168609797Y-101831571D01*
X168900273Y-101888714D01*
X169045511Y-102003000D01*
X169118130Y-102117285D01*
X169118130Y-102345857D01*
X169045511Y-102460142D01*
X168900273Y-102574428D01*
X168609797Y-102631571D01*
X168101464Y-102631571D01*
X167810988Y-102574428D01*
X167665750Y-102460142D01*
X167593130Y-102345857D01*
X171605630Y-103260142D02*
X170080630Y-103260142D01*
X171169916Y-102860142D01*
X170080630Y-102460142D01*
X171605630Y-102460142D01*
X171605630Y-101888714D02*
X170080630Y-101888714D01*
X173947892Y-103031571D02*
X174020511Y-103088714D01*
X174093130Y-103260142D01*
X174093130Y-103374428D01*
X174020511Y-103545857D01*
X173875273Y-103660142D01*
X173730035Y-103717285D01*
X173439559Y-103774428D01*
X173221702Y-103774428D01*
X172931226Y-103717285D01*
X172785988Y-103660142D01*
X172640750Y-103545857D01*
X172568130Y-103374428D01*
X172568130Y-103260142D01*
X172640750Y-103088714D01*
X172713369Y-103031571D01*
X174093130Y-102517285D02*
X172568130Y-102517285D01*
X174093130Y-101831571D02*
X173221702Y-102345857D01*
X172568130Y-101831571D02*
X173439559Y-102517285D01*
X176435392Y-102974428D02*
X176508011Y-103031571D01*
X176580630Y-103203000D01*
X176580630Y-103317285D01*
X176508011Y-103488714D01*
X176362773Y-103603000D01*
X176217535Y-103660142D01*
X175927059Y-103717285D01*
X175709202Y-103717285D01*
X175418726Y-103660142D01*
X175273488Y-103603000D01*
X175128250Y-103488714D01*
X175055630Y-103317285D01*
X175055630Y-103203000D01*
X175128250Y-103031571D01*
X175200869Y-102974428D01*
X176508011Y-102517285D02*
X176580630Y-102345857D01*
X176580630Y-102060142D01*
X176508011Y-101945857D01*
X176435392Y-101888714D01*
X176290154Y-101831571D01*
X176144916Y-101831571D01*
X175999678Y-101888714D01*
X175927059Y-101945857D01*
X175854440Y-102060142D01*
X175781821Y-102288714D01*
X175709202Y-102403000D01*
X175636583Y-102460142D01*
X175491345Y-102517285D01*
X175346107Y-102517285D01*
X175200869Y-102460142D01*
X175128250Y-102403000D01*
X175055630Y-102288714D01*
X175055630Y-102003000D01*
X175128250Y-101831571D01*
D10*
X168408785Y-116243571D02*
X168596285Y-114743571D01*
X169051642Y-116243571D02*
X169149857Y-115457857D01*
X169096285Y-115315000D01*
X168962357Y-115243571D01*
X168748071Y-115243571D01*
X168596285Y-115315000D01*
X168515928Y-115386428D01*
X169890928Y-115243571D02*
X169730214Y-116529285D01*
X169640928Y-116672142D01*
X169489142Y-116743571D01*
X169417714Y-116743571D01*
X169953428Y-114743571D02*
X169873071Y-114815000D01*
X169935571Y-114886428D01*
X170015928Y-114815000D01*
X169953428Y-114743571D01*
X169935571Y-114886428D01*
X170390928Y-115243571D02*
X170962357Y-115243571D01*
X170480214Y-116243571D02*
X170640928Y-114957857D01*
X170730214Y-114815000D01*
X170882000Y-114743571D01*
X171024857Y-114743571D01*
X167114142Y-117436428D02*
X167194500Y-117365000D01*
X167346285Y-117293571D01*
X167703428Y-117293571D01*
X167837357Y-117365000D01*
X167899857Y-117436428D01*
X167953428Y-117579285D01*
X167935571Y-117722142D01*
X167837357Y-117936428D01*
X166873071Y-118793571D01*
X167801642Y-118793571D01*
X168917714Y-117293571D02*
X169060571Y-117293571D01*
X169194500Y-117365000D01*
X169257000Y-117436428D01*
X169310571Y-117579285D01*
X169346285Y-117865000D01*
X169301642Y-118222142D01*
X169194500Y-118507857D01*
X169105214Y-118650714D01*
X169024857Y-118722142D01*
X168873071Y-118793571D01*
X168730214Y-118793571D01*
X168596285Y-118722142D01*
X168533785Y-118650714D01*
X168480214Y-118507857D01*
X168444500Y-118222142D01*
X168489142Y-117865000D01*
X168596285Y-117579285D01*
X168685571Y-117436428D01*
X168765928Y-117365000D01*
X168917714Y-117293571D01*
X170658785Y-118793571D02*
X169801642Y-118793571D01*
X170230214Y-118793571D02*
X170417714Y-117293571D01*
X170248071Y-117507857D01*
X170087357Y-117650714D01*
X169935571Y-117722142D01*
X171373071Y-118793571D02*
X171658785Y-118793571D01*
X171810571Y-118722142D01*
X171890928Y-118650714D01*
X172060571Y-118436428D01*
X172167714Y-118150714D01*
X172239142Y-117579285D01*
X172185571Y-117436428D01*
X172123071Y-117365000D01*
X171989142Y-117293571D01*
X171703428Y-117293571D01*
X171551642Y-117365000D01*
X171471285Y-117436428D01*
X171382000Y-117579285D01*
X171337357Y-117936428D01*
X171390928Y-118079285D01*
X171453428Y-118150714D01*
X171587357Y-118222142D01*
X171873071Y-118222142D01*
X172024857Y-118150714D01*
X172105214Y-118079285D01*
X172194500Y-117936428D01*
X177994571Y-77838857D02*
X177994571Y-76981714D01*
X179494571Y-77410285D02*
X177994571Y-77410285D01*
X179351714Y-75624571D02*
X179423142Y-75696000D01*
X179494571Y-75910285D01*
X179494571Y-76053142D01*
X179423142Y-76267428D01*
X179280285Y-76410285D01*
X179137428Y-76481714D01*
X178851714Y-76553142D01*
X178637428Y-76553142D01*
X178351714Y-76481714D01*
X178208857Y-76410285D01*
X178066000Y-76267428D01*
X177994571Y-76053142D01*
X177994571Y-75910285D01*
X178066000Y-75696000D01*
X178137428Y-75624571D01*
X178137428Y-75053142D02*
X178066000Y-74981714D01*
X177994571Y-74838857D01*
X177994571Y-74481714D01*
X178066000Y-74338857D01*
X178137428Y-74267428D01*
X178280285Y-74196000D01*
X178423142Y-74196000D01*
X178637428Y-74267428D01*
X179494571Y-75124571D01*
X179494571Y-74196000D01*
X177994571Y-90284857D02*
X177994571Y-89427714D01*
X179494571Y-89856285D02*
X177994571Y-89856285D01*
X179351714Y-88070571D02*
X179423142Y-88142000D01*
X179494571Y-88356285D01*
X179494571Y-88499142D01*
X179423142Y-88713428D01*
X179280285Y-88856285D01*
X179137428Y-88927714D01*
X178851714Y-88999142D01*
X178637428Y-88999142D01*
X178351714Y-88927714D01*
X178208857Y-88856285D01*
X178066000Y-88713428D01*
X177994571Y-88499142D01*
X177994571Y-88356285D01*
X178066000Y-88142000D01*
X178137428Y-88070571D01*
X179494571Y-86642000D02*
X179494571Y-87499142D01*
X179494571Y-87070571D02*
X177994571Y-87070571D01*
X178208857Y-87213428D01*
X178351714Y-87356285D01*
X178423142Y-87499142D01*
X166580857Y-110660571D02*
X166580857Y-109160571D01*
X166938000Y-109160571D01*
X167152285Y-109232000D01*
X167295142Y-109374857D01*
X167366571Y-109517714D01*
X167438000Y-109803428D01*
X167438000Y-110017714D01*
X167366571Y-110303428D01*
X167295142Y-110446285D01*
X167152285Y-110589142D01*
X166938000Y-110660571D01*
X166580857Y-110660571D01*
X168080857Y-110660571D02*
X168080857Y-109160571D01*
X168723714Y-110589142D02*
X168938000Y-110660571D01*
X169295142Y-110660571D01*
X169438000Y-110589142D01*
X169509428Y-110517714D01*
X169580857Y-110374857D01*
X169580857Y-110232000D01*
X169509428Y-110089142D01*
X169438000Y-110017714D01*
X169295142Y-109946285D01*
X169009428Y-109874857D01*
X168866571Y-109803428D01*
X168795142Y-109732000D01*
X168723714Y-109589142D01*
X168723714Y-109446285D01*
X168795142Y-109303428D01*
X168866571Y-109232000D01*
X169009428Y-109160571D01*
X169366571Y-109160571D01*
X169580857Y-109232000D01*
X170223714Y-110660571D02*
X170223714Y-109160571D01*
X170795142Y-109160571D01*
X170938000Y-109232000D01*
X171009428Y-109303428D01*
X171080857Y-109446285D01*
X171080857Y-109660571D01*
X171009428Y-109803428D01*
X170938000Y-109874857D01*
X170795142Y-109946285D01*
X170223714Y-109946285D01*
X172438000Y-110660571D02*
X171723714Y-110660571D01*
X171723714Y-109160571D01*
X172866571Y-110232000D02*
X173580857Y-110232000D01*
X172723714Y-110660571D02*
X173223714Y-109160571D01*
X173723714Y-110660571D01*
X174509428Y-109946285D02*
X174509428Y-110660571D01*
X174009428Y-109160571D02*
X174509428Y-109946285D01*
X175009428Y-109160571D01*
X165803142Y-97960571D02*
X165803142Y-96460571D01*
X166660285Y-97960571D02*
X166017428Y-97103428D01*
X166660285Y-96460571D02*
X165803142Y-97317714D01*
X167303142Y-97174857D02*
X167803142Y-97174857D01*
X168017428Y-97960571D02*
X167303142Y-97960571D01*
X167303142Y-96460571D01*
X168017428Y-96460571D01*
X168946000Y-97246285D02*
X168946000Y-97960571D01*
X168446000Y-96460571D02*
X168946000Y-97246285D01*
X169446000Y-96460571D01*
X170446000Y-97174857D02*
X170660285Y-97246285D01*
X170731714Y-97317714D01*
X170803142Y-97460571D01*
X170803142Y-97674857D01*
X170731714Y-97817714D01*
X170660285Y-97889142D01*
X170517428Y-97960571D01*
X169946000Y-97960571D01*
X169946000Y-96460571D01*
X170446000Y-96460571D01*
X170588857Y-96532000D01*
X170660285Y-96603428D01*
X170731714Y-96746285D01*
X170731714Y-96889142D01*
X170660285Y-97032000D01*
X170588857Y-97103428D01*
X170446000Y-97174857D01*
X169946000Y-97174857D01*
X171731714Y-96460571D02*
X172017428Y-96460571D01*
X172160285Y-96532000D01*
X172303142Y-96674857D01*
X172374571Y-96960571D01*
X172374571Y-97460571D01*
X172303142Y-97746285D01*
X172160285Y-97889142D01*
X172017428Y-97960571D01*
X171731714Y-97960571D01*
X171588857Y-97889142D01*
X171446000Y-97746285D01*
X171374571Y-97460571D01*
X171374571Y-96960571D01*
X171446000Y-96674857D01*
X171588857Y-96532000D01*
X171731714Y-96460571D01*
X172946000Y-97532000D02*
X173660285Y-97532000D01*
X172803142Y-97960571D02*
X173303142Y-96460571D01*
X173803142Y-97960571D01*
X175160285Y-97960571D02*
X174660285Y-97246285D01*
X174303142Y-97960571D02*
X174303142Y-96460571D01*
X174874571Y-96460571D01*
X175017428Y-96532000D01*
X175088857Y-96603428D01*
X175160285Y-96746285D01*
X175160285Y-96960571D01*
X175088857Y-97103428D01*
X175017428Y-97174857D01*
X174874571Y-97246285D01*
X174303142Y-97246285D01*
X175803142Y-97960571D02*
X175803142Y-96460571D01*
X176160285Y-96460571D01*
X176374571Y-96532000D01*
X176517428Y-96674857D01*
X176588857Y-96817714D01*
X176660285Y-97103428D01*
X176660285Y-97317714D01*
X176588857Y-97603428D01*
X176517428Y-97746285D01*
X176374571Y-97889142D01*
X176160285Y-97960571D01*
X175803142Y-97960571D01*
D13*
X174464761Y-49401904D02*
X173512380Y-50068571D01*
X174464761Y-50544761D02*
X172464761Y-50544761D01*
X172464761Y-49782857D01*
X172560000Y-49592380D01*
X172655238Y-49497142D01*
X172845714Y-49401904D01*
X173131428Y-49401904D01*
X173321904Y-49497142D01*
X173417142Y-49592380D01*
X173512380Y-49782857D01*
X173512380Y-50544761D01*
X173417142Y-48544761D02*
X173417142Y-47878095D01*
X174464761Y-47592380D02*
X174464761Y-48544761D01*
X172464761Y-48544761D01*
X172464761Y-47592380D01*
X173417142Y-46068571D02*
X173417142Y-46735238D01*
X174464761Y-46735238D02*
X172464761Y-46735238D01*
X172464761Y-45782857D01*
X174464761Y-44068571D02*
X174464761Y-45020952D01*
X172464761Y-45020952D01*
X172464761Y-43020952D02*
X172464761Y-42640000D01*
X172560000Y-42449523D01*
X172750476Y-42259047D01*
X173131428Y-42163809D01*
X173798095Y-42163809D01*
X174179047Y-42259047D01*
X174369523Y-42449523D01*
X174464761Y-42640000D01*
X174464761Y-43020952D01*
X174369523Y-43211428D01*
X174179047Y-43401904D01*
X173798095Y-43497142D01*
X173131428Y-43497142D01*
X172750476Y-43401904D01*
X172560000Y-43211428D01*
X172464761Y-43020952D01*
X172464761Y-41497142D02*
X174464761Y-41020952D01*
X173036190Y-40640000D01*
X174464761Y-40259047D01*
X172464761Y-39782857D01*
X172464761Y-37116190D02*
X172464761Y-36735238D01*
X172560000Y-36544761D01*
X172750476Y-36354285D01*
X173131428Y-36259047D01*
X173798095Y-36259047D01*
X174179047Y-36354285D01*
X174369523Y-36544761D01*
X174464761Y-36735238D01*
X174464761Y-37116190D01*
X174369523Y-37306666D01*
X174179047Y-37497142D01*
X173798095Y-37592380D01*
X173131428Y-37592380D01*
X172750476Y-37497142D01*
X172560000Y-37306666D01*
X172464761Y-37116190D01*
X172464761Y-35687619D02*
X174464761Y-35020952D01*
X172464761Y-34354285D01*
X173417142Y-33687619D02*
X173417142Y-33020952D01*
X174464761Y-32735238D02*
X174464761Y-33687619D01*
X172464761Y-33687619D01*
X172464761Y-32735238D01*
X174464761Y-31878095D02*
X172464761Y-31878095D01*
X174464761Y-30735238D01*
X172464761Y-30735238D01*
X177674285Y-48449523D02*
X177769523Y-48544761D01*
X177864761Y-48830476D01*
X177864761Y-49020952D01*
X177769523Y-49306666D01*
X177579047Y-49497142D01*
X177388571Y-49592380D01*
X177007619Y-49687619D01*
X176721904Y-49687619D01*
X176340952Y-49592380D01*
X176150476Y-49497142D01*
X175960000Y-49306666D01*
X175864761Y-49020952D01*
X175864761Y-48830476D01*
X175960000Y-48544761D01*
X176055238Y-48449523D01*
X175864761Y-47211428D02*
X175864761Y-46830476D01*
X175960000Y-46640000D01*
X176150476Y-46449523D01*
X176531428Y-46354285D01*
X177198095Y-46354285D01*
X177579047Y-46449523D01*
X177769523Y-46640000D01*
X177864761Y-46830476D01*
X177864761Y-47211428D01*
X177769523Y-47401904D01*
X177579047Y-47592380D01*
X177198095Y-47687619D01*
X176531428Y-47687619D01*
X176150476Y-47592380D01*
X175960000Y-47401904D01*
X175864761Y-47211428D01*
X177864761Y-45497142D02*
X175864761Y-45497142D01*
X177864761Y-44354285D01*
X175864761Y-44354285D01*
X175864761Y-43687619D02*
X175864761Y-42544761D01*
X177864761Y-43116190D02*
X175864761Y-43116190D01*
X177864761Y-40735238D02*
X176912380Y-41401904D01*
X177864761Y-41878095D02*
X175864761Y-41878095D01*
X175864761Y-41116190D01*
X175960000Y-40925714D01*
X176055238Y-40830476D01*
X176245714Y-40735238D01*
X176531428Y-40735238D01*
X176721904Y-40830476D01*
X176817142Y-40925714D01*
X176912380Y-41116190D01*
X176912380Y-41878095D01*
X175864761Y-39497142D02*
X175864761Y-39116190D01*
X175960000Y-38925714D01*
X176150476Y-38735238D01*
X176531428Y-38640000D01*
X177198095Y-38640000D01*
X177579047Y-38735238D01*
X177769523Y-38925714D01*
X177864761Y-39116190D01*
X177864761Y-39497142D01*
X177769523Y-39687619D01*
X177579047Y-39878095D01*
X177198095Y-39973333D01*
X176531428Y-39973333D01*
X176150476Y-39878095D01*
X175960000Y-39687619D01*
X175864761Y-39497142D01*
X177864761Y-36830476D02*
X177864761Y-37782857D01*
X175864761Y-37782857D01*
X177864761Y-35211428D02*
X177864761Y-36163809D01*
X175864761Y-36163809D01*
X176817142Y-34544761D02*
X176817142Y-33878095D01*
X177864761Y-33592380D02*
X177864761Y-34544761D01*
X175864761Y-34544761D01*
X175864761Y-33592380D01*
X177864761Y-31592380D02*
X176912380Y-32259047D01*
X177864761Y-32735238D02*
X175864761Y-32735238D01*
X175864761Y-31973333D01*
X175960000Y-31782857D01*
X176055238Y-31687619D01*
X176245714Y-31592380D01*
X176531428Y-31592380D01*
X176721904Y-31687619D01*
X176817142Y-31782857D01*
X176912380Y-31973333D01*
X176912380Y-32735238D01*
D10*
X165671285Y-21292428D02*
X166385571Y-21292428D01*
X166385571Y-22792428D01*
X164885571Y-22792428D02*
X164599857Y-22792428D01*
X164457000Y-22721000D01*
X164314142Y-22578142D01*
X164242714Y-22292428D01*
X164242714Y-21792428D01*
X164314142Y-21506714D01*
X164457000Y-21363857D01*
X164599857Y-21292428D01*
X164885571Y-21292428D01*
X165028428Y-21363857D01*
X165171285Y-21506714D01*
X165242714Y-21792428D01*
X165242714Y-22292428D01*
X165171285Y-22578142D01*
X165028428Y-22721000D01*
X164885571Y-22792428D01*
X163671285Y-21721000D02*
X162957000Y-21721000D01*
X163814142Y-21292428D02*
X163314142Y-22792428D01*
X162814142Y-21292428D01*
X162314142Y-21292428D02*
X162314142Y-22792428D01*
X161957000Y-22792428D01*
X161742714Y-22721000D01*
X161599857Y-22578142D01*
X161528428Y-22435285D01*
X161457000Y-22149571D01*
X161457000Y-21935285D01*
X161528428Y-21649571D01*
X161599857Y-21506714D01*
X161742714Y-21363857D01*
X161957000Y-21292428D01*
X162314142Y-21292428D01*
X139533142Y-21165428D02*
X140247428Y-21165428D01*
X140247428Y-22665428D01*
X139033142Y-21165428D02*
X139033142Y-22665428D01*
X138318857Y-21165428D02*
X138318857Y-22665428D01*
X137461714Y-21165428D01*
X137461714Y-22665428D01*
X136747428Y-21951142D02*
X136247428Y-21951142D01*
X136033142Y-21165428D02*
X136747428Y-21165428D01*
X136747428Y-22665428D01*
X136033142Y-22665428D01*
D14*
G04 #@! TO.C,C11*
X165236000Y-85944000D02*
X165236000Y-84744000D01*
X166996000Y-84744000D02*
X166996000Y-85944000D01*
G04 #@! TO.C,C7*
X159030000Y-84954000D02*
X157830000Y-84954000D01*
X157830000Y-83194000D02*
X159030000Y-83194000D01*
G04 #@! TO.C,C8*
X162280000Y-83194000D02*
X163480000Y-83194000D01*
X163480000Y-84954000D02*
X162280000Y-84954000D01*
G04 #@! TO.C,C9*
X166996000Y-91348000D02*
X166996000Y-92548000D01*
X165236000Y-92548000D02*
X165236000Y-91348000D01*
D15*
G04 #@! TO.C,U4*
X162853000Y-90638000D02*
X164203000Y-90638000D01*
X162853000Y-85513000D02*
X158203000Y-85513000D01*
X162853000Y-90763000D02*
X158203000Y-90763000D01*
X162853000Y-85513000D02*
X162853000Y-85738000D01*
X158203000Y-85513000D02*
X158203000Y-85738000D01*
X158203000Y-90763000D02*
X158203000Y-90538000D01*
X162853000Y-90763000D02*
X162853000Y-90638000D01*
D14*
G04 #@! TO.C,C10*
X166996000Y-88046000D02*
X166996000Y-89246000D01*
X165236000Y-89246000D02*
X165236000Y-88046000D01*
D16*
G04 #@! TO.C,J7*
X167520000Y-93432000D02*
X177320000Y-93432000D01*
X167520000Y-83432000D02*
X167520000Y-93432000D01*
X177320000Y-83432000D02*
X167520000Y-83432000D01*
X177320000Y-93432000D02*
X177320000Y-83432000D01*
X176820000Y-93432000D02*
X176820000Y-83432000D01*
X170420000Y-93432000D02*
X170420000Y-83432000D01*
X175320000Y-93432000D02*
X175320000Y-83432000D01*
X174820000Y-90932000D02*
G75*
G03X174820000Y-90932000I-2000000J0D01*
G01*
X174820000Y-85932000D02*
G75*
G03X174820000Y-85932000I-2000000J0D01*
G01*
X176820000Y-88432000D02*
X177320000Y-88432000D01*
D14*
G04 #@! TO.C,J4*
X133410000Y-120710000D02*
X132080000Y-120710000D01*
X133410000Y-119380000D02*
X133410000Y-120710000D01*
X133410000Y-118110000D02*
X130750000Y-118110000D01*
X130750000Y-118110000D02*
X130750000Y-105350000D01*
X133410000Y-118110000D02*
X133410000Y-105350000D01*
X133410000Y-105350000D02*
X130750000Y-105350000D01*
D17*
G04 #@! TO.C,U3*
X153924000Y-105537000D02*
X153924000Y-104775000D01*
X153924000Y-104775000D02*
X137922000Y-104775000D01*
X137922000Y-104775000D02*
X137922000Y-105537000D01*
D16*
G04 #@! TO.C,J1*
X168830000Y-33394000D02*
X168830000Y-23594000D01*
X158830000Y-33394000D02*
X168830000Y-33394000D01*
X158830000Y-23594000D02*
X158830000Y-33394000D01*
X168830000Y-23594000D02*
X158830000Y-23594000D01*
X168830000Y-24094000D02*
X158830000Y-24094000D01*
X168830000Y-30494000D02*
X158830000Y-30494000D01*
X168830000Y-25594000D02*
X158830000Y-25594000D01*
X168330000Y-28094000D02*
G75*
G03X168330000Y-28094000I-2000000J0D01*
G01*
X163330000Y-28094000D02*
G75*
G03X163330000Y-28094000I-2000000J0D01*
G01*
X163830000Y-24094000D02*
X163830000Y-23594000D01*
G04 #@! TO.C,J2*
X138390000Y-24094000D02*
X138390000Y-23594000D01*
X137890000Y-28094000D02*
G75*
G03X137890000Y-28094000I-2000000J0D01*
G01*
X142890000Y-28094000D02*
G75*
G03X142890000Y-28094000I-2000000J0D01*
G01*
X143390000Y-25594000D02*
X133390000Y-25594000D01*
X143390000Y-30494000D02*
X133390000Y-30494000D01*
X143390000Y-24094000D02*
X133390000Y-24094000D01*
X143390000Y-23594000D02*
X133390000Y-23594000D01*
X133390000Y-23594000D02*
X133390000Y-33394000D01*
X133390000Y-33394000D02*
X143390000Y-33394000D01*
X143390000Y-33394000D02*
X143390000Y-23594000D01*
D14*
G04 #@! TO.C,U1*
X145482000Y-64660000D02*
X145482000Y-66310000D01*
X153222000Y-64660000D02*
X145482000Y-64660000D01*
X153222000Y-69960000D02*
X153222000Y-64660000D01*
X145482000Y-69960000D02*
X153222000Y-69960000D01*
X145482000Y-68310000D02*
X145482000Y-69960000D01*
X145482000Y-66310000D02*
G75*
G02X145482000Y-68310000I0J-1000000D01*
G01*
D18*
G04 #@! TO.C,D1*
X168656000Y-40894000D02*
X159004000Y-40894000D01*
X143256000Y-40894000D02*
X133604000Y-40894000D01*
X159004000Y-46736000D02*
X143256000Y-46736000D01*
X143256000Y-40894000D02*
X143256000Y-46736000D01*
X159004000Y-40894000D02*
X159004000Y-46736000D01*
X143256000Y-48006000D02*
X143256000Y-53848000D01*
X159004000Y-53848000D02*
X159004000Y-48006000D01*
X143256000Y-48006000D02*
X159004000Y-48006000D01*
X159004000Y-53848000D02*
X168656000Y-53848000D01*
X133604000Y-53848000D02*
X143256000Y-53848000D01*
X168656000Y-40894000D02*
X168656000Y-53848000D01*
X133604000Y-40894000D02*
X133604000Y-53848000D01*
X146050000Y-49530000D02*
X146050000Y-53340000D01*
X146050000Y-53340000D02*
X156210000Y-53340000D01*
X156210000Y-53340000D02*
X156210000Y-48260000D01*
X156210000Y-48260000D02*
X146050000Y-48260000D01*
X146050000Y-48260000D02*
X146050000Y-49530000D01*
D14*
G04 #@! TO.C,R1*
X145760000Y-58420000D02*
X146650000Y-58420000D01*
X153960000Y-58420000D02*
X153070000Y-58420000D01*
X146650000Y-59730000D02*
X153070000Y-59730000D01*
X146650000Y-57110000D02*
X146650000Y-59730000D01*
X153070000Y-57110000D02*
X146650000Y-57110000D01*
X153070000Y-59730000D02*
X153070000Y-57110000D01*
G04 #@! TO.C,R2*
X147920000Y-41870000D02*
X147920000Y-44490000D01*
X147920000Y-44490000D02*
X154340000Y-44490000D01*
X154340000Y-44490000D02*
X154340000Y-41870000D01*
X154340000Y-41870000D02*
X147920000Y-41870000D01*
X147030000Y-43180000D02*
X147920000Y-43180000D01*
X155230000Y-43180000D02*
X154340000Y-43180000D01*
D19*
G04 #@! TO.C,U2*
X124366000Y-96502000D02*
X144366000Y-96502000D01*
X144366000Y-62502000D02*
X124366000Y-62502000D01*
X124366000Y-62502000D02*
X124366000Y-96502000D01*
X144366000Y-96502000D02*
X144366000Y-62502000D01*
D14*
G04 #@! TO.C,J3*
X161992000Y-101152000D02*
X161992000Y-99822000D01*
X163322000Y-101152000D02*
X161992000Y-101152000D01*
X164592000Y-101152000D02*
X164592000Y-98492000D01*
X164592000Y-98492000D02*
X177352000Y-98492000D01*
X164592000Y-101152000D02*
X177352000Y-101152000D01*
X177352000Y-101152000D02*
X177352000Y-98492000D01*
G04 #@! TO.C,C1*
X154868000Y-102836000D02*
X158568000Y-102836000D01*
X158568000Y-102836000D02*
X158568000Y-94536000D01*
X154868000Y-102836000D02*
X154868000Y-94536000D01*
G04 #@! TO.C,J5*
X161992000Y-107756000D02*
X161992000Y-106426000D01*
X163322000Y-107756000D02*
X161992000Y-107756000D01*
X164592000Y-107756000D02*
X164592000Y-105096000D01*
X164592000Y-105096000D02*
X177352000Y-105096000D01*
X164592000Y-107756000D02*
X177352000Y-107756000D01*
X177352000Y-107756000D02*
X177352000Y-105096000D01*
D15*
G04 #@! TO.C,U5*
X162853000Y-78063000D02*
X162853000Y-77938000D01*
X158203000Y-78063000D02*
X158203000Y-77838000D01*
X158203000Y-72813000D02*
X158203000Y-73038000D01*
X162853000Y-72813000D02*
X162853000Y-73038000D01*
X162853000Y-78063000D02*
X158203000Y-78063000D01*
X162853000Y-72813000D02*
X158203000Y-72813000D01*
X162853000Y-77938000D02*
X164203000Y-77938000D01*
D16*
G04 #@! TO.C,J6*
X176820000Y-75732000D02*
X177320000Y-75732000D01*
X174820000Y-73232000D02*
G75*
G03X174820000Y-73232000I-2000000J0D01*
G01*
X174820000Y-78232000D02*
G75*
G03X174820000Y-78232000I-2000000J0D01*
G01*
X175320000Y-80732000D02*
X175320000Y-70732000D01*
X170420000Y-80732000D02*
X170420000Y-70732000D01*
X176820000Y-80732000D02*
X176820000Y-70732000D01*
X177320000Y-80732000D02*
X177320000Y-70732000D01*
X177320000Y-70732000D02*
X167520000Y-70732000D01*
X167520000Y-70732000D02*
X167520000Y-80732000D01*
X167520000Y-80732000D02*
X177320000Y-80732000D01*
D14*
G04 #@! TO.C,C2*
X157830000Y-70494000D02*
X159030000Y-70494000D01*
X159030000Y-72254000D02*
X157830000Y-72254000D01*
G04 #@! TO.C,C3*
X163480000Y-72254000D02*
X162280000Y-72254000D01*
X162280000Y-70494000D02*
X163480000Y-70494000D01*
G04 #@! TO.C,C4*
X165236000Y-79848000D02*
X165236000Y-78648000D01*
X166996000Y-78648000D02*
X166996000Y-79848000D01*
G04 #@! TO.C,C5*
X165236000Y-76546000D02*
X165236000Y-75346000D01*
X166996000Y-75346000D02*
X166996000Y-76546000D01*
G04 #@! TO.C,C6*
X166996000Y-72044000D02*
X166996000Y-73244000D01*
X165236000Y-73244000D02*
X165236000Y-72044000D01*
G04 #@! TO.C,R3*
X158150000Y-119516000D02*
X159350000Y-119516000D01*
X159350000Y-121276000D02*
X158150000Y-121276000D01*
G04 #@! TO.C,R4*
X159350000Y-117466000D02*
X158150000Y-117466000D01*
X158150000Y-115706000D02*
X159350000Y-115706000D01*
G04 #@! TO.C,R5*
X146930000Y-99904000D02*
X146930000Y-101104000D01*
X145170000Y-101104000D02*
X145170000Y-99904000D01*
G04 #@! TO.C,R6*
X143138000Y-101104000D02*
X143138000Y-99904000D01*
X144898000Y-99904000D02*
X144898000Y-101104000D01*
G04 #@! TO.C,R7*
X142866000Y-99904000D02*
X142866000Y-101104000D01*
X141106000Y-101104000D02*
X141106000Y-99904000D01*
G04 #@! TO.C,R12*
X160664000Y-116170000D02*
X160664000Y-114970000D01*
X162424000Y-114970000D02*
X162424000Y-116170000D01*
G04 #@! TO.C,R13*
X158150000Y-111642000D02*
X159350000Y-111642000D01*
X159350000Y-113402000D02*
X158150000Y-113402000D01*
G04 #@! TO.C,R14*
X159350000Y-111370000D02*
X158150000Y-111370000D01*
X158150000Y-109610000D02*
X159350000Y-109610000D01*
G04 #@! TO.C,R15*
X159350000Y-109338000D02*
X158150000Y-109338000D01*
X158150000Y-107578000D02*
X159350000Y-107578000D01*
G04 #@! TO.C,R8*
X155820000Y-85252000D02*
X155820000Y-86452000D01*
X154060000Y-86452000D02*
X154060000Y-85252000D01*
G04 #@! TO.C,R9*
X154060000Y-73752000D02*
X154060000Y-72552000D01*
X155820000Y-72552000D02*
X155820000Y-73752000D01*
G04 #@! TO.C,R10*
X147692000Y-74584000D02*
X147692000Y-75784000D01*
X145932000Y-75784000D02*
X145932000Y-74584000D01*
D15*
G04 #@! TO.C,F1*
X125857000Y-29577000D02*
X131445000Y-29577000D01*
X125857000Y-34149000D02*
X125857000Y-29577000D01*
X131445000Y-34149000D02*
X125857000Y-34149000D01*
X131445000Y-29577000D02*
X131445000Y-34149000D01*
X126111000Y-29831000D02*
X131191000Y-29831000D01*
X126111000Y-30085000D02*
X126111000Y-29831000D01*
X126111000Y-52437000D02*
X126111000Y-30085000D01*
X131191000Y-52437000D02*
X126111000Y-52437000D01*
X131191000Y-29831000D02*
X131191000Y-52437000D01*
X125857000Y-52691000D02*
X125857000Y-48119000D01*
X125857000Y-48119000D02*
X131445000Y-48119000D01*
X131445000Y-52691000D02*
X125857000Y-52691000D01*
X131445000Y-48119000D02*
X131445000Y-52691000D01*
G04 #@! TO.C,RV1*
X142331000Y-60305000D02*
X142331000Y-56405000D01*
X130331000Y-60305000D02*
X130331000Y-56405000D01*
X142331000Y-60305000D02*
X130331000Y-60305000D01*
X142331000Y-56405000D02*
X130331000Y-56405000D01*
D14*
G04 #@! TO.C,R11*
X125340000Y-112303000D02*
X125340000Y-113503000D01*
X123580000Y-113503000D02*
X123580000Y-112303000D01*
G04 #@! TO.C,R16*
X127009000Y-113503000D02*
X127009000Y-112303000D01*
X128769000Y-112303000D02*
X128769000Y-113503000D01*
G04 #@! TO.C,D2*
X123710000Y-109839000D02*
X123710000Y-106639000D01*
X125210000Y-106639000D02*
X125210000Y-109839000D01*
X125210000Y-106639000D02*
X123710000Y-106639000D01*
G04 #@! TO.C,D3*
X128639000Y-106639000D02*
X127139000Y-106639000D01*
X128639000Y-106639000D02*
X128639000Y-109839000D01*
X127139000Y-109839000D02*
X127139000Y-106639000D01*
D20*
G04 #@! TO.C,G\002A\002A\002A*
G36*
X166111663Y-57048592D02*
X166175529Y-57054623D01*
X166255117Y-57061921D01*
X166344601Y-57069978D01*
X166438155Y-57078283D01*
X166529953Y-57086327D01*
X166614168Y-57093599D01*
X166684975Y-57099589D01*
X166736548Y-57103788D01*
X166763061Y-57105685D01*
X166764588Y-57105741D01*
X166768399Y-57120260D01*
X166759699Y-57162394D01*
X166738887Y-57230535D01*
X166719846Y-57285786D01*
X166691190Y-57366769D01*
X166663250Y-57446445D01*
X166639627Y-57514508D01*
X166626359Y-57553365D01*
X166615042Y-57586605D01*
X166601372Y-57625899D01*
X166583998Y-57675018D01*
X166561569Y-57737734D01*
X166532734Y-57817819D01*
X166496143Y-57919046D01*
X166450444Y-58045184D01*
X166431833Y-58096510D01*
X166402675Y-58177526D01*
X166370744Y-58267258D01*
X166339130Y-58356923D01*
X166310924Y-58437740D01*
X166289215Y-58500926D01*
X166282861Y-58519843D01*
X166268913Y-58560374D01*
X166247056Y-58622174D01*
X166220398Y-58696521D01*
X166194683Y-58767453D01*
X166166355Y-58845636D01*
X166140012Y-58919179D01*
X166118761Y-58979359D01*
X166106498Y-59015063D01*
X166091852Y-59057491D01*
X166069599Y-59119985D01*
X166043277Y-59192665D01*
X166026391Y-59238711D01*
X165998127Y-59316464D01*
X165970674Y-59393839D01*
X165948101Y-59459286D01*
X165939142Y-59486321D01*
X165915442Y-59555565D01*
X165887964Y-59630109D01*
X165876096Y-59660444D01*
X165853574Y-59721079D01*
X165846400Y-59757752D01*
X165857030Y-59771796D01*
X165887921Y-59764544D01*
X165941530Y-59737329D01*
X165978617Y-59716071D01*
X166043054Y-59678102D01*
X166103878Y-59641661D01*
X166150878Y-59612884D01*
X166162327Y-59605659D01*
X166197914Y-59583577D01*
X166253465Y-59549927D01*
X166321374Y-59509286D01*
X166393963Y-59466273D01*
X166469836Y-59421286D01*
X166563509Y-59365347D01*
X166665504Y-59304137D01*
X166766342Y-59243338D01*
X166817296Y-59212484D01*
X166903224Y-59160461D01*
X166985597Y-59110775D01*
X167058122Y-59067210D01*
X167114507Y-59033546D01*
X167143029Y-59016715D01*
X167221151Y-58971151D01*
X167212757Y-59009082D01*
X167204463Y-59040891D01*
X167189350Y-59094007D01*
X167170066Y-59159222D01*
X167160513Y-59190786D01*
X167135469Y-59273196D01*
X167108656Y-59361902D01*
X167085091Y-59440293D01*
X167080881Y-59454371D01*
X167042948Y-59581314D01*
X167012093Y-59684358D01*
X166986282Y-59770232D01*
X166963483Y-59845660D01*
X166941663Y-59917368D01*
X166918788Y-59992082D01*
X166892826Y-60076529D01*
X166892561Y-60077390D01*
X166864608Y-60168491D01*
X166830405Y-60280416D01*
X166792929Y-60403401D01*
X166755155Y-60527683D01*
X166722173Y-60636510D01*
X166690062Y-60742601D01*
X166658559Y-60846612D01*
X166629743Y-60941682D01*
X166605695Y-61020947D01*
X166588494Y-61077548D01*
X166586588Y-61083805D01*
X166564748Y-61155888D01*
X166542711Y-61229259D01*
X166525411Y-61287485D01*
X166500736Y-61371352D01*
X166768178Y-61371352D01*
X166857435Y-61371885D01*
X166935190Y-61373360D01*
X166995970Y-61375592D01*
X167034301Y-61378395D01*
X167044981Y-61380715D01*
X167041090Y-61397311D01*
X167022155Y-61432428D01*
X166992114Y-61478884D01*
X166987738Y-61485182D01*
X166941914Y-61550629D01*
X166890299Y-61624373D01*
X166851795Y-61679400D01*
X166801490Y-61751143D01*
X166742632Y-61834815D01*
X166677661Y-61926969D01*
X166609022Y-62024159D01*
X166539157Y-62122939D01*
X166470509Y-62219862D01*
X166405520Y-62311483D01*
X166346633Y-62394355D01*
X166296291Y-62465032D01*
X166256937Y-62520067D01*
X166231013Y-62556015D01*
X166220961Y-62569429D01*
X166220925Y-62569448D01*
X166213726Y-62555930D01*
X166196839Y-62519882D01*
X166173391Y-62468042D01*
X166163428Y-62445643D01*
X166128684Y-62367810D01*
X166090073Y-62282274D01*
X166055896Y-62207424D01*
X166055598Y-62206777D01*
X166030720Y-62151732D01*
X166012102Y-62108542D01*
X166002991Y-62084800D01*
X166002579Y-62082798D01*
X165996451Y-62064199D01*
X165980930Y-62027285D01*
X165971412Y-62006178D01*
X165915430Y-61883376D01*
X165863187Y-61766559D01*
X165816150Y-61659191D01*
X165775786Y-61564737D01*
X165743561Y-61486662D01*
X165720942Y-61428429D01*
X165709395Y-61393504D01*
X165708479Y-61385006D01*
X165726685Y-61380041D01*
X165770776Y-61375883D01*
X165834691Y-61372894D01*
X165912368Y-61371437D01*
X165936858Y-61371352D01*
X166156799Y-61371352D01*
X166176079Y-61239560D01*
X166188464Y-61156224D01*
X166204938Y-61047374D01*
X166224570Y-60919046D01*
X166246430Y-60777279D01*
X166269586Y-60628111D01*
X166293108Y-60477580D01*
X166314604Y-60340975D01*
X166328970Y-60248966D01*
X166342475Y-60160567D01*
X166353862Y-60084133D01*
X166361875Y-60028020D01*
X166363622Y-60014942D01*
X166374791Y-59928531D01*
X166288528Y-59976848D01*
X166245415Y-60000379D01*
X166180630Y-60034956D01*
X166100914Y-60077019D01*
X166013009Y-60123004D01*
X165946667Y-60157457D01*
X165851132Y-60206969D01*
X165753107Y-60257884D01*
X165661138Y-60305756D01*
X165583775Y-60346136D01*
X165547296Y-60365247D01*
X165400592Y-60442129D01*
X165279751Y-60505058D01*
X165182466Y-60555159D01*
X165106432Y-60593551D01*
X165049342Y-60621359D01*
X165008888Y-60639705D01*
X164982764Y-60649710D01*
X164968663Y-60652498D01*
X164964280Y-60649190D01*
X164964274Y-60648932D01*
X164968612Y-60627298D01*
X164980560Y-60580721D01*
X164998580Y-60514872D01*
X165021132Y-60435421D01*
X165036981Y-60380912D01*
X165063631Y-60289729D01*
X165088857Y-60202778D01*
X165110484Y-60127605D01*
X165126336Y-60071756D01*
X165131419Y-60053428D01*
X165144472Y-60006708D01*
X165163923Y-59938488D01*
X165187147Y-59857918D01*
X165211519Y-59774148D01*
X165211601Y-59773868D01*
X165242210Y-59669040D01*
X165279565Y-59540857D01*
X165321535Y-59396656D01*
X165365985Y-59243771D01*
X165410784Y-59089541D01*
X165453799Y-58941299D01*
X165492896Y-58806384D01*
X165499542Y-58783428D01*
X165517842Y-58720253D01*
X165543366Y-58632206D01*
X165574430Y-58525097D01*
X165609347Y-58404733D01*
X165646434Y-58276927D01*
X165684004Y-58147486D01*
X165691846Y-58120472D01*
X165726764Y-57999960D01*
X165759231Y-57887461D01*
X165788050Y-57787155D01*
X165812027Y-57703221D01*
X165829965Y-57639838D01*
X165840667Y-57601185D01*
X165842724Y-57593302D01*
X165852741Y-57556004D01*
X165869124Y-57498649D01*
X165888862Y-57431723D01*
X165895516Y-57409591D01*
X165919908Y-57328333D01*
X165946061Y-57240324D01*
X165968731Y-57163229D01*
X165970823Y-57156047D01*
X166005088Y-57038289D01*
X166111663Y-57048592D01*
X166111663Y-57048592D01*
G37*
X166111663Y-57048592D02*
X166175529Y-57054623D01*
X166255117Y-57061921D01*
X166344601Y-57069978D01*
X166438155Y-57078283D01*
X166529953Y-57086327D01*
X166614168Y-57093599D01*
X166684975Y-57099589D01*
X166736548Y-57103788D01*
X166763061Y-57105685D01*
X166764588Y-57105741D01*
X166768399Y-57120260D01*
X166759699Y-57162394D01*
X166738887Y-57230535D01*
X166719846Y-57285786D01*
X166691190Y-57366769D01*
X166663250Y-57446445D01*
X166639627Y-57514508D01*
X166626359Y-57553365D01*
X166615042Y-57586605D01*
X166601372Y-57625899D01*
X166583998Y-57675018D01*
X166561569Y-57737734D01*
X166532734Y-57817819D01*
X166496143Y-57919046D01*
X166450444Y-58045184D01*
X166431833Y-58096510D01*
X166402675Y-58177526D01*
X166370744Y-58267258D01*
X166339130Y-58356923D01*
X166310924Y-58437740D01*
X166289215Y-58500926D01*
X166282861Y-58519843D01*
X166268913Y-58560374D01*
X166247056Y-58622174D01*
X166220398Y-58696521D01*
X166194683Y-58767453D01*
X166166355Y-58845636D01*
X166140012Y-58919179D01*
X166118761Y-58979359D01*
X166106498Y-59015063D01*
X166091852Y-59057491D01*
X166069599Y-59119985D01*
X166043277Y-59192665D01*
X166026391Y-59238711D01*
X165998127Y-59316464D01*
X165970674Y-59393839D01*
X165948101Y-59459286D01*
X165939142Y-59486321D01*
X165915442Y-59555565D01*
X165887964Y-59630109D01*
X165876096Y-59660444D01*
X165853574Y-59721079D01*
X165846400Y-59757752D01*
X165857030Y-59771796D01*
X165887921Y-59764544D01*
X165941530Y-59737329D01*
X165978617Y-59716071D01*
X166043054Y-59678102D01*
X166103878Y-59641661D01*
X166150878Y-59612884D01*
X166162327Y-59605659D01*
X166197914Y-59583577D01*
X166253465Y-59549927D01*
X166321374Y-59509286D01*
X166393963Y-59466273D01*
X166469836Y-59421286D01*
X166563509Y-59365347D01*
X166665504Y-59304137D01*
X166766342Y-59243338D01*
X166817296Y-59212484D01*
X166903224Y-59160461D01*
X166985597Y-59110775D01*
X167058122Y-59067210D01*
X167114507Y-59033546D01*
X167143029Y-59016715D01*
X167221151Y-58971151D01*
X167212757Y-59009082D01*
X167204463Y-59040891D01*
X167189350Y-59094007D01*
X167170066Y-59159222D01*
X167160513Y-59190786D01*
X167135469Y-59273196D01*
X167108656Y-59361902D01*
X167085091Y-59440293D01*
X167080881Y-59454371D01*
X167042948Y-59581314D01*
X167012093Y-59684358D01*
X166986282Y-59770232D01*
X166963483Y-59845660D01*
X166941663Y-59917368D01*
X166918788Y-59992082D01*
X166892826Y-60076529D01*
X166892561Y-60077390D01*
X166864608Y-60168491D01*
X166830405Y-60280416D01*
X166792929Y-60403401D01*
X166755155Y-60527683D01*
X166722173Y-60636510D01*
X166690062Y-60742601D01*
X166658559Y-60846612D01*
X166629743Y-60941682D01*
X166605695Y-61020947D01*
X166588494Y-61077548D01*
X166586588Y-61083805D01*
X166564748Y-61155888D01*
X166542711Y-61229259D01*
X166525411Y-61287485D01*
X166500736Y-61371352D01*
X166768178Y-61371352D01*
X166857435Y-61371885D01*
X166935190Y-61373360D01*
X166995970Y-61375592D01*
X167034301Y-61378395D01*
X167044981Y-61380715D01*
X167041090Y-61397311D01*
X167022155Y-61432428D01*
X166992114Y-61478884D01*
X166987738Y-61485182D01*
X166941914Y-61550629D01*
X166890299Y-61624373D01*
X166851795Y-61679400D01*
X166801490Y-61751143D01*
X166742632Y-61834815D01*
X166677661Y-61926969D01*
X166609022Y-62024159D01*
X166539157Y-62122939D01*
X166470509Y-62219862D01*
X166405520Y-62311483D01*
X166346633Y-62394355D01*
X166296291Y-62465032D01*
X166256937Y-62520067D01*
X166231013Y-62556015D01*
X166220961Y-62569429D01*
X166220925Y-62569448D01*
X166213726Y-62555930D01*
X166196839Y-62519882D01*
X166173391Y-62468042D01*
X166163428Y-62445643D01*
X166128684Y-62367810D01*
X166090073Y-62282274D01*
X166055896Y-62207424D01*
X166055598Y-62206777D01*
X166030720Y-62151732D01*
X166012102Y-62108542D01*
X166002991Y-62084800D01*
X166002579Y-62082798D01*
X165996451Y-62064199D01*
X165980930Y-62027285D01*
X165971412Y-62006178D01*
X165915430Y-61883376D01*
X165863187Y-61766559D01*
X165816150Y-61659191D01*
X165775786Y-61564737D01*
X165743561Y-61486662D01*
X165720942Y-61428429D01*
X165709395Y-61393504D01*
X165708479Y-61385006D01*
X165726685Y-61380041D01*
X165770776Y-61375883D01*
X165834691Y-61372894D01*
X165912368Y-61371437D01*
X165936858Y-61371352D01*
X166156799Y-61371352D01*
X166176079Y-61239560D01*
X166188464Y-61156224D01*
X166204938Y-61047374D01*
X166224570Y-60919046D01*
X166246430Y-60777279D01*
X166269586Y-60628111D01*
X166293108Y-60477580D01*
X166314604Y-60340975D01*
X166328970Y-60248966D01*
X166342475Y-60160567D01*
X166353862Y-60084133D01*
X166361875Y-60028020D01*
X166363622Y-60014942D01*
X166374791Y-59928531D01*
X166288528Y-59976848D01*
X166245415Y-60000379D01*
X166180630Y-60034956D01*
X166100914Y-60077019D01*
X166013009Y-60123004D01*
X165946667Y-60157457D01*
X165851132Y-60206969D01*
X165753107Y-60257884D01*
X165661138Y-60305756D01*
X165583775Y-60346136D01*
X165547296Y-60365247D01*
X165400592Y-60442129D01*
X165279751Y-60505058D01*
X165182466Y-60555159D01*
X165106432Y-60593551D01*
X165049342Y-60621359D01*
X165008888Y-60639705D01*
X164982764Y-60649710D01*
X164968663Y-60652498D01*
X164964280Y-60649190D01*
X164964274Y-60648932D01*
X164968612Y-60627298D01*
X164980560Y-60580721D01*
X164998580Y-60514872D01*
X165021132Y-60435421D01*
X165036981Y-60380912D01*
X165063631Y-60289729D01*
X165088857Y-60202778D01*
X165110484Y-60127605D01*
X165126336Y-60071756D01*
X165131419Y-60053428D01*
X165144472Y-60006708D01*
X165163923Y-59938488D01*
X165187147Y-59857918D01*
X165211519Y-59774148D01*
X165211601Y-59773868D01*
X165242210Y-59669040D01*
X165279565Y-59540857D01*
X165321535Y-59396656D01*
X165365985Y-59243771D01*
X165410784Y-59089541D01*
X165453799Y-58941299D01*
X165492896Y-58806384D01*
X165499542Y-58783428D01*
X165517842Y-58720253D01*
X165543366Y-58632206D01*
X165574430Y-58525097D01*
X165609347Y-58404733D01*
X165646434Y-58276927D01*
X165684004Y-58147486D01*
X165691846Y-58120472D01*
X165726764Y-57999960D01*
X165759231Y-57887461D01*
X165788050Y-57787155D01*
X165812027Y-57703221D01*
X165829965Y-57639838D01*
X165840667Y-57601185D01*
X165842724Y-57593302D01*
X165852741Y-57556004D01*
X165869124Y-57498649D01*
X165888862Y-57431723D01*
X165895516Y-57409591D01*
X165919908Y-57328333D01*
X165946061Y-57240324D01*
X165968731Y-57163229D01*
X165970823Y-57156047D01*
X166005088Y-57038289D01*
X166111663Y-57048592D01*
G36*
X166455991Y-54634013D02*
X166559629Y-54672356D01*
X166660649Y-54741680D01*
X166722749Y-54801879D01*
X166750662Y-54833799D01*
X166779431Y-54870440D01*
X166811002Y-54914904D01*
X166847324Y-54970294D01*
X166890343Y-55039714D01*
X166942006Y-55126268D01*
X167004261Y-55233059D01*
X167079053Y-55363189D01*
X167121031Y-55436698D01*
X167157048Y-55499739D01*
X167205007Y-55583495D01*
X167260910Y-55680991D01*
X167320756Y-55785255D01*
X167380546Y-55889313D01*
X167394108Y-55912898D01*
X167448544Y-56007574D01*
X167499542Y-56096312D01*
X167544286Y-56174209D01*
X167579961Y-56236363D01*
X167603753Y-56277875D01*
X167609714Y-56288307D01*
X167625188Y-56315310D01*
X167654616Y-56366531D01*
X167696001Y-56438502D01*
X167747351Y-56527755D01*
X167806669Y-56630824D01*
X167871961Y-56744241D01*
X167941231Y-56864539D01*
X167946930Y-56874434D01*
X168021110Y-57003239D01*
X168095524Y-57132451D01*
X168167406Y-57257267D01*
X168233990Y-57372885D01*
X168292510Y-57474500D01*
X168340200Y-57557310D01*
X168370127Y-57609277D01*
X168419249Y-57694559D01*
X168478710Y-57797759D01*
X168542885Y-57909117D01*
X168606150Y-58018875D01*
X168646303Y-58088522D01*
X168697399Y-58177198D01*
X168745429Y-58260658D01*
X168787175Y-58333302D01*
X168819422Y-58389535D01*
X168838951Y-58423756D01*
X168839085Y-58423994D01*
X168862719Y-58465451D01*
X168896925Y-58525126D01*
X168936284Y-58593577D01*
X168960535Y-58635653D01*
X169039925Y-58773289D01*
X169117405Y-58907677D01*
X169191104Y-59035573D01*
X169259155Y-59153728D01*
X169319688Y-59258897D01*
X169370835Y-59347833D01*
X169410727Y-59417291D01*
X169437495Y-59464022D01*
X169445646Y-59478334D01*
X169490414Y-59557025D01*
X169550008Y-59661339D01*
X169623259Y-59789240D01*
X169708996Y-59938694D01*
X169806050Y-60107665D01*
X169913251Y-60294120D01*
X170029430Y-60496022D01*
X170153415Y-60711338D01*
X170284039Y-60938033D01*
X170420129Y-61174071D01*
X170550067Y-61399308D01*
X170632691Y-61542508D01*
X170701618Y-61662010D01*
X170759136Y-61761778D01*
X170807531Y-61845779D01*
X170842490Y-61906510D01*
X170864713Y-61945225D01*
X170901833Y-62010011D01*
X170952898Y-62099201D01*
X171016950Y-62211126D01*
X171093037Y-62344120D01*
X171164823Y-62469623D01*
X171229607Y-62585196D01*
X171278841Y-62679452D01*
X171314518Y-62757772D01*
X171338634Y-62825540D01*
X171353183Y-62888139D01*
X171360159Y-62950952D01*
X171361618Y-63000786D01*
X171360242Y-63075148D01*
X171354027Y-63129159D01*
X171340861Y-63174305D01*
X171322202Y-63215126D01*
X171266576Y-63294746D01*
X171188183Y-63366539D01*
X171096207Y-63422916D01*
X171045592Y-63443779D01*
X171036239Y-63446581D01*
X171024431Y-63449195D01*
X171009063Y-63451627D01*
X170989029Y-63453887D01*
X170963223Y-63455980D01*
X170930540Y-63457916D01*
X170889875Y-63459700D01*
X170840122Y-63461342D01*
X170780175Y-63462849D01*
X170708929Y-63464227D01*
X170625278Y-63465485D01*
X170528118Y-63466631D01*
X170416342Y-63467671D01*
X170288845Y-63468614D01*
X170144521Y-63469466D01*
X169982265Y-63470237D01*
X169800972Y-63470932D01*
X169599536Y-63471560D01*
X169376851Y-63472128D01*
X169131812Y-63472644D01*
X168863314Y-63473116D01*
X168570251Y-63473550D01*
X168251517Y-63473955D01*
X167906007Y-63474338D01*
X167532615Y-63474707D01*
X167130237Y-63475069D01*
X166697766Y-63475432D01*
X166385975Y-63475683D01*
X161809183Y-63479321D01*
X161704503Y-63443577D01*
X161638863Y-63416711D01*
X161575257Y-63383442D01*
X161535952Y-63357246D01*
X161462373Y-63279548D01*
X161409046Y-63182659D01*
X161378245Y-63073799D01*
X161372244Y-62960188D01*
X161384950Y-62877930D01*
X161401935Y-62826086D01*
X161430441Y-62754948D01*
X161466495Y-62673164D01*
X161506123Y-62589379D01*
X161516987Y-62568016D01*
X162338728Y-62568016D01*
X162342133Y-62623968D01*
X162353508Y-62673771D01*
X162359313Y-62687341D01*
X162400143Y-62735854D01*
X162462320Y-62777401D01*
X162535245Y-62805453D01*
X162559339Y-62810550D01*
X162581044Y-62811520D01*
X162633277Y-62812449D01*
X162714618Y-62813335D01*
X162823646Y-62814172D01*
X162958939Y-62814959D01*
X163119077Y-62815693D01*
X163302638Y-62816369D01*
X163508202Y-62816985D01*
X163734348Y-62817538D01*
X163979654Y-62818024D01*
X164242700Y-62818441D01*
X164522064Y-62818785D01*
X164816326Y-62819052D01*
X165124065Y-62819241D01*
X165443859Y-62819347D01*
X165774287Y-62819367D01*
X166113929Y-62819299D01*
X166409937Y-62819168D01*
X170195975Y-62817076D01*
X170272291Y-62779496D01*
X170339797Y-62734234D01*
X170380745Y-62675586D01*
X170398211Y-62598412D01*
X170399347Y-62567084D01*
X170398704Y-62544837D01*
X170395790Y-62522543D01*
X170389128Y-62497251D01*
X170377239Y-62466011D01*
X170358647Y-62425872D01*
X170331873Y-62373883D01*
X170295439Y-62307093D01*
X170247869Y-62222551D01*
X170187685Y-62117306D01*
X170113408Y-61988409D01*
X170084559Y-61938459D01*
X170044746Y-61869522D01*
X170008164Y-61806135D01*
X169979347Y-61756153D01*
X169964749Y-61730786D01*
X169919821Y-61652487D01*
X169864217Y-61555499D01*
X169803119Y-61448870D01*
X169741711Y-61341648D01*
X169685175Y-61242880D01*
X169644441Y-61171667D01*
X169610243Y-61111959D01*
X169563616Y-61030710D01*
X169508086Y-60934058D01*
X169447183Y-60828141D01*
X169384433Y-60719098D01*
X169346075Y-60652485D01*
X169288299Y-60552148D01*
X169218140Y-60430253D01*
X169139132Y-60292940D01*
X169054808Y-60146354D01*
X168968702Y-59996637D01*
X168884349Y-59849932D01*
X168822257Y-59741919D01*
X168748598Y-59613770D01*
X168676404Y-59488175D01*
X168608043Y-59369255D01*
X168545885Y-59261131D01*
X168492300Y-59167924D01*
X168449656Y-59093757D01*
X168420322Y-59042750D01*
X168418180Y-59039025D01*
X168379333Y-58971490D01*
X168343610Y-58909386D01*
X168315741Y-58860931D01*
X168303323Y-58839340D01*
X168287618Y-58812029D01*
X168258626Y-58761613D01*
X168218990Y-58692687D01*
X168171349Y-58609842D01*
X168118345Y-58517671D01*
X168087442Y-58463931D01*
X168027808Y-58360310D01*
X167967587Y-58255811D01*
X167910571Y-58157002D01*
X167860553Y-58070456D01*
X167821324Y-58002742D01*
X167810832Y-57984686D01*
X167762791Y-57901686D01*
X167707872Y-57806155D01*
X167654864Y-57713406D01*
X167632004Y-57673176D01*
X167592121Y-57602948D01*
X167554666Y-57537238D01*
X167524418Y-57484422D01*
X167508877Y-57457516D01*
X167484676Y-57415785D01*
X167447017Y-57350584D01*
X167398341Y-57266156D01*
X167341086Y-57166745D01*
X167277693Y-57056592D01*
X167210604Y-56939942D01*
X167142257Y-56821038D01*
X167075094Y-56704122D01*
X167011553Y-56593438D01*
X166954077Y-56493229D01*
X166905104Y-56407738D01*
X166897923Y-56395189D01*
X166835710Y-56286870D01*
X166775147Y-56182207D01*
X166718485Y-56085026D01*
X166667980Y-55999151D01*
X166625883Y-55928408D01*
X166594449Y-55876624D01*
X166575930Y-55847623D01*
X166573247Y-55843959D01*
X166502674Y-55776383D01*
X166427331Y-55739497D01*
X166349925Y-55733452D01*
X166273162Y-55758398D01*
X166199747Y-55814488D01*
X166191902Y-55822662D01*
X166168387Y-55853772D01*
X166130554Y-55911723D01*
X166079185Y-55995202D01*
X166015065Y-56102896D01*
X165938980Y-56233491D01*
X165851713Y-56385675D01*
X165778374Y-56515000D01*
X165756011Y-56554241D01*
X165720053Y-56616896D01*
X165672935Y-56698743D01*
X165617091Y-56795558D01*
X165554956Y-56903119D01*
X165488965Y-57017202D01*
X165451383Y-57082107D01*
X165385640Y-57195677D01*
X165323577Y-57303033D01*
X165267389Y-57400367D01*
X165219274Y-57483868D01*
X165181426Y-57549726D01*
X165156043Y-57594133D01*
X165147497Y-57609277D01*
X165120111Y-57657890D01*
X165085076Y-57719239D01*
X165056354Y-57769025D01*
X165030162Y-57814257D01*
X164990322Y-57883175D01*
X164938929Y-57972147D01*
X164878077Y-58077542D01*
X164809862Y-58195728D01*
X164736378Y-58323075D01*
X164659719Y-58455950D01*
X164581981Y-58590721D01*
X164505258Y-58723758D01*
X164431644Y-58851429D01*
X164363235Y-58970101D01*
X164302126Y-59076145D01*
X164250410Y-59165927D01*
X164210183Y-59235817D01*
X164183539Y-59282183D01*
X164180986Y-59286636D01*
X164146459Y-59346796D01*
X164098223Y-59430721D01*
X164038529Y-59534500D01*
X163969630Y-59654220D01*
X163893780Y-59785971D01*
X163813230Y-59925841D01*
X163730233Y-60069919D01*
X163647043Y-60214292D01*
X163565911Y-60355051D01*
X163489091Y-60488282D01*
X163418834Y-60610075D01*
X163398971Y-60644497D01*
X163336219Y-60753271D01*
X163273219Y-60862550D01*
X163213430Y-60966329D01*
X163160311Y-61058602D01*
X163117321Y-61133365D01*
X163095334Y-61171667D01*
X163045466Y-61258484D01*
X162988691Y-61357071D01*
X162934148Y-61451571D01*
X162911246Y-61491164D01*
X162861147Y-61577957D01*
X162804497Y-61676520D01*
X162750398Y-61771005D01*
X162727777Y-61810661D01*
X162679604Y-61894844D01*
X162625926Y-61988004D01*
X162575158Y-62075557D01*
X162552612Y-62114183D01*
X162486556Y-62227856D01*
X162435441Y-62318280D01*
X162397413Y-62389385D01*
X162370621Y-62445103D01*
X162353211Y-62489364D01*
X162343331Y-62526099D01*
X162339128Y-62559239D01*
X162338728Y-62568016D01*
X161516987Y-62568016D01*
X161545353Y-62512241D01*
X161580209Y-62450397D01*
X161584850Y-62442919D01*
X161604700Y-62410316D01*
X161636983Y-62356012D01*
X161678202Y-62285998D01*
X161724857Y-62206268D01*
X161773450Y-62122812D01*
X161820483Y-62041625D01*
X161862458Y-61968697D01*
X161893347Y-61914497D01*
X161928176Y-61853270D01*
X161978038Y-61766155D01*
X162041927Y-61654898D01*
X162118840Y-61521244D01*
X162207773Y-61366941D01*
X162288184Y-61227579D01*
X162344184Y-61130464D01*
X162397143Y-61038430D01*
X162444192Y-60956477D01*
X162482463Y-60889607D01*
X162509086Y-60842821D01*
X162517307Y-60828208D01*
X162545007Y-60779469D01*
X162581988Y-60715627D01*
X162621114Y-60648987D01*
X162628508Y-60636510D01*
X162666116Y-60572481D01*
X162712871Y-60491899D01*
X162762247Y-60406052D01*
X162799359Y-60340975D01*
X162848823Y-60254078D01*
X162903436Y-60158542D01*
X162955506Y-60067806D01*
X162986814Y-60013491D01*
X163024071Y-59948966D01*
X163072666Y-59864707D01*
X163128008Y-59768676D01*
X163185510Y-59668836D01*
X163230795Y-59590158D01*
X163292800Y-59482443D01*
X163359480Y-59366689D01*
X163427527Y-59248630D01*
X163493635Y-59133999D01*
X163554497Y-59028529D01*
X163606807Y-58937954D01*
X163647259Y-58868005D01*
X163654609Y-58855315D01*
X163670470Y-58827829D01*
X163699560Y-58777313D01*
X163739191Y-58708438D01*
X163786675Y-58625877D01*
X163839324Y-58534301D01*
X163865998Y-58487893D01*
X163954132Y-58334580D01*
X164046958Y-58173174D01*
X164142088Y-58007825D01*
X164237131Y-57842682D01*
X164329699Y-57681896D01*
X164417402Y-57529615D01*
X164497850Y-57389990D01*
X164568655Y-57267170D01*
X164627428Y-57165306D01*
X164657028Y-57114057D01*
X164927391Y-56645973D01*
X165187929Y-56194350D01*
X165435779Y-55764183D01*
X165495433Y-55660594D01*
X165555606Y-55556125D01*
X165612516Y-55457340D01*
X165662380Y-55370804D01*
X165701417Y-55303080D01*
X165711879Y-55284937D01*
X165755258Y-55209565D01*
X165799773Y-55131953D01*
X165838730Y-55063783D01*
X165855598Y-55034131D01*
X165946290Y-54894252D01*
X166042550Y-54783162D01*
X166143015Y-54701228D01*
X166246320Y-54648815D01*
X166351100Y-54626288D01*
X166455991Y-54634013D01*
X166455991Y-54634013D01*
G37*
X166455991Y-54634013D02*
X166559629Y-54672356D01*
X166660649Y-54741680D01*
X166722749Y-54801879D01*
X166750662Y-54833799D01*
X166779431Y-54870440D01*
X166811002Y-54914904D01*
X166847324Y-54970294D01*
X166890343Y-55039714D01*
X166942006Y-55126268D01*
X167004261Y-55233059D01*
X167079053Y-55363189D01*
X167121031Y-55436698D01*
X167157048Y-55499739D01*
X167205007Y-55583495D01*
X167260910Y-55680991D01*
X167320756Y-55785255D01*
X167380546Y-55889313D01*
X167394108Y-55912898D01*
X167448544Y-56007574D01*
X167499542Y-56096312D01*
X167544286Y-56174209D01*
X167579961Y-56236363D01*
X167603753Y-56277875D01*
X167609714Y-56288307D01*
X167625188Y-56315310D01*
X167654616Y-56366531D01*
X167696001Y-56438502D01*
X167747351Y-56527755D01*
X167806669Y-56630824D01*
X167871961Y-56744241D01*
X167941231Y-56864539D01*
X167946930Y-56874434D01*
X168021110Y-57003239D01*
X168095524Y-57132451D01*
X168167406Y-57257267D01*
X168233990Y-57372885D01*
X168292510Y-57474500D01*
X168340200Y-57557310D01*
X168370127Y-57609277D01*
X168419249Y-57694559D01*
X168478710Y-57797759D01*
X168542885Y-57909117D01*
X168606150Y-58018875D01*
X168646303Y-58088522D01*
X168697399Y-58177198D01*
X168745429Y-58260658D01*
X168787175Y-58333302D01*
X168819422Y-58389535D01*
X168838951Y-58423756D01*
X168839085Y-58423994D01*
X168862719Y-58465451D01*
X168896925Y-58525126D01*
X168936284Y-58593577D01*
X168960535Y-58635653D01*
X169039925Y-58773289D01*
X169117405Y-58907677D01*
X169191104Y-59035573D01*
X169259155Y-59153728D01*
X169319688Y-59258897D01*
X169370835Y-59347833D01*
X169410727Y-59417291D01*
X169437495Y-59464022D01*
X169445646Y-59478334D01*
X169490414Y-59557025D01*
X169550008Y-59661339D01*
X169623259Y-59789240D01*
X169708996Y-59938694D01*
X169806050Y-60107665D01*
X169913251Y-60294120D01*
X170029430Y-60496022D01*
X170153415Y-60711338D01*
X170284039Y-60938033D01*
X170420129Y-61174071D01*
X170550067Y-61399308D01*
X170632691Y-61542508D01*
X170701618Y-61662010D01*
X170759136Y-61761778D01*
X170807531Y-61845779D01*
X170842490Y-61906510D01*
X170864713Y-61945225D01*
X170901833Y-62010011D01*
X170952898Y-62099201D01*
X171016950Y-62211126D01*
X171093037Y-62344120D01*
X171164823Y-62469623D01*
X171229607Y-62585196D01*
X171278841Y-62679452D01*
X171314518Y-62757772D01*
X171338634Y-62825540D01*
X171353183Y-62888139D01*
X171360159Y-62950952D01*
X171361618Y-63000786D01*
X171360242Y-63075148D01*
X171354027Y-63129159D01*
X171340861Y-63174305D01*
X171322202Y-63215126D01*
X171266576Y-63294746D01*
X171188183Y-63366539D01*
X171096207Y-63422916D01*
X171045592Y-63443779D01*
X171036239Y-63446581D01*
X171024431Y-63449195D01*
X171009063Y-63451627D01*
X170989029Y-63453887D01*
X170963223Y-63455980D01*
X170930540Y-63457916D01*
X170889875Y-63459700D01*
X170840122Y-63461342D01*
X170780175Y-63462849D01*
X170708929Y-63464227D01*
X170625278Y-63465485D01*
X170528118Y-63466631D01*
X170416342Y-63467671D01*
X170288845Y-63468614D01*
X170144521Y-63469466D01*
X169982265Y-63470237D01*
X169800972Y-63470932D01*
X169599536Y-63471560D01*
X169376851Y-63472128D01*
X169131812Y-63472644D01*
X168863314Y-63473116D01*
X168570251Y-63473550D01*
X168251517Y-63473955D01*
X167906007Y-63474338D01*
X167532615Y-63474707D01*
X167130237Y-63475069D01*
X166697766Y-63475432D01*
X166385975Y-63475683D01*
X161809183Y-63479321D01*
X161704503Y-63443577D01*
X161638863Y-63416711D01*
X161575257Y-63383442D01*
X161535952Y-63357246D01*
X161462373Y-63279548D01*
X161409046Y-63182659D01*
X161378245Y-63073799D01*
X161372244Y-62960188D01*
X161384950Y-62877930D01*
X161401935Y-62826086D01*
X161430441Y-62754948D01*
X161466495Y-62673164D01*
X161506123Y-62589379D01*
X161516987Y-62568016D01*
X162338728Y-62568016D01*
X162342133Y-62623968D01*
X162353508Y-62673771D01*
X162359313Y-62687341D01*
X162400143Y-62735854D01*
X162462320Y-62777401D01*
X162535245Y-62805453D01*
X162559339Y-62810550D01*
X162581044Y-62811520D01*
X162633277Y-62812449D01*
X162714618Y-62813335D01*
X162823646Y-62814172D01*
X162958939Y-62814959D01*
X163119077Y-62815693D01*
X163302638Y-62816369D01*
X163508202Y-62816985D01*
X163734348Y-62817538D01*
X163979654Y-62818024D01*
X164242700Y-62818441D01*
X164522064Y-62818785D01*
X164816326Y-62819052D01*
X165124065Y-62819241D01*
X165443859Y-62819347D01*
X165774287Y-62819367D01*
X166113929Y-62819299D01*
X166409937Y-62819168D01*
X170195975Y-62817076D01*
X170272291Y-62779496D01*
X170339797Y-62734234D01*
X170380745Y-62675586D01*
X170398211Y-62598412D01*
X170399347Y-62567084D01*
X170398704Y-62544837D01*
X170395790Y-62522543D01*
X170389128Y-62497251D01*
X170377239Y-62466011D01*
X170358647Y-62425872D01*
X170331873Y-62373883D01*
X170295439Y-62307093D01*
X170247869Y-62222551D01*
X170187685Y-62117306D01*
X170113408Y-61988409D01*
X170084559Y-61938459D01*
X170044746Y-61869522D01*
X170008164Y-61806135D01*
X169979347Y-61756153D01*
X169964749Y-61730786D01*
X169919821Y-61652487D01*
X169864217Y-61555499D01*
X169803119Y-61448870D01*
X169741711Y-61341648D01*
X169685175Y-61242880D01*
X169644441Y-61171667D01*
X169610243Y-61111959D01*
X169563616Y-61030710D01*
X169508086Y-60934058D01*
X169447183Y-60828141D01*
X169384433Y-60719098D01*
X169346075Y-60652485D01*
X169288299Y-60552148D01*
X169218140Y-60430253D01*
X169139132Y-60292940D01*
X169054808Y-60146354D01*
X168968702Y-59996637D01*
X168884349Y-59849932D01*
X168822257Y-59741919D01*
X168748598Y-59613770D01*
X168676404Y-59488175D01*
X168608043Y-59369255D01*
X168545885Y-59261131D01*
X168492300Y-59167924D01*
X168449656Y-59093757D01*
X168420322Y-59042750D01*
X168418180Y-59039025D01*
X168379333Y-58971490D01*
X168343610Y-58909386D01*
X168315741Y-58860931D01*
X168303323Y-58839340D01*
X168287618Y-58812029D01*
X168258626Y-58761613D01*
X168218990Y-58692687D01*
X168171349Y-58609842D01*
X168118345Y-58517671D01*
X168087442Y-58463931D01*
X168027808Y-58360310D01*
X167967587Y-58255811D01*
X167910571Y-58157002D01*
X167860553Y-58070456D01*
X167821324Y-58002742D01*
X167810832Y-57984686D01*
X167762791Y-57901686D01*
X167707872Y-57806155D01*
X167654864Y-57713406D01*
X167632004Y-57673176D01*
X167592121Y-57602948D01*
X167554666Y-57537238D01*
X167524418Y-57484422D01*
X167508877Y-57457516D01*
X167484676Y-57415785D01*
X167447017Y-57350584D01*
X167398341Y-57266156D01*
X167341086Y-57166745D01*
X167277693Y-57056592D01*
X167210604Y-56939942D01*
X167142257Y-56821038D01*
X167075094Y-56704122D01*
X167011553Y-56593438D01*
X166954077Y-56493229D01*
X166905104Y-56407738D01*
X166897923Y-56395189D01*
X166835710Y-56286870D01*
X166775147Y-56182207D01*
X166718485Y-56085026D01*
X166667980Y-55999151D01*
X166625883Y-55928408D01*
X166594449Y-55876624D01*
X166575930Y-55847623D01*
X166573247Y-55843959D01*
X166502674Y-55776383D01*
X166427331Y-55739497D01*
X166349925Y-55733452D01*
X166273162Y-55758398D01*
X166199747Y-55814488D01*
X166191902Y-55822662D01*
X166168387Y-55853772D01*
X166130554Y-55911723D01*
X166079185Y-55995202D01*
X166015065Y-56102896D01*
X165938980Y-56233491D01*
X165851713Y-56385675D01*
X165778374Y-56515000D01*
X165756011Y-56554241D01*
X165720053Y-56616896D01*
X165672935Y-56698743D01*
X165617091Y-56795558D01*
X165554956Y-56903119D01*
X165488965Y-57017202D01*
X165451383Y-57082107D01*
X165385640Y-57195677D01*
X165323577Y-57303033D01*
X165267389Y-57400367D01*
X165219274Y-57483868D01*
X165181426Y-57549726D01*
X165156043Y-57594133D01*
X165147497Y-57609277D01*
X165120111Y-57657890D01*
X165085076Y-57719239D01*
X165056354Y-57769025D01*
X165030162Y-57814257D01*
X164990322Y-57883175D01*
X164938929Y-57972147D01*
X164878077Y-58077542D01*
X164809862Y-58195728D01*
X164736378Y-58323075D01*
X164659719Y-58455950D01*
X164581981Y-58590721D01*
X164505258Y-58723758D01*
X164431644Y-58851429D01*
X164363235Y-58970101D01*
X164302126Y-59076145D01*
X164250410Y-59165927D01*
X164210183Y-59235817D01*
X164183539Y-59282183D01*
X164180986Y-59286636D01*
X164146459Y-59346796D01*
X164098223Y-59430721D01*
X164038529Y-59534500D01*
X163969630Y-59654220D01*
X163893780Y-59785971D01*
X163813230Y-59925841D01*
X163730233Y-60069919D01*
X163647043Y-60214292D01*
X163565911Y-60355051D01*
X163489091Y-60488282D01*
X163418834Y-60610075D01*
X163398971Y-60644497D01*
X163336219Y-60753271D01*
X163273219Y-60862550D01*
X163213430Y-60966329D01*
X163160311Y-61058602D01*
X163117321Y-61133365D01*
X163095334Y-61171667D01*
X163045466Y-61258484D01*
X162988691Y-61357071D01*
X162934148Y-61451571D01*
X162911246Y-61491164D01*
X162861147Y-61577957D01*
X162804497Y-61676520D01*
X162750398Y-61771005D01*
X162727777Y-61810661D01*
X162679604Y-61894844D01*
X162625926Y-61988004D01*
X162575158Y-62075557D01*
X162552612Y-62114183D01*
X162486556Y-62227856D01*
X162435441Y-62318280D01*
X162397413Y-62389385D01*
X162370621Y-62445103D01*
X162353211Y-62489364D01*
X162343331Y-62526099D01*
X162339128Y-62559239D01*
X162338728Y-62568016D01*
X161516987Y-62568016D01*
X161545353Y-62512241D01*
X161580209Y-62450397D01*
X161584850Y-62442919D01*
X161604700Y-62410316D01*
X161636983Y-62356012D01*
X161678202Y-62285998D01*
X161724857Y-62206268D01*
X161773450Y-62122812D01*
X161820483Y-62041625D01*
X161862458Y-61968697D01*
X161893347Y-61914497D01*
X161928176Y-61853270D01*
X161978038Y-61766155D01*
X162041927Y-61654898D01*
X162118840Y-61521244D01*
X162207773Y-61366941D01*
X162288184Y-61227579D01*
X162344184Y-61130464D01*
X162397143Y-61038430D01*
X162444192Y-60956477D01*
X162482463Y-60889607D01*
X162509086Y-60842821D01*
X162517307Y-60828208D01*
X162545007Y-60779469D01*
X162581988Y-60715627D01*
X162621114Y-60648987D01*
X162628508Y-60636510D01*
X162666116Y-60572481D01*
X162712871Y-60491899D01*
X162762247Y-60406052D01*
X162799359Y-60340975D01*
X162848823Y-60254078D01*
X162903436Y-60158542D01*
X162955506Y-60067806D01*
X162986814Y-60013491D01*
X163024071Y-59948966D01*
X163072666Y-59864707D01*
X163128008Y-59768676D01*
X163185510Y-59668836D01*
X163230795Y-59590158D01*
X163292800Y-59482443D01*
X163359480Y-59366689D01*
X163427527Y-59248630D01*
X163493635Y-59133999D01*
X163554497Y-59028529D01*
X163606807Y-58937954D01*
X163647259Y-58868005D01*
X163654609Y-58855315D01*
X163670470Y-58827829D01*
X163699560Y-58777313D01*
X163739191Y-58708438D01*
X163786675Y-58625877D01*
X163839324Y-58534301D01*
X163865998Y-58487893D01*
X163954132Y-58334580D01*
X164046958Y-58173174D01*
X164142088Y-58007825D01*
X164237131Y-57842682D01*
X164329699Y-57681896D01*
X164417402Y-57529615D01*
X164497850Y-57389990D01*
X164568655Y-57267170D01*
X164627428Y-57165306D01*
X164657028Y-57114057D01*
X164927391Y-56645973D01*
X165187929Y-56194350D01*
X165435779Y-55764183D01*
X165495433Y-55660594D01*
X165555606Y-55556125D01*
X165612516Y-55457340D01*
X165662380Y-55370804D01*
X165701417Y-55303080D01*
X165711879Y-55284937D01*
X165755258Y-55209565D01*
X165799773Y-55131953D01*
X165838730Y-55063783D01*
X165855598Y-55034131D01*
X165946290Y-54894252D01*
X166042550Y-54783162D01*
X166143015Y-54701228D01*
X166246320Y-54648815D01*
X166351100Y-54626288D01*
X166455991Y-54634013D01*
D14*
G04 #@! TO.C,C12*
X162264800Y-81060400D02*
X163464800Y-81060400D01*
X163464800Y-82820400D02*
X162264800Y-82820400D01*
G04 #@! TO.C,C11*
D15*
X165092142Y-84050142D02*
X165044523Y-84097761D01*
X164901666Y-84145380D01*
X164806428Y-84145380D01*
X164663571Y-84097761D01*
X164568333Y-84002523D01*
X164520714Y-83907285D01*
X164473095Y-83716809D01*
X164473095Y-83573952D01*
X164520714Y-83383476D01*
X164568333Y-83288238D01*
X164663571Y-83193000D01*
X164806428Y-83145380D01*
X164901666Y-83145380D01*
X165044523Y-83193000D01*
X165092142Y-83240619D01*
X166044523Y-84145380D02*
X165473095Y-84145380D01*
X165758809Y-84145380D02*
X165758809Y-83145380D01*
X165663571Y-83288238D01*
X165568333Y-83383476D01*
X165473095Y-83431095D01*
X166996904Y-84145380D02*
X166425476Y-84145380D01*
X166711190Y-84145380D02*
X166711190Y-83145380D01*
X166615952Y-83288238D01*
X166520714Y-83383476D01*
X166425476Y-83431095D01*
G04 #@! TO.C,C7*
X158263333Y-82781142D02*
X158215714Y-82828761D01*
X158072857Y-82876380D01*
X157977619Y-82876380D01*
X157834761Y-82828761D01*
X157739523Y-82733523D01*
X157691904Y-82638285D01*
X157644285Y-82447809D01*
X157644285Y-82304952D01*
X157691904Y-82114476D01*
X157739523Y-82019238D01*
X157834761Y-81924000D01*
X157977619Y-81876380D01*
X158072857Y-81876380D01*
X158215714Y-81924000D01*
X158263333Y-81971619D01*
X158596666Y-81876380D02*
X159263333Y-81876380D01*
X158834761Y-82876380D01*
G04 #@! TO.C,C8*
X162713333Y-82781142D02*
X162665714Y-82828761D01*
X162522857Y-82876380D01*
X162427619Y-82876380D01*
X162284761Y-82828761D01*
X162189523Y-82733523D01*
X162141904Y-82638285D01*
X162094285Y-82447809D01*
X162094285Y-82304952D01*
X162141904Y-82114476D01*
X162189523Y-82019238D01*
X162284761Y-81924000D01*
X162427619Y-81876380D01*
X162522857Y-81876380D01*
X162665714Y-81924000D01*
X162713333Y-81971619D01*
X163284761Y-82304952D02*
X163189523Y-82257333D01*
X163141904Y-82209714D01*
X163094285Y-82114476D01*
X163094285Y-82066857D01*
X163141904Y-81971619D01*
X163189523Y-81924000D01*
X163284761Y-81876380D01*
X163475238Y-81876380D01*
X163570476Y-81924000D01*
X163618095Y-81971619D01*
X163665714Y-82066857D01*
X163665714Y-82114476D01*
X163618095Y-82209714D01*
X163570476Y-82257333D01*
X163475238Y-82304952D01*
X163284761Y-82304952D01*
X163189523Y-82352571D01*
X163141904Y-82400190D01*
X163094285Y-82495428D01*
X163094285Y-82685904D01*
X163141904Y-82781142D01*
X163189523Y-82828761D01*
X163284761Y-82876380D01*
X163475238Y-82876380D01*
X163570476Y-82828761D01*
X163618095Y-82781142D01*
X163665714Y-82685904D01*
X163665714Y-82495428D01*
X163618095Y-82400190D01*
X163570476Y-82352571D01*
X163475238Y-82304952D01*
G04 #@! TO.C,C9*
X165949333Y-94718142D02*
X165901714Y-94765761D01*
X165758857Y-94813380D01*
X165663619Y-94813380D01*
X165520761Y-94765761D01*
X165425523Y-94670523D01*
X165377904Y-94575285D01*
X165330285Y-94384809D01*
X165330285Y-94241952D01*
X165377904Y-94051476D01*
X165425523Y-93956238D01*
X165520761Y-93861000D01*
X165663619Y-93813380D01*
X165758857Y-93813380D01*
X165901714Y-93861000D01*
X165949333Y-93908619D01*
X166425523Y-94813380D02*
X166616000Y-94813380D01*
X166711238Y-94765761D01*
X166758857Y-94718142D01*
X166854095Y-94575285D01*
X166901714Y-94384809D01*
X166901714Y-94003857D01*
X166854095Y-93908619D01*
X166806476Y-93861000D01*
X166711238Y-93813380D01*
X166520761Y-93813380D01*
X166425523Y-93861000D01*
X166377904Y-93908619D01*
X166330285Y-94003857D01*
X166330285Y-94241952D01*
X166377904Y-94337190D01*
X166425523Y-94384809D01*
X166520761Y-94432428D01*
X166711238Y-94432428D01*
X166806476Y-94384809D01*
X166854095Y-94337190D01*
X166901714Y-94241952D01*
G04 #@! TO.C,U4*
X159766095Y-91140380D02*
X159766095Y-91949904D01*
X159813714Y-92045142D01*
X159861333Y-92092761D01*
X159956571Y-92140380D01*
X160147047Y-92140380D01*
X160242285Y-92092761D01*
X160289904Y-92045142D01*
X160337523Y-91949904D01*
X160337523Y-91140380D01*
X161242285Y-91473714D02*
X161242285Y-92140380D01*
X161004190Y-91092761D02*
X160766095Y-91807047D01*
X161385142Y-91807047D01*
G04 #@! TO.C,C10*
X169140142Y-89288857D02*
X169187761Y-89336476D01*
X169235380Y-89479333D01*
X169235380Y-89574571D01*
X169187761Y-89717428D01*
X169092523Y-89812666D01*
X168997285Y-89860285D01*
X168806809Y-89907904D01*
X168663952Y-89907904D01*
X168473476Y-89860285D01*
X168378238Y-89812666D01*
X168283000Y-89717428D01*
X168235380Y-89574571D01*
X168235380Y-89479333D01*
X168283000Y-89336476D01*
X168330619Y-89288857D01*
X169235380Y-88336476D02*
X169235380Y-88907904D01*
X169235380Y-88622190D02*
X168235380Y-88622190D01*
X168378238Y-88717428D01*
X168473476Y-88812666D01*
X168521095Y-88907904D01*
X168235380Y-87717428D02*
X168235380Y-87622190D01*
X168283000Y-87526952D01*
X168330619Y-87479333D01*
X168425857Y-87431714D01*
X168616333Y-87384095D01*
X168854428Y-87384095D01*
X169044904Y-87431714D01*
X169140142Y-87479333D01*
X169187761Y-87526952D01*
X169235380Y-87622190D01*
X169235380Y-87717428D01*
X169187761Y-87812666D01*
X169140142Y-87860285D01*
X169044904Y-87907904D01*
X168854428Y-87955523D01*
X168616333Y-87955523D01*
X168425857Y-87907904D01*
X168330619Y-87860285D01*
X168283000Y-87812666D01*
X168235380Y-87717428D01*
G04 #@! TO.C,J4*
X131746666Y-103719380D02*
X131746666Y-104433666D01*
X131699047Y-104576523D01*
X131603809Y-104671761D01*
X131460952Y-104719380D01*
X131365714Y-104719380D01*
X132651428Y-104052714D02*
X132651428Y-104719380D01*
X132413333Y-103671761D02*
X132175238Y-104386047D01*
X132794285Y-104386047D01*
G04 #@! TO.C,U3*
X143470380Y-114807904D02*
X144279904Y-114807904D01*
X144375142Y-114760285D01*
X144422761Y-114712666D01*
X144470380Y-114617428D01*
X144470380Y-114426952D01*
X144422761Y-114331714D01*
X144375142Y-114284095D01*
X144279904Y-114236476D01*
X143470380Y-114236476D01*
X143470380Y-113855523D02*
X143470380Y-113236476D01*
X143851333Y-113569809D01*
X143851333Y-113426952D01*
X143898952Y-113331714D01*
X143946571Y-113284095D01*
X144041809Y-113236476D01*
X144279904Y-113236476D01*
X144375142Y-113284095D01*
X144422761Y-113331714D01*
X144470380Y-113426952D01*
X144470380Y-113712666D01*
X144422761Y-113807904D01*
X144375142Y-113855523D01*
G04 #@! TO.C,J1*
D10*
X163330000Y-33972571D02*
X163330000Y-35044000D01*
X163258571Y-35258285D01*
X163115714Y-35401142D01*
X162901428Y-35472571D01*
X162758571Y-35472571D01*
X164830000Y-35472571D02*
X163972857Y-35472571D01*
X164401428Y-35472571D02*
X164401428Y-33972571D01*
X164258571Y-34186857D01*
X164115714Y-34329714D01*
X163972857Y-34401142D01*
G04 #@! TO.C,J2*
X137890000Y-33972571D02*
X137890000Y-35044000D01*
X137818571Y-35258285D01*
X137675714Y-35401142D01*
X137461428Y-35472571D01*
X137318571Y-35472571D01*
X138532857Y-34115428D02*
X138604285Y-34044000D01*
X138747142Y-33972571D01*
X139104285Y-33972571D01*
X139247142Y-34044000D01*
X139318571Y-34115428D01*
X139390000Y-34258285D01*
X139390000Y-34401142D01*
X139318571Y-34615428D01*
X138461428Y-35472571D01*
X139390000Y-35472571D01*
G04 #@! TO.C,U1*
D15*
X151638095Y-61047380D02*
X151638095Y-61856904D01*
X151685714Y-61952142D01*
X151733333Y-61999761D01*
X151828571Y-62047380D01*
X152019047Y-62047380D01*
X152114285Y-61999761D01*
X152161904Y-61952142D01*
X152209523Y-61856904D01*
X152209523Y-61047380D01*
X153209523Y-62047380D02*
X152638095Y-62047380D01*
X152923809Y-62047380D02*
X152923809Y-61047380D01*
X152828571Y-61190238D01*
X152733333Y-61285476D01*
X152638095Y-61333095D01*
G04 #@! TO.C,D1*
D10*
X158285571Y-52034142D02*
X156785571Y-52034142D01*
X156785571Y-51677000D01*
X156857000Y-51462714D01*
X156999857Y-51319857D01*
X157142714Y-51248428D01*
X157428428Y-51177000D01*
X157642714Y-51177000D01*
X157928428Y-51248428D01*
X158071285Y-51319857D01*
X158214142Y-51462714D01*
X158285571Y-51677000D01*
X158285571Y-52034142D01*
X158285571Y-49748428D02*
X158285571Y-50605571D01*
X158285571Y-50177000D02*
X156785571Y-50177000D01*
X156999857Y-50319857D01*
X157142714Y-50462714D01*
X157214142Y-50605571D01*
G04 #@! TO.C,R1*
D15*
X147534333Y-61285380D02*
X147201000Y-60809190D01*
X146962904Y-61285380D02*
X146962904Y-60285380D01*
X147343857Y-60285380D01*
X147439095Y-60333000D01*
X147486714Y-60380619D01*
X147534333Y-60475857D01*
X147534333Y-60618714D01*
X147486714Y-60713952D01*
X147439095Y-60761571D01*
X147343857Y-60809190D01*
X146962904Y-60809190D01*
X148486714Y-61285380D02*
X147915285Y-61285380D01*
X148201000Y-61285380D02*
X148201000Y-60285380D01*
X148105761Y-60428238D01*
X148010523Y-60523476D01*
X147915285Y-60571095D01*
G04 #@! TO.C,R2*
X150963333Y-41322380D02*
X150630000Y-40846190D01*
X150391904Y-41322380D02*
X150391904Y-40322380D01*
X150772857Y-40322380D01*
X150868095Y-40370000D01*
X150915714Y-40417619D01*
X150963333Y-40512857D01*
X150963333Y-40655714D01*
X150915714Y-40750952D01*
X150868095Y-40798571D01*
X150772857Y-40846190D01*
X150391904Y-40846190D01*
X151344285Y-40417619D02*
X151391904Y-40370000D01*
X151487142Y-40322380D01*
X151725238Y-40322380D01*
X151820476Y-40370000D01*
X151868095Y-40417619D01*
X151915714Y-40512857D01*
X151915714Y-40608095D01*
X151868095Y-40750952D01*
X151296666Y-41322380D01*
X151915714Y-41322380D01*
G04 #@! TO.C,U2*
D19*
X143183428Y-61304714D02*
X143183428Y-61921571D01*
X143219714Y-61994142D01*
X143256000Y-62030428D01*
X143328571Y-62066714D01*
X143473714Y-62066714D01*
X143546285Y-62030428D01*
X143582571Y-61994142D01*
X143618857Y-61921571D01*
X143618857Y-61304714D01*
X143945428Y-61377285D02*
X143981714Y-61341000D01*
X144054285Y-61304714D01*
X144235714Y-61304714D01*
X144308285Y-61341000D01*
X144344571Y-61377285D01*
X144380857Y-61449857D01*
X144380857Y-61522428D01*
X144344571Y-61631285D01*
X143909142Y-62066714D01*
X144380857Y-62066714D01*
G04 #@! TO.C,J3*
D15*
X160444380Y-100155333D02*
X161158666Y-100155333D01*
X161301523Y-100202952D01*
X161396761Y-100298190D01*
X161444380Y-100441047D01*
X161444380Y-100536285D01*
X160444380Y-99774380D02*
X160444380Y-99155333D01*
X160825333Y-99488666D01*
X160825333Y-99345809D01*
X160872952Y-99250571D01*
X160920571Y-99202952D01*
X161015809Y-99155333D01*
X161253904Y-99155333D01*
X161349142Y-99202952D01*
X161396761Y-99250571D01*
X161444380Y-99345809D01*
X161444380Y-99631523D01*
X161396761Y-99726761D01*
X161349142Y-99774380D01*
G04 #@! TO.C,C1*
X153725142Y-97702666D02*
X153772761Y-97750285D01*
X153820380Y-97893142D01*
X153820380Y-97988380D01*
X153772761Y-98131238D01*
X153677523Y-98226476D01*
X153582285Y-98274095D01*
X153391809Y-98321714D01*
X153248952Y-98321714D01*
X153058476Y-98274095D01*
X152963238Y-98226476D01*
X152868000Y-98131238D01*
X152820380Y-97988380D01*
X152820380Y-97893142D01*
X152868000Y-97750285D01*
X152915619Y-97702666D01*
X153820380Y-96750285D02*
X153820380Y-97321714D01*
X153820380Y-97036000D02*
X152820380Y-97036000D01*
X152963238Y-97131238D01*
X153058476Y-97226476D01*
X153106095Y-97321714D01*
G04 #@! TO.C,J5*
X160444380Y-106759333D02*
X161158666Y-106759333D01*
X161301523Y-106806952D01*
X161396761Y-106902190D01*
X161444380Y-107045047D01*
X161444380Y-107140285D01*
X160444380Y-105806952D02*
X160444380Y-106283142D01*
X160920571Y-106330761D01*
X160872952Y-106283142D01*
X160825333Y-106187904D01*
X160825333Y-105949809D01*
X160872952Y-105854571D01*
X160920571Y-105806952D01*
X161015809Y-105759333D01*
X161253904Y-105759333D01*
X161349142Y-105806952D01*
X161396761Y-105854571D01*
X161444380Y-105949809D01*
X161444380Y-106187904D01*
X161396761Y-106283142D01*
X161349142Y-106330761D01*
G04 #@! TO.C,U5*
X159766095Y-78440380D02*
X159766095Y-79249904D01*
X159813714Y-79345142D01*
X159861333Y-79392761D01*
X159956571Y-79440380D01*
X160147047Y-79440380D01*
X160242285Y-79392761D01*
X160289904Y-79345142D01*
X160337523Y-79249904D01*
X160337523Y-78440380D01*
X161289904Y-78440380D02*
X160813714Y-78440380D01*
X160766095Y-78916571D01*
X160813714Y-78868952D01*
X160908952Y-78821333D01*
X161147047Y-78821333D01*
X161242285Y-78868952D01*
X161289904Y-78916571D01*
X161337523Y-79011809D01*
X161337523Y-79249904D01*
X161289904Y-79345142D01*
X161242285Y-79392761D01*
X161147047Y-79440380D01*
X160908952Y-79440380D01*
X160813714Y-79392761D01*
X160766095Y-79345142D01*
G04 #@! TO.C,C2*
X158263333Y-70081142D02*
X158215714Y-70128761D01*
X158072857Y-70176380D01*
X157977619Y-70176380D01*
X157834761Y-70128761D01*
X157739523Y-70033523D01*
X157691904Y-69938285D01*
X157644285Y-69747809D01*
X157644285Y-69604952D01*
X157691904Y-69414476D01*
X157739523Y-69319238D01*
X157834761Y-69224000D01*
X157977619Y-69176380D01*
X158072857Y-69176380D01*
X158215714Y-69224000D01*
X158263333Y-69271619D01*
X158644285Y-69271619D02*
X158691904Y-69224000D01*
X158787142Y-69176380D01*
X159025238Y-69176380D01*
X159120476Y-69224000D01*
X159168095Y-69271619D01*
X159215714Y-69366857D01*
X159215714Y-69462095D01*
X159168095Y-69604952D01*
X158596666Y-70176380D01*
X159215714Y-70176380D01*
G04 #@! TO.C,C3*
X162713333Y-70081142D02*
X162665714Y-70128761D01*
X162522857Y-70176380D01*
X162427619Y-70176380D01*
X162284761Y-70128761D01*
X162189523Y-70033523D01*
X162141904Y-69938285D01*
X162094285Y-69747809D01*
X162094285Y-69604952D01*
X162141904Y-69414476D01*
X162189523Y-69319238D01*
X162284761Y-69224000D01*
X162427619Y-69176380D01*
X162522857Y-69176380D01*
X162665714Y-69224000D01*
X162713333Y-69271619D01*
X163046666Y-69176380D02*
X163665714Y-69176380D01*
X163332380Y-69557333D01*
X163475238Y-69557333D01*
X163570476Y-69604952D01*
X163618095Y-69652571D01*
X163665714Y-69747809D01*
X163665714Y-69985904D01*
X163618095Y-70081142D01*
X163570476Y-70128761D01*
X163475238Y-70176380D01*
X163189523Y-70176380D01*
X163094285Y-70128761D01*
X163046666Y-70081142D01*
G04 #@! TO.C,C4*
X165822333Y-81129142D02*
X165774714Y-81176761D01*
X165631857Y-81224380D01*
X165536619Y-81224380D01*
X165393761Y-81176761D01*
X165298523Y-81081523D01*
X165250904Y-80986285D01*
X165203285Y-80795809D01*
X165203285Y-80652952D01*
X165250904Y-80462476D01*
X165298523Y-80367238D01*
X165393761Y-80272000D01*
X165536619Y-80224380D01*
X165631857Y-80224380D01*
X165774714Y-80272000D01*
X165822333Y-80319619D01*
X166679476Y-80557714D02*
X166679476Y-81224380D01*
X166441380Y-80176761D02*
X166203285Y-80891047D01*
X166822333Y-80891047D01*
G04 #@! TO.C,C5*
X169140142Y-76239666D02*
X169187761Y-76287285D01*
X169235380Y-76430142D01*
X169235380Y-76525380D01*
X169187761Y-76668238D01*
X169092523Y-76763476D01*
X168997285Y-76811095D01*
X168806809Y-76858714D01*
X168663952Y-76858714D01*
X168473476Y-76811095D01*
X168378238Y-76763476D01*
X168283000Y-76668238D01*
X168235380Y-76525380D01*
X168235380Y-76430142D01*
X168283000Y-76287285D01*
X168330619Y-76239666D01*
X168235380Y-75334904D02*
X168235380Y-75811095D01*
X168711571Y-75858714D01*
X168663952Y-75811095D01*
X168616333Y-75715857D01*
X168616333Y-75477761D01*
X168663952Y-75382523D01*
X168711571Y-75334904D01*
X168806809Y-75287285D01*
X169044904Y-75287285D01*
X169140142Y-75334904D01*
X169187761Y-75382523D01*
X169235380Y-75477761D01*
X169235380Y-75715857D01*
X169187761Y-75811095D01*
X169140142Y-75858714D01*
G04 #@! TO.C,C6*
X165949333Y-71223142D02*
X165901714Y-71270761D01*
X165758857Y-71318380D01*
X165663619Y-71318380D01*
X165520761Y-71270761D01*
X165425523Y-71175523D01*
X165377904Y-71080285D01*
X165330285Y-70889809D01*
X165330285Y-70746952D01*
X165377904Y-70556476D01*
X165425523Y-70461238D01*
X165520761Y-70366000D01*
X165663619Y-70318380D01*
X165758857Y-70318380D01*
X165901714Y-70366000D01*
X165949333Y-70413619D01*
X166806476Y-70318380D02*
X166616000Y-70318380D01*
X166520761Y-70366000D01*
X166473142Y-70413619D01*
X166377904Y-70556476D01*
X166330285Y-70746952D01*
X166330285Y-71127904D01*
X166377904Y-71223142D01*
X166425523Y-71270761D01*
X166520761Y-71318380D01*
X166711238Y-71318380D01*
X166806476Y-71270761D01*
X166854095Y-71223142D01*
X166901714Y-71127904D01*
X166901714Y-70889809D01*
X166854095Y-70794571D01*
X166806476Y-70746952D01*
X166711238Y-70699333D01*
X166520761Y-70699333D01*
X166425523Y-70746952D01*
X166377904Y-70794571D01*
X166330285Y-70889809D01*
G04 #@! TO.C,R3*
X161631333Y-120848380D02*
X161298000Y-120372190D01*
X161059904Y-120848380D02*
X161059904Y-119848380D01*
X161440857Y-119848380D01*
X161536095Y-119896000D01*
X161583714Y-119943619D01*
X161631333Y-120038857D01*
X161631333Y-120181714D01*
X161583714Y-120276952D01*
X161536095Y-120324571D01*
X161440857Y-120372190D01*
X161059904Y-120372190D01*
X161964666Y-119848380D02*
X162583714Y-119848380D01*
X162250380Y-120229333D01*
X162393238Y-120229333D01*
X162488476Y-120276952D01*
X162536095Y-120324571D01*
X162583714Y-120419809D01*
X162583714Y-120657904D01*
X162536095Y-120753142D01*
X162488476Y-120800761D01*
X162393238Y-120848380D01*
X162107523Y-120848380D01*
X162012285Y-120800761D01*
X161964666Y-120753142D01*
G04 #@! TO.C,R4*
X158710333Y-118943380D02*
X158377000Y-118467190D01*
X158138904Y-118943380D02*
X158138904Y-117943380D01*
X158519857Y-117943380D01*
X158615095Y-117991000D01*
X158662714Y-118038619D01*
X158710333Y-118133857D01*
X158710333Y-118276714D01*
X158662714Y-118371952D01*
X158615095Y-118419571D01*
X158519857Y-118467190D01*
X158138904Y-118467190D01*
X159567476Y-118276714D02*
X159567476Y-118943380D01*
X159329380Y-117895761D02*
X159091285Y-118610047D01*
X159710333Y-118610047D01*
G04 #@! TO.C,R5*
X146502380Y-103417666D02*
X146026190Y-103751000D01*
X146502380Y-103989095D02*
X145502380Y-103989095D01*
X145502380Y-103608142D01*
X145550000Y-103512904D01*
X145597619Y-103465285D01*
X145692857Y-103417666D01*
X145835714Y-103417666D01*
X145930952Y-103465285D01*
X145978571Y-103512904D01*
X146026190Y-103608142D01*
X146026190Y-103989095D01*
X145502380Y-102512904D02*
X145502380Y-102989095D01*
X145978571Y-103036714D01*
X145930952Y-102989095D01*
X145883333Y-102893857D01*
X145883333Y-102655761D01*
X145930952Y-102560523D01*
X145978571Y-102512904D01*
X146073809Y-102465285D01*
X146311904Y-102465285D01*
X146407142Y-102512904D01*
X146454761Y-102560523D01*
X146502380Y-102655761D01*
X146502380Y-102893857D01*
X146454761Y-102989095D01*
X146407142Y-103036714D01*
G04 #@! TO.C,R6*
X144470380Y-103417666D02*
X143994190Y-103751000D01*
X144470380Y-103989095D02*
X143470380Y-103989095D01*
X143470380Y-103608142D01*
X143518000Y-103512904D01*
X143565619Y-103465285D01*
X143660857Y-103417666D01*
X143803714Y-103417666D01*
X143898952Y-103465285D01*
X143946571Y-103512904D01*
X143994190Y-103608142D01*
X143994190Y-103989095D01*
X143470380Y-102560523D02*
X143470380Y-102751000D01*
X143518000Y-102846238D01*
X143565619Y-102893857D01*
X143708476Y-102989095D01*
X143898952Y-103036714D01*
X144279904Y-103036714D01*
X144375142Y-102989095D01*
X144422761Y-102941476D01*
X144470380Y-102846238D01*
X144470380Y-102655761D01*
X144422761Y-102560523D01*
X144375142Y-102512904D01*
X144279904Y-102465285D01*
X144041809Y-102465285D01*
X143946571Y-102512904D01*
X143898952Y-102560523D01*
X143851333Y-102655761D01*
X143851333Y-102846238D01*
X143898952Y-102941476D01*
X143946571Y-102989095D01*
X144041809Y-103036714D01*
G04 #@! TO.C,R7*
X142438380Y-103417666D02*
X141962190Y-103751000D01*
X142438380Y-103989095D02*
X141438380Y-103989095D01*
X141438380Y-103608142D01*
X141486000Y-103512904D01*
X141533619Y-103465285D01*
X141628857Y-103417666D01*
X141771714Y-103417666D01*
X141866952Y-103465285D01*
X141914571Y-103512904D01*
X141962190Y-103608142D01*
X141962190Y-103989095D01*
X141438380Y-103084333D02*
X141438380Y-102417666D01*
X142438380Y-102846238D01*
G04 #@! TO.C,R12*
X164028380Y-116466857D02*
X163552190Y-116800190D01*
X164028380Y-117038285D02*
X163028380Y-117038285D01*
X163028380Y-116657333D01*
X163076000Y-116562095D01*
X163123619Y-116514476D01*
X163218857Y-116466857D01*
X163361714Y-116466857D01*
X163456952Y-116514476D01*
X163504571Y-116562095D01*
X163552190Y-116657333D01*
X163552190Y-117038285D01*
X164028380Y-115514476D02*
X164028380Y-116085904D01*
X164028380Y-115800190D02*
X163028380Y-115800190D01*
X163171238Y-115895428D01*
X163266476Y-115990666D01*
X163314095Y-116085904D01*
X163123619Y-115133523D02*
X163076000Y-115085904D01*
X163028380Y-114990666D01*
X163028380Y-114752571D01*
X163076000Y-114657333D01*
X163123619Y-114609714D01*
X163218857Y-114562095D01*
X163314095Y-114562095D01*
X163456952Y-114609714D01*
X164028380Y-115181142D01*
X164028380Y-114562095D01*
G04 #@! TO.C,R13*
X161409142Y-113355380D02*
X161075809Y-112879190D01*
X160837714Y-113355380D02*
X160837714Y-112355380D01*
X161218666Y-112355380D01*
X161313904Y-112403000D01*
X161361523Y-112450619D01*
X161409142Y-112545857D01*
X161409142Y-112688714D01*
X161361523Y-112783952D01*
X161313904Y-112831571D01*
X161218666Y-112879190D01*
X160837714Y-112879190D01*
X162361523Y-113355380D02*
X161790095Y-113355380D01*
X162075809Y-113355380D02*
X162075809Y-112355380D01*
X161980571Y-112498238D01*
X161885333Y-112593476D01*
X161790095Y-112641095D01*
X162694857Y-112355380D02*
X163313904Y-112355380D01*
X162980571Y-112736333D01*
X163123428Y-112736333D01*
X163218666Y-112783952D01*
X163266285Y-112831571D01*
X163313904Y-112926809D01*
X163313904Y-113164904D01*
X163266285Y-113260142D01*
X163218666Y-113307761D01*
X163123428Y-113355380D01*
X162837714Y-113355380D01*
X162742476Y-113307761D01*
X162694857Y-113260142D01*
G04 #@! TO.C,R14*
X161409142Y-111069380D02*
X161075809Y-110593190D01*
X160837714Y-111069380D02*
X160837714Y-110069380D01*
X161218666Y-110069380D01*
X161313904Y-110117000D01*
X161361523Y-110164619D01*
X161409142Y-110259857D01*
X161409142Y-110402714D01*
X161361523Y-110497952D01*
X161313904Y-110545571D01*
X161218666Y-110593190D01*
X160837714Y-110593190D01*
X162361523Y-111069380D02*
X161790095Y-111069380D01*
X162075809Y-111069380D02*
X162075809Y-110069380D01*
X161980571Y-110212238D01*
X161885333Y-110307476D01*
X161790095Y-110355095D01*
X163218666Y-110402714D02*
X163218666Y-111069380D01*
X162980571Y-110021761D02*
X162742476Y-110736047D01*
X163361523Y-110736047D01*
G04 #@! TO.C,R15*
X154932142Y-108783380D02*
X154598809Y-108307190D01*
X154360714Y-108783380D02*
X154360714Y-107783380D01*
X154741666Y-107783380D01*
X154836904Y-107831000D01*
X154884523Y-107878619D01*
X154932142Y-107973857D01*
X154932142Y-108116714D01*
X154884523Y-108211952D01*
X154836904Y-108259571D01*
X154741666Y-108307190D01*
X154360714Y-108307190D01*
X155884523Y-108783380D02*
X155313095Y-108783380D01*
X155598809Y-108783380D02*
X155598809Y-107783380D01*
X155503571Y-107926238D01*
X155408333Y-108021476D01*
X155313095Y-108069095D01*
X156789285Y-107783380D02*
X156313095Y-107783380D01*
X156265476Y-108259571D01*
X156313095Y-108211952D01*
X156408333Y-108164333D01*
X156646428Y-108164333D01*
X156741666Y-108211952D01*
X156789285Y-108259571D01*
X156836904Y-108354809D01*
X156836904Y-108592904D01*
X156789285Y-108688142D01*
X156741666Y-108735761D01*
X156646428Y-108783380D01*
X156408333Y-108783380D01*
X156313095Y-108735761D01*
X156265476Y-108688142D01*
G04 #@! TO.C,R8*
X157042380Y-86018666D02*
X156566190Y-86352000D01*
X157042380Y-86590095D02*
X156042380Y-86590095D01*
X156042380Y-86209142D01*
X156090000Y-86113904D01*
X156137619Y-86066285D01*
X156232857Y-86018666D01*
X156375714Y-86018666D01*
X156470952Y-86066285D01*
X156518571Y-86113904D01*
X156566190Y-86209142D01*
X156566190Y-86590095D01*
X156470952Y-85447238D02*
X156423333Y-85542476D01*
X156375714Y-85590095D01*
X156280476Y-85637714D01*
X156232857Y-85637714D01*
X156137619Y-85590095D01*
X156090000Y-85542476D01*
X156042380Y-85447238D01*
X156042380Y-85256761D01*
X156090000Y-85161523D01*
X156137619Y-85113904D01*
X156232857Y-85066285D01*
X156280476Y-85066285D01*
X156375714Y-85113904D01*
X156423333Y-85161523D01*
X156470952Y-85256761D01*
X156470952Y-85447238D01*
X156518571Y-85542476D01*
X156566190Y-85590095D01*
X156661428Y-85637714D01*
X156851904Y-85637714D01*
X156947142Y-85590095D01*
X156994761Y-85542476D01*
X157042380Y-85447238D01*
X157042380Y-85256761D01*
X156994761Y-85161523D01*
X156947142Y-85113904D01*
X156851904Y-85066285D01*
X156661428Y-85066285D01*
X156566190Y-85113904D01*
X156518571Y-85161523D01*
X156470952Y-85256761D01*
G04 #@! TO.C,R9*
X157042380Y-73318666D02*
X156566190Y-73652000D01*
X157042380Y-73890095D02*
X156042380Y-73890095D01*
X156042380Y-73509142D01*
X156090000Y-73413904D01*
X156137619Y-73366285D01*
X156232857Y-73318666D01*
X156375714Y-73318666D01*
X156470952Y-73366285D01*
X156518571Y-73413904D01*
X156566190Y-73509142D01*
X156566190Y-73890095D01*
X157042380Y-72842476D02*
X157042380Y-72652000D01*
X156994761Y-72556761D01*
X156947142Y-72509142D01*
X156804285Y-72413904D01*
X156613809Y-72366285D01*
X156232857Y-72366285D01*
X156137619Y-72413904D01*
X156090000Y-72461523D01*
X156042380Y-72556761D01*
X156042380Y-72747238D01*
X156090000Y-72842476D01*
X156137619Y-72890095D01*
X156232857Y-72937714D01*
X156470952Y-72937714D01*
X156566190Y-72890095D01*
X156613809Y-72842476D01*
X156661428Y-72747238D01*
X156661428Y-72556761D01*
X156613809Y-72461523D01*
X156566190Y-72413904D01*
X156470952Y-72366285D01*
G04 #@! TO.C,R10*
X148914380Y-75826857D02*
X148438190Y-76160190D01*
X148914380Y-76398285D02*
X147914380Y-76398285D01*
X147914380Y-76017333D01*
X147962000Y-75922095D01*
X148009619Y-75874476D01*
X148104857Y-75826857D01*
X148247714Y-75826857D01*
X148342952Y-75874476D01*
X148390571Y-75922095D01*
X148438190Y-76017333D01*
X148438190Y-76398285D01*
X148914380Y-74874476D02*
X148914380Y-75445904D01*
X148914380Y-75160190D02*
X147914380Y-75160190D01*
X148057238Y-75255428D01*
X148152476Y-75350666D01*
X148200095Y-75445904D01*
X147914380Y-74255428D02*
X147914380Y-74160190D01*
X147962000Y-74064952D01*
X148009619Y-74017333D01*
X148104857Y-73969714D01*
X148295333Y-73922095D01*
X148533428Y-73922095D01*
X148723904Y-73969714D01*
X148819142Y-74017333D01*
X148866761Y-74064952D01*
X148914380Y-74160190D01*
X148914380Y-74255428D01*
X148866761Y-74350666D01*
X148819142Y-74398285D01*
X148723904Y-74445904D01*
X148533428Y-74493523D01*
X148295333Y-74493523D01*
X148104857Y-74445904D01*
X148009619Y-74398285D01*
X147962000Y-74350666D01*
X147914380Y-74255428D01*
G04 #@! TO.C,MH5*
X124396666Y-54672380D02*
X124396666Y-53672380D01*
X124730000Y-54386666D01*
X125063333Y-53672380D01*
X125063333Y-54672380D01*
X125539523Y-54672380D02*
X125539523Y-53672380D01*
X125539523Y-54148571D02*
X126110952Y-54148571D01*
X126110952Y-54672380D02*
X126110952Y-53672380D01*
X127063333Y-53672380D02*
X126587142Y-53672380D01*
X126539523Y-54148571D01*
X126587142Y-54100952D01*
X126682380Y-54053333D01*
X126920476Y-54053333D01*
X127015714Y-54100952D01*
X127063333Y-54148571D01*
X127110952Y-54243809D01*
X127110952Y-54481904D01*
X127063333Y-54577142D01*
X127015714Y-54624761D01*
X126920476Y-54672380D01*
X126682380Y-54672380D01*
X126587142Y-54624761D01*
X126539523Y-54577142D01*
G04 #@! TO.C,RV1*
X135802761Y-58872380D02*
X135469428Y-58396190D01*
X135231333Y-58872380D02*
X135231333Y-57872380D01*
X135612285Y-57872380D01*
X135707523Y-57920000D01*
X135755142Y-57967619D01*
X135802761Y-58062857D01*
X135802761Y-58205714D01*
X135755142Y-58300952D01*
X135707523Y-58348571D01*
X135612285Y-58396190D01*
X135231333Y-58396190D01*
X136088476Y-57872380D02*
X136421809Y-58872380D01*
X136755142Y-57872380D01*
X137612285Y-58872380D02*
X137040857Y-58872380D01*
X137326571Y-58872380D02*
X137326571Y-57872380D01*
X137231333Y-58015238D01*
X137136095Y-58110476D01*
X137040857Y-58158095D01*
G04 #@! TO.C,R11*
X126562380Y-113545857D02*
X126086190Y-113879190D01*
X126562380Y-114117285D02*
X125562380Y-114117285D01*
X125562380Y-113736333D01*
X125610000Y-113641095D01*
X125657619Y-113593476D01*
X125752857Y-113545857D01*
X125895714Y-113545857D01*
X125990952Y-113593476D01*
X126038571Y-113641095D01*
X126086190Y-113736333D01*
X126086190Y-114117285D01*
X126562380Y-112593476D02*
X126562380Y-113164904D01*
X126562380Y-112879190D02*
X125562380Y-112879190D01*
X125705238Y-112974428D01*
X125800476Y-113069666D01*
X125848095Y-113164904D01*
X126562380Y-111641095D02*
X126562380Y-112212523D01*
X126562380Y-111926809D02*
X125562380Y-111926809D01*
X125705238Y-112022047D01*
X125800476Y-112117285D01*
X125848095Y-112212523D01*
G04 #@! TO.C,R16*
X129991380Y-113545857D02*
X129515190Y-113879190D01*
X129991380Y-114117285D02*
X128991380Y-114117285D01*
X128991380Y-113736333D01*
X129039000Y-113641095D01*
X129086619Y-113593476D01*
X129181857Y-113545857D01*
X129324714Y-113545857D01*
X129419952Y-113593476D01*
X129467571Y-113641095D01*
X129515190Y-113736333D01*
X129515190Y-114117285D01*
X129991380Y-112593476D02*
X129991380Y-113164904D01*
X129991380Y-112879190D02*
X128991380Y-112879190D01*
X129134238Y-112974428D01*
X129229476Y-113069666D01*
X129277095Y-113164904D01*
X128991380Y-111736333D02*
X128991380Y-111926809D01*
X129039000Y-112022047D01*
X129086619Y-112069666D01*
X129229476Y-112164904D01*
X129419952Y-112212523D01*
X129800904Y-112212523D01*
X129896142Y-112164904D01*
X129943761Y-112117285D01*
X129991380Y-112022047D01*
X129991380Y-111831571D01*
X129943761Y-111736333D01*
X129896142Y-111688714D01*
X129800904Y-111641095D01*
X129562809Y-111641095D01*
X129467571Y-111688714D01*
X129419952Y-111736333D01*
X129372333Y-111831571D01*
X129372333Y-112022047D01*
X129419952Y-112117285D01*
X129467571Y-112164904D01*
X129562809Y-112212523D01*
G04 #@! TO.C,D2*
X126612380Y-109577095D02*
X125612380Y-109577095D01*
X125612380Y-109339000D01*
X125660000Y-109196142D01*
X125755238Y-109100904D01*
X125850476Y-109053285D01*
X126040952Y-109005666D01*
X126183809Y-109005666D01*
X126374285Y-109053285D01*
X126469523Y-109100904D01*
X126564761Y-109196142D01*
X126612380Y-109339000D01*
X126612380Y-109577095D01*
X125707619Y-108624714D02*
X125660000Y-108577095D01*
X125612380Y-108481857D01*
X125612380Y-108243761D01*
X125660000Y-108148523D01*
X125707619Y-108100904D01*
X125802857Y-108053285D01*
X125898095Y-108053285D01*
X126040952Y-108100904D01*
X126612380Y-108672333D01*
X126612380Y-108053285D01*
G04 #@! TO.C,D3*
X130041380Y-109577095D02*
X129041380Y-109577095D01*
X129041380Y-109339000D01*
X129089000Y-109196142D01*
X129184238Y-109100904D01*
X129279476Y-109053285D01*
X129469952Y-109005666D01*
X129612809Y-109005666D01*
X129803285Y-109053285D01*
X129898523Y-109100904D01*
X129993761Y-109196142D01*
X130041380Y-109339000D01*
X130041380Y-109577095D01*
X129041380Y-108672333D02*
X129041380Y-108053285D01*
X129422333Y-108386619D01*
X129422333Y-108243761D01*
X129469952Y-108148523D01*
X129517571Y-108100904D01*
X129612809Y-108053285D01*
X129850904Y-108053285D01*
X129946142Y-108100904D01*
X129993761Y-108148523D01*
X130041380Y-108243761D01*
X130041380Y-108529476D01*
X129993761Y-108624714D01*
X129946142Y-108672333D01*
G04 #@! TO.C,C12*
X162221942Y-80647542D02*
X162174323Y-80695161D01*
X162031466Y-80742780D01*
X161936228Y-80742780D01*
X161793371Y-80695161D01*
X161698133Y-80599923D01*
X161650514Y-80504685D01*
X161602895Y-80314209D01*
X161602895Y-80171352D01*
X161650514Y-79980876D01*
X161698133Y-79885638D01*
X161793371Y-79790400D01*
X161936228Y-79742780D01*
X162031466Y-79742780D01*
X162174323Y-79790400D01*
X162221942Y-79838019D01*
X163174323Y-80742780D02*
X162602895Y-80742780D01*
X162888609Y-80742780D02*
X162888609Y-79742780D01*
X162793371Y-79885638D01*
X162698133Y-79980876D01*
X162602895Y-80028495D01*
X163555276Y-79838019D02*
X163602895Y-79790400D01*
X163698133Y-79742780D01*
X163936228Y-79742780D01*
X164031466Y-79790400D01*
X164079085Y-79838019D01*
X164126704Y-79933257D01*
X164126704Y-80028495D01*
X164079085Y-80171352D01*
X163507657Y-80742780D01*
X164126704Y-80742780D01*
G04 #@! TD*
M02*
