G04 #@! TF.GenerationSoftware,KiCad,Pcbnew,(5.0.1)-4*
G04 #@! TF.CreationDate,2019-02-15T22:12:16-03:00*
G04 #@! TF.ProjectId,reflow,7265666C6F772E6B696361645F706362,rev?*
G04 #@! TF.SameCoordinates,Original*
G04 #@! TF.FileFunction,Other,Fab,Top*
%FSLAX46Y46*%
G04 Gerber Fmt 4.6, Leading zero omitted, Abs format (unit mm)*
G04 Created by KiCad (PCBNEW (5.0.1)-4) date 15/2/2019 22:12:16*
%MOMM*%
%LPD*%
G01*
G04 APERTURE LIST*
%ADD10C,0.100000*%
%ADD11C,0.150000*%
%ADD12C,0.050000*%
%ADD13C,0.075000*%
%ADD14C,0.127000*%
G04 APERTURE END LIST*
D10*
G04 #@! TO.C,C11*
X165496000Y-86344000D02*
X165496000Y-84344000D01*
X165496000Y-84344000D02*
X166736000Y-84344000D01*
X166736000Y-84344000D02*
X166736000Y-86344000D01*
X166736000Y-86344000D02*
X165496000Y-86344000D01*
G04 #@! TO.C,C7*
X157430000Y-84694000D02*
X157430000Y-83454000D01*
X159430000Y-84694000D02*
X157430000Y-84694000D01*
X159430000Y-83454000D02*
X159430000Y-84694000D01*
X157430000Y-83454000D02*
X159430000Y-83454000D01*
G04 #@! TO.C,C8*
X161880000Y-83454000D02*
X163880000Y-83454000D01*
X163880000Y-83454000D02*
X163880000Y-84694000D01*
X163880000Y-84694000D02*
X161880000Y-84694000D01*
X161880000Y-84694000D02*
X161880000Y-83454000D01*
G04 #@! TO.C,C9*
X166736000Y-92948000D02*
X165496000Y-92948000D01*
X166736000Y-90948000D02*
X166736000Y-92948000D01*
X165496000Y-90948000D02*
X166736000Y-90948000D01*
X165496000Y-92948000D02*
X165496000Y-90948000D01*
D11*
G04 #@! TO.C,U4*
X162728000Y-89638000D02*
X161728000Y-90638000D01*
X162728000Y-85638000D02*
X162728000Y-89638000D01*
X158328000Y-85638000D02*
X162728000Y-85638000D01*
X158328000Y-90638000D02*
X158328000Y-85638000D01*
X161728000Y-90638000D02*
X158328000Y-90638000D01*
D10*
G04 #@! TO.C,C10*
X166736000Y-89646000D02*
X165496000Y-89646000D01*
X166736000Y-87646000D02*
X166736000Y-89646000D01*
X165496000Y-87646000D02*
X166736000Y-87646000D01*
X165496000Y-89646000D02*
X165496000Y-87646000D01*
G04 #@! TO.C,J4*
X133350000Y-120015000D02*
X132715000Y-120650000D01*
X133350000Y-105410000D02*
X133350000Y-120015000D01*
X130810000Y-105410000D02*
X133350000Y-105410000D01*
X130810000Y-120650000D02*
X130810000Y-105410000D01*
X132715000Y-120650000D02*
X130810000Y-120650000D01*
D12*
G04 #@! TO.C,U3*
X137908000Y-128796000D02*
X137908000Y-104796000D01*
X137916000Y-104796000D02*
X153916000Y-104796000D01*
X153916000Y-104796000D02*
X153916000Y-128796000D01*
X153916000Y-128796000D02*
X137916000Y-128796000D01*
D10*
G04 #@! TO.C,U1*
X146542000Y-70485000D02*
X145542000Y-69485000D01*
X153162000Y-70485000D02*
X146542000Y-70485000D01*
X153162000Y-64135000D02*
X153162000Y-70485000D01*
X145542000Y-64135000D02*
X153162000Y-64135000D01*
X145542000Y-69485000D02*
X145542000Y-64135000D01*
G04 #@! TO.C,R1*
X144780000Y-58420000D02*
X146710000Y-58420000D01*
X154940000Y-58420000D02*
X153010000Y-58420000D01*
X146710000Y-59670000D02*
X153010000Y-59670000D01*
X146710000Y-57170000D02*
X146710000Y-59670000D01*
X153010000Y-57170000D02*
X146710000Y-57170000D01*
X153010000Y-59670000D02*
X153010000Y-57170000D01*
G04 #@! TO.C,R2*
X147980000Y-41930000D02*
X147980000Y-44430000D01*
X147980000Y-44430000D02*
X154280000Y-44430000D01*
X154280000Y-44430000D02*
X154280000Y-41930000D01*
X154280000Y-41930000D02*
X147980000Y-41930000D01*
X146050000Y-43180000D02*
X147980000Y-43180000D01*
X156210000Y-43180000D02*
X154280000Y-43180000D01*
G04 #@! TO.C,J3*
X162687000Y-101092000D02*
X162052000Y-100457000D01*
X177292000Y-101092000D02*
X162687000Y-101092000D01*
X177292000Y-98552000D02*
X177292000Y-101092000D01*
X162052000Y-98552000D02*
X177292000Y-98552000D01*
X162052000Y-100457000D02*
X162052000Y-98552000D01*
G04 #@! TO.C,C1*
X155118000Y-99636000D02*
X158318000Y-99636000D01*
X155118000Y-99936000D02*
X158318000Y-99936000D01*
X155118000Y-94536000D02*
X155118000Y-100536000D01*
X158318000Y-94536000D02*
X155118000Y-94536000D01*
X158318000Y-100536000D02*
X158318000Y-94536000D01*
X155118000Y-100536000D02*
X158318000Y-100536000D01*
G04 #@! TO.C,J5*
X162687000Y-107696000D02*
X162052000Y-107061000D01*
X177292000Y-107696000D02*
X162687000Y-107696000D01*
X177292000Y-105156000D02*
X177292000Y-107696000D01*
X162052000Y-105156000D02*
X177292000Y-105156000D01*
X162052000Y-107061000D02*
X162052000Y-105156000D01*
D11*
G04 #@! TO.C,U5*
X161728000Y-77938000D02*
X158328000Y-77938000D01*
X158328000Y-77938000D02*
X158328000Y-72938000D01*
X158328000Y-72938000D02*
X162728000Y-72938000D01*
X162728000Y-72938000D02*
X162728000Y-76938000D01*
X162728000Y-76938000D02*
X161728000Y-77938000D01*
D10*
G04 #@! TO.C,C2*
X157430000Y-70754000D02*
X159430000Y-70754000D01*
X159430000Y-70754000D02*
X159430000Y-71994000D01*
X159430000Y-71994000D02*
X157430000Y-71994000D01*
X157430000Y-71994000D02*
X157430000Y-70754000D01*
G04 #@! TO.C,C3*
X161880000Y-71994000D02*
X161880000Y-70754000D01*
X163880000Y-71994000D02*
X161880000Y-71994000D01*
X163880000Y-70754000D02*
X163880000Y-71994000D01*
X161880000Y-70754000D02*
X163880000Y-70754000D01*
G04 #@! TO.C,C4*
X165496000Y-80248000D02*
X165496000Y-78248000D01*
X165496000Y-78248000D02*
X166736000Y-78248000D01*
X166736000Y-78248000D02*
X166736000Y-80248000D01*
X166736000Y-80248000D02*
X165496000Y-80248000D01*
G04 #@! TO.C,C5*
X165496000Y-76946000D02*
X165496000Y-74946000D01*
X165496000Y-74946000D02*
X166736000Y-74946000D01*
X166736000Y-74946000D02*
X166736000Y-76946000D01*
X166736000Y-76946000D02*
X165496000Y-76946000D01*
G04 #@! TO.C,C6*
X166736000Y-73644000D02*
X165496000Y-73644000D01*
X166736000Y-71644000D02*
X166736000Y-73644000D01*
X165496000Y-71644000D02*
X166736000Y-71644000D01*
X165496000Y-73644000D02*
X165496000Y-71644000D01*
G04 #@! TO.C,R3*
X157750000Y-119776000D02*
X159750000Y-119776000D01*
X159750000Y-119776000D02*
X159750000Y-121016000D01*
X159750000Y-121016000D02*
X157750000Y-121016000D01*
X157750000Y-121016000D02*
X157750000Y-119776000D01*
G04 #@! TO.C,R4*
X157750000Y-117206000D02*
X157750000Y-115966000D01*
X159750000Y-117206000D02*
X157750000Y-117206000D01*
X159750000Y-115966000D02*
X159750000Y-117206000D01*
X157750000Y-115966000D02*
X159750000Y-115966000D01*
G04 #@! TO.C,R5*
X146670000Y-99504000D02*
X146670000Y-101504000D01*
X146670000Y-101504000D02*
X145430000Y-101504000D01*
X145430000Y-101504000D02*
X145430000Y-99504000D01*
X145430000Y-99504000D02*
X146670000Y-99504000D01*
G04 #@! TO.C,R6*
X143398000Y-99504000D02*
X144638000Y-99504000D01*
X143398000Y-101504000D02*
X143398000Y-99504000D01*
X144638000Y-101504000D02*
X143398000Y-101504000D01*
X144638000Y-99504000D02*
X144638000Y-101504000D01*
G04 #@! TO.C,R7*
X142606000Y-99504000D02*
X142606000Y-101504000D01*
X142606000Y-101504000D02*
X141366000Y-101504000D01*
X141366000Y-101504000D02*
X141366000Y-99504000D01*
X141366000Y-99504000D02*
X142606000Y-99504000D01*
G04 #@! TO.C,R12*
X160924000Y-114570000D02*
X162164000Y-114570000D01*
X160924000Y-116570000D02*
X160924000Y-114570000D01*
X162164000Y-116570000D02*
X160924000Y-116570000D01*
X162164000Y-114570000D02*
X162164000Y-116570000D01*
G04 #@! TO.C,R13*
X157750000Y-111902000D02*
X159750000Y-111902000D01*
X159750000Y-111902000D02*
X159750000Y-113142000D01*
X159750000Y-113142000D02*
X157750000Y-113142000D01*
X157750000Y-113142000D02*
X157750000Y-111902000D01*
G04 #@! TO.C,R14*
X157750000Y-111110000D02*
X157750000Y-109870000D01*
X159750000Y-111110000D02*
X157750000Y-111110000D01*
X159750000Y-109870000D02*
X159750000Y-111110000D01*
X157750000Y-109870000D02*
X159750000Y-109870000D01*
G04 #@! TO.C,R15*
X159750000Y-109078000D02*
X157750000Y-109078000D01*
X157750000Y-109078000D02*
X157750000Y-107838000D01*
X157750000Y-107838000D02*
X159750000Y-107838000D01*
X159750000Y-107838000D02*
X159750000Y-109078000D01*
G04 #@! TO.C,R8*
X155560000Y-84852000D02*
X155560000Y-86852000D01*
X155560000Y-86852000D02*
X154320000Y-86852000D01*
X154320000Y-86852000D02*
X154320000Y-84852000D01*
X154320000Y-84852000D02*
X155560000Y-84852000D01*
G04 #@! TO.C,R9*
X154320000Y-72152000D02*
X155560000Y-72152000D01*
X154320000Y-74152000D02*
X154320000Y-72152000D01*
X155560000Y-74152000D02*
X154320000Y-74152000D01*
X155560000Y-72152000D02*
X155560000Y-74152000D01*
G04 #@! TO.C,R10*
X147432000Y-74184000D02*
X147432000Y-76184000D01*
X147432000Y-76184000D02*
X146192000Y-76184000D01*
X146192000Y-76184000D02*
X146192000Y-74184000D01*
X146192000Y-74184000D02*
X147432000Y-74184000D01*
G04 #@! TO.C,R11*
X125080000Y-111903000D02*
X125080000Y-113903000D01*
X125080000Y-113903000D02*
X123840000Y-113903000D01*
X123840000Y-113903000D02*
X123840000Y-111903000D01*
X123840000Y-111903000D02*
X125080000Y-111903000D01*
G04 #@! TO.C,R16*
X127269000Y-111903000D02*
X128509000Y-111903000D01*
X127269000Y-113903000D02*
X127269000Y-111903000D01*
X128509000Y-113903000D02*
X127269000Y-113903000D01*
X128509000Y-111903000D02*
X128509000Y-113903000D01*
G04 #@! TO.C,D2*
X124860000Y-108439000D02*
X124060000Y-108439000D01*
X124460000Y-108439000D02*
X124860000Y-109039000D01*
X124060000Y-109039000D02*
X124460000Y-108439000D01*
X124860000Y-109039000D02*
X124060000Y-109039000D01*
X123840000Y-107839000D02*
X125080000Y-107839000D01*
X123840000Y-109839000D02*
X123840000Y-107839000D01*
X125080000Y-109839000D02*
X123840000Y-109839000D01*
X125080000Y-107839000D02*
X125080000Y-109839000D01*
G04 #@! TO.C,D3*
X128509000Y-107839000D02*
X128509000Y-109839000D01*
X128509000Y-109839000D02*
X127269000Y-109839000D01*
X127269000Y-109839000D02*
X127269000Y-107839000D01*
X127269000Y-107839000D02*
X128509000Y-107839000D01*
X128289000Y-109039000D02*
X127489000Y-109039000D01*
X127489000Y-109039000D02*
X127889000Y-108439000D01*
X127889000Y-108439000D02*
X128289000Y-109039000D01*
X128289000Y-108439000D02*
X127489000Y-108439000D01*
G04 #@! TO.C,C12*
X161864800Y-81320400D02*
X163864800Y-81320400D01*
X163864800Y-81320400D02*
X163864800Y-82560400D01*
X163864800Y-82560400D02*
X161864800Y-82560400D01*
X161864800Y-82560400D02*
X161864800Y-81320400D01*
G04 #@! TD*
G04 #@! TO.C,C11*
D11*
X168223142Y-85034476D02*
X168270761Y-85082095D01*
X168318380Y-85224952D01*
X168318380Y-85320190D01*
X168270761Y-85463047D01*
X168175523Y-85558285D01*
X168080285Y-85605904D01*
X167889809Y-85653523D01*
X167746952Y-85653523D01*
X167556476Y-85605904D01*
X167461238Y-85558285D01*
X167366000Y-85463047D01*
X167318380Y-85320190D01*
X167318380Y-85224952D01*
X167366000Y-85082095D01*
X167413619Y-85034476D01*
D13*
X166294571Y-85665428D02*
X166318380Y-85689238D01*
X166342190Y-85760666D01*
X166342190Y-85808285D01*
X166318380Y-85879714D01*
X166270761Y-85927333D01*
X166223142Y-85951142D01*
X166127904Y-85974952D01*
X166056476Y-85974952D01*
X165961238Y-85951142D01*
X165913619Y-85927333D01*
X165866000Y-85879714D01*
X165842190Y-85808285D01*
X165842190Y-85760666D01*
X165866000Y-85689238D01*
X165889809Y-85665428D01*
X166342190Y-85189238D02*
X166342190Y-85474952D01*
X166342190Y-85332095D02*
X165842190Y-85332095D01*
X165913619Y-85379714D01*
X165961238Y-85427333D01*
X165985047Y-85474952D01*
X166342190Y-84713047D02*
X166342190Y-84998761D01*
X166342190Y-84855904D02*
X165842190Y-84855904D01*
X165913619Y-84903523D01*
X165961238Y-84951142D01*
X165985047Y-84998761D01*
G04 #@! TO.C,C7*
D11*
X158739523Y-86181142D02*
X158691904Y-86228761D01*
X158549047Y-86276380D01*
X158453809Y-86276380D01*
X158310952Y-86228761D01*
X158215714Y-86133523D01*
X158168095Y-86038285D01*
X158120476Y-85847809D01*
X158120476Y-85704952D01*
X158168095Y-85514476D01*
X158215714Y-85419238D01*
X158310952Y-85324000D01*
X158453809Y-85276380D01*
X158549047Y-85276380D01*
X158691904Y-85324000D01*
X158739523Y-85371619D01*
D13*
X158346666Y-84252571D02*
X158322857Y-84276380D01*
X158251428Y-84300190D01*
X158203809Y-84300190D01*
X158132380Y-84276380D01*
X158084761Y-84228761D01*
X158060952Y-84181142D01*
X158037142Y-84085904D01*
X158037142Y-84014476D01*
X158060952Y-83919238D01*
X158084761Y-83871619D01*
X158132380Y-83824000D01*
X158203809Y-83800190D01*
X158251428Y-83800190D01*
X158322857Y-83824000D01*
X158346666Y-83847809D01*
X158513333Y-83800190D02*
X158846666Y-83800190D01*
X158632380Y-84300190D01*
G04 #@! TO.C,C8*
D11*
X163189523Y-86181142D02*
X163141904Y-86228761D01*
X162999047Y-86276380D01*
X162903809Y-86276380D01*
X162760952Y-86228761D01*
X162665714Y-86133523D01*
X162618095Y-86038285D01*
X162570476Y-85847809D01*
X162570476Y-85704952D01*
X162618095Y-85514476D01*
X162665714Y-85419238D01*
X162760952Y-85324000D01*
X162903809Y-85276380D01*
X162999047Y-85276380D01*
X163141904Y-85324000D01*
X163189523Y-85371619D01*
D13*
X162796666Y-84252571D02*
X162772857Y-84276380D01*
X162701428Y-84300190D01*
X162653809Y-84300190D01*
X162582380Y-84276380D01*
X162534761Y-84228761D01*
X162510952Y-84181142D01*
X162487142Y-84085904D01*
X162487142Y-84014476D01*
X162510952Y-83919238D01*
X162534761Y-83871619D01*
X162582380Y-83824000D01*
X162653809Y-83800190D01*
X162701428Y-83800190D01*
X162772857Y-83824000D01*
X162796666Y-83847809D01*
X163082380Y-84014476D02*
X163034761Y-83990666D01*
X163010952Y-83966857D01*
X162987142Y-83919238D01*
X162987142Y-83895428D01*
X163010952Y-83847809D01*
X163034761Y-83824000D01*
X163082380Y-83800190D01*
X163177619Y-83800190D01*
X163225238Y-83824000D01*
X163249047Y-83847809D01*
X163272857Y-83895428D01*
X163272857Y-83919238D01*
X163249047Y-83966857D01*
X163225238Y-83990666D01*
X163177619Y-84014476D01*
X163082380Y-84014476D01*
X163034761Y-84038285D01*
X163010952Y-84062095D01*
X162987142Y-84109714D01*
X162987142Y-84204952D01*
X163010952Y-84252571D01*
X163034761Y-84276380D01*
X163082380Y-84300190D01*
X163177619Y-84300190D01*
X163225238Y-84276380D01*
X163249047Y-84252571D01*
X163272857Y-84204952D01*
X163272857Y-84109714D01*
X163249047Y-84062095D01*
X163225238Y-84038285D01*
X163177619Y-84014476D01*
G04 #@! TO.C,C9*
D11*
X168223142Y-91638476D02*
X168270761Y-91686095D01*
X168318380Y-91828952D01*
X168318380Y-91924190D01*
X168270761Y-92067047D01*
X168175523Y-92162285D01*
X168080285Y-92209904D01*
X167889809Y-92257523D01*
X167746952Y-92257523D01*
X167556476Y-92209904D01*
X167461238Y-92162285D01*
X167366000Y-92067047D01*
X167318380Y-91924190D01*
X167318380Y-91828952D01*
X167366000Y-91686095D01*
X167413619Y-91638476D01*
D13*
X166294571Y-92031333D02*
X166318380Y-92055142D01*
X166342190Y-92126571D01*
X166342190Y-92174190D01*
X166318380Y-92245619D01*
X166270761Y-92293238D01*
X166223142Y-92317047D01*
X166127904Y-92340857D01*
X166056476Y-92340857D01*
X165961238Y-92317047D01*
X165913619Y-92293238D01*
X165866000Y-92245619D01*
X165842190Y-92174190D01*
X165842190Y-92126571D01*
X165866000Y-92055142D01*
X165889809Y-92031333D01*
X166342190Y-91793238D02*
X166342190Y-91698000D01*
X166318380Y-91650380D01*
X166294571Y-91626571D01*
X166223142Y-91578952D01*
X166127904Y-91555142D01*
X165937428Y-91555142D01*
X165889809Y-91578952D01*
X165866000Y-91602761D01*
X165842190Y-91650380D01*
X165842190Y-91745619D01*
X165866000Y-91793238D01*
X165889809Y-91817047D01*
X165937428Y-91840857D01*
X166056476Y-91840857D01*
X166104095Y-91817047D01*
X166127904Y-91793238D01*
X166151714Y-91745619D01*
X166151714Y-91650380D01*
X166127904Y-91602761D01*
X166104095Y-91578952D01*
X166056476Y-91555142D01*
G04 #@! TO.C,U4*
D11*
X156908952Y-85040380D02*
X156908952Y-84040380D01*
X157242285Y-84754666D01*
X157575619Y-84040380D01*
X157575619Y-85040380D01*
X158004190Y-84754666D02*
X158480380Y-84754666D01*
X157908952Y-85040380D02*
X158242285Y-84040380D01*
X158575619Y-85040380D01*
X158813714Y-84040380D02*
X159480380Y-85040380D01*
X159480380Y-84040380D02*
X158813714Y-85040380D01*
X159766095Y-84040380D02*
X160385142Y-84040380D01*
X160051809Y-84421333D01*
X160194666Y-84421333D01*
X160289904Y-84468952D01*
X160337523Y-84516571D01*
X160385142Y-84611809D01*
X160385142Y-84849904D01*
X160337523Y-84945142D01*
X160289904Y-84992761D01*
X160194666Y-85040380D01*
X159908952Y-85040380D01*
X159813714Y-84992761D01*
X159766095Y-84945142D01*
X161337523Y-85040380D02*
X160766095Y-85040380D01*
X161051809Y-85040380D02*
X161051809Y-84040380D01*
X160956571Y-84183238D01*
X160861333Y-84278476D01*
X160766095Y-84326095D01*
X161908952Y-84468952D02*
X161813714Y-84421333D01*
X161766095Y-84373714D01*
X161718476Y-84278476D01*
X161718476Y-84230857D01*
X161766095Y-84135619D01*
X161813714Y-84088000D01*
X161908952Y-84040380D01*
X162099428Y-84040380D01*
X162194666Y-84088000D01*
X162242285Y-84135619D01*
X162289904Y-84230857D01*
X162289904Y-84278476D01*
X162242285Y-84373714D01*
X162194666Y-84421333D01*
X162099428Y-84468952D01*
X161908952Y-84468952D01*
X161813714Y-84516571D01*
X161766095Y-84564190D01*
X161718476Y-84659428D01*
X161718476Y-84849904D01*
X161766095Y-84945142D01*
X161813714Y-84992761D01*
X161908952Y-85040380D01*
X162099428Y-85040380D01*
X162194666Y-84992761D01*
X162242285Y-84945142D01*
X162289904Y-84849904D01*
X162289904Y-84659428D01*
X162242285Y-84564190D01*
X162194666Y-84516571D01*
X162099428Y-84468952D01*
X163194666Y-84040380D02*
X162718476Y-84040380D01*
X162670857Y-84516571D01*
X162718476Y-84468952D01*
X162813714Y-84421333D01*
X163051809Y-84421333D01*
X163147047Y-84468952D01*
X163194666Y-84516571D01*
X163242285Y-84611809D01*
X163242285Y-84849904D01*
X163194666Y-84945142D01*
X163147047Y-84992761D01*
X163051809Y-85040380D01*
X162813714Y-85040380D01*
X162718476Y-84992761D01*
X162670857Y-84945142D01*
X164099428Y-84040380D02*
X163908952Y-84040380D01*
X163813714Y-84088000D01*
X163766095Y-84135619D01*
X163670857Y-84278476D01*
X163623238Y-84468952D01*
X163623238Y-84849904D01*
X163670857Y-84945142D01*
X163718476Y-84992761D01*
X163813714Y-85040380D01*
X164004190Y-85040380D01*
X164099428Y-84992761D01*
X164147047Y-84945142D01*
X164194666Y-84849904D01*
X164194666Y-84611809D01*
X164147047Y-84516571D01*
X164099428Y-84468952D01*
X164004190Y-84421333D01*
X163813714Y-84421333D01*
X163718476Y-84468952D01*
X163670857Y-84516571D01*
X163623238Y-84611809D01*
X159918476Y-87699904D02*
X159918476Y-88347523D01*
X159956571Y-88423714D01*
X159994666Y-88461809D01*
X160070857Y-88499904D01*
X160223238Y-88499904D01*
X160299428Y-88461809D01*
X160337523Y-88423714D01*
X160375619Y-88347523D01*
X160375619Y-87699904D01*
X161099428Y-87966571D02*
X161099428Y-88499904D01*
X160908952Y-87661809D02*
X160718476Y-88233238D01*
X161213714Y-88233238D01*
G04 #@! TO.C,C10*
X168223142Y-88336476D02*
X168270761Y-88384095D01*
X168318380Y-88526952D01*
X168318380Y-88622190D01*
X168270761Y-88765047D01*
X168175523Y-88860285D01*
X168080285Y-88907904D01*
X167889809Y-88955523D01*
X167746952Y-88955523D01*
X167556476Y-88907904D01*
X167461238Y-88860285D01*
X167366000Y-88765047D01*
X167318380Y-88622190D01*
X167318380Y-88526952D01*
X167366000Y-88384095D01*
X167413619Y-88336476D01*
D13*
X166294571Y-88967428D02*
X166318380Y-88991238D01*
X166342190Y-89062666D01*
X166342190Y-89110285D01*
X166318380Y-89181714D01*
X166270761Y-89229333D01*
X166223142Y-89253142D01*
X166127904Y-89276952D01*
X166056476Y-89276952D01*
X165961238Y-89253142D01*
X165913619Y-89229333D01*
X165866000Y-89181714D01*
X165842190Y-89110285D01*
X165842190Y-89062666D01*
X165866000Y-88991238D01*
X165889809Y-88967428D01*
X166342190Y-88491238D02*
X166342190Y-88776952D01*
X166342190Y-88634095D02*
X165842190Y-88634095D01*
X165913619Y-88681714D01*
X165961238Y-88729333D01*
X165985047Y-88776952D01*
X165842190Y-88181714D02*
X165842190Y-88134095D01*
X165866000Y-88086476D01*
X165889809Y-88062666D01*
X165937428Y-88038857D01*
X166032666Y-88015047D01*
X166151714Y-88015047D01*
X166246952Y-88038857D01*
X166294571Y-88062666D01*
X166318380Y-88086476D01*
X166342190Y-88134095D01*
X166342190Y-88181714D01*
X166318380Y-88229333D01*
X166294571Y-88253142D01*
X166246952Y-88276952D01*
X166151714Y-88300761D01*
X166032666Y-88300761D01*
X165937428Y-88276952D01*
X165889809Y-88253142D01*
X165866000Y-88229333D01*
X165842190Y-88181714D01*
G04 #@! TO.C,J4*
D11*
X125294285Y-104707142D02*
X125246666Y-104754761D01*
X125103809Y-104802380D01*
X125008571Y-104802380D01*
X124865714Y-104754761D01*
X124770476Y-104659523D01*
X124722857Y-104564285D01*
X124675238Y-104373809D01*
X124675238Y-104230952D01*
X124722857Y-104040476D01*
X124770476Y-103945238D01*
X124865714Y-103850000D01*
X125008571Y-103802380D01*
X125103809Y-103802380D01*
X125246666Y-103850000D01*
X125294285Y-103897619D01*
X125865714Y-104802380D02*
X125770476Y-104754761D01*
X125722857Y-104707142D01*
X125675238Y-104611904D01*
X125675238Y-104326190D01*
X125722857Y-104230952D01*
X125770476Y-104183333D01*
X125865714Y-104135714D01*
X126008571Y-104135714D01*
X126103809Y-104183333D01*
X126151428Y-104230952D01*
X126199047Y-104326190D01*
X126199047Y-104611904D01*
X126151428Y-104707142D01*
X126103809Y-104754761D01*
X126008571Y-104802380D01*
X125865714Y-104802380D01*
X126627619Y-104135714D02*
X126627619Y-104802380D01*
X126627619Y-104230952D02*
X126675238Y-104183333D01*
X126770476Y-104135714D01*
X126913333Y-104135714D01*
X127008571Y-104183333D01*
X127056190Y-104278571D01*
X127056190Y-104802380D01*
X127532380Y-104135714D02*
X127532380Y-104802380D01*
X127532380Y-104230952D02*
X127580000Y-104183333D01*
X127675238Y-104135714D01*
X127818095Y-104135714D01*
X127913333Y-104183333D01*
X127960952Y-104278571D01*
X127960952Y-104802380D01*
X128199047Y-104897619D02*
X128960952Y-104897619D01*
X129389523Y-103802380D02*
X129484761Y-103802380D01*
X129580000Y-103850000D01*
X129627619Y-103897619D01*
X129675238Y-103992857D01*
X129722857Y-104183333D01*
X129722857Y-104421428D01*
X129675238Y-104611904D01*
X129627619Y-104707142D01*
X129580000Y-104754761D01*
X129484761Y-104802380D01*
X129389523Y-104802380D01*
X129294285Y-104754761D01*
X129246666Y-104707142D01*
X129199047Y-104611904D01*
X129151428Y-104421428D01*
X129151428Y-104183333D01*
X129199047Y-103992857D01*
X129246666Y-103897619D01*
X129294285Y-103850000D01*
X129389523Y-103802380D01*
X130675238Y-104802380D02*
X130103809Y-104802380D01*
X130389523Y-104802380D02*
X130389523Y-103802380D01*
X130294285Y-103945238D01*
X130199047Y-104040476D01*
X130103809Y-104088095D01*
X131008571Y-104802380D02*
X131532380Y-104135714D01*
X131008571Y-104135714D02*
X131532380Y-104802380D01*
X132103809Y-103802380D02*
X132199047Y-103802380D01*
X132294285Y-103850000D01*
X132341904Y-103897619D01*
X132389523Y-103992857D01*
X132437142Y-104183333D01*
X132437142Y-104421428D01*
X132389523Y-104611904D01*
X132341904Y-104707142D01*
X132294285Y-104754761D01*
X132199047Y-104802380D01*
X132103809Y-104802380D01*
X132008571Y-104754761D01*
X131960952Y-104707142D01*
X131913333Y-104611904D01*
X131865714Y-104421428D01*
X131865714Y-104183333D01*
X131913333Y-103992857D01*
X131960952Y-103897619D01*
X132008571Y-103850000D01*
X132103809Y-103802380D01*
X133294285Y-103802380D02*
X133103809Y-103802380D01*
X133008571Y-103850000D01*
X132960952Y-103897619D01*
X132865714Y-104040476D01*
X132818095Y-104230952D01*
X132818095Y-104611904D01*
X132865714Y-104707142D01*
X132913333Y-104754761D01*
X133008571Y-104802380D01*
X133199047Y-104802380D01*
X133294285Y-104754761D01*
X133341904Y-104707142D01*
X133389523Y-104611904D01*
X133389523Y-104373809D01*
X133341904Y-104278571D01*
X133294285Y-104230952D01*
X133199047Y-104183333D01*
X133008571Y-104183333D01*
X132913333Y-104230952D01*
X132865714Y-104278571D01*
X132818095Y-104373809D01*
X133580000Y-104897619D02*
X134341904Y-104897619D01*
X134913333Y-104278571D02*
X134580000Y-104278571D01*
X134580000Y-104802380D02*
X134580000Y-103802380D01*
X135056190Y-103802380D01*
X135818095Y-104754761D02*
X135722857Y-104802380D01*
X135532380Y-104802380D01*
X135437142Y-104754761D01*
X135389523Y-104659523D01*
X135389523Y-104278571D01*
X135437142Y-104183333D01*
X135532380Y-104135714D01*
X135722857Y-104135714D01*
X135818095Y-104183333D01*
X135865714Y-104278571D01*
X135865714Y-104373809D01*
X135389523Y-104469047D01*
X136294285Y-104802380D02*
X136294285Y-104135714D01*
X136294285Y-104230952D02*
X136341904Y-104183333D01*
X136437142Y-104135714D01*
X136580000Y-104135714D01*
X136675238Y-104183333D01*
X136722857Y-104278571D01*
X136722857Y-104802380D01*
X136722857Y-104278571D02*
X136770476Y-104183333D01*
X136865714Y-104135714D01*
X137008571Y-104135714D01*
X137103809Y-104183333D01*
X137151428Y-104278571D01*
X137151428Y-104802380D01*
X138056190Y-104802380D02*
X138056190Y-104278571D01*
X138008571Y-104183333D01*
X137913333Y-104135714D01*
X137722857Y-104135714D01*
X137627619Y-104183333D01*
X138056190Y-104754761D02*
X137960952Y-104802380D01*
X137722857Y-104802380D01*
X137627619Y-104754761D01*
X137580000Y-104659523D01*
X137580000Y-104564285D01*
X137627619Y-104469047D01*
X137722857Y-104421428D01*
X137960952Y-104421428D01*
X138056190Y-104373809D01*
X138675238Y-104802380D02*
X138580000Y-104754761D01*
X138532380Y-104659523D01*
X138532380Y-103802380D01*
X139437142Y-104754761D02*
X139341904Y-104802380D01*
X139151428Y-104802380D01*
X139056190Y-104754761D01*
X139008571Y-104659523D01*
X139008571Y-104278571D01*
X139056190Y-104183333D01*
X139151428Y-104135714D01*
X139341904Y-104135714D01*
X139437142Y-104183333D01*
X139484761Y-104278571D01*
X139484761Y-104373809D01*
X139008571Y-104469047D01*
X131532380Y-113363333D02*
X132246666Y-113363333D01*
X132389523Y-113410952D01*
X132484761Y-113506190D01*
X132532380Y-113649047D01*
X132532380Y-113744285D01*
X131865714Y-112458571D02*
X132532380Y-112458571D01*
X131484761Y-112696666D02*
X132199047Y-112934761D01*
X132199047Y-112315714D01*
G04 #@! TO.C,U1*
X154674380Y-71143333D02*
X153674380Y-71143333D01*
X154388666Y-70810000D01*
X153674380Y-70476666D01*
X154674380Y-70476666D01*
X153674380Y-69810000D02*
X153674380Y-69619523D01*
X153722000Y-69524285D01*
X153817238Y-69429047D01*
X154007714Y-69381428D01*
X154341047Y-69381428D01*
X154531523Y-69429047D01*
X154626761Y-69524285D01*
X154674380Y-69619523D01*
X154674380Y-69810000D01*
X154626761Y-69905238D01*
X154531523Y-70000476D01*
X154341047Y-70048095D01*
X154007714Y-70048095D01*
X153817238Y-70000476D01*
X153722000Y-69905238D01*
X153674380Y-69810000D01*
X154579142Y-68381428D02*
X154626761Y-68429047D01*
X154674380Y-68571904D01*
X154674380Y-68667142D01*
X154626761Y-68810000D01*
X154531523Y-68905238D01*
X154436285Y-68952857D01*
X154245809Y-69000476D01*
X154102952Y-69000476D01*
X153912476Y-68952857D01*
X153817238Y-68905238D01*
X153722000Y-68810000D01*
X153674380Y-68667142D01*
X153674380Y-68571904D01*
X153722000Y-68429047D01*
X153769619Y-68381428D01*
X153674380Y-68048095D02*
X153674380Y-67429047D01*
X154055333Y-67762380D01*
X154055333Y-67619523D01*
X154102952Y-67524285D01*
X154150571Y-67476666D01*
X154245809Y-67429047D01*
X154483904Y-67429047D01*
X154579142Y-67476666D01*
X154626761Y-67524285D01*
X154674380Y-67619523D01*
X154674380Y-67905238D01*
X154626761Y-68000476D01*
X154579142Y-68048095D01*
X153674380Y-66810000D02*
X153674380Y-66714761D01*
X153722000Y-66619523D01*
X153769619Y-66571904D01*
X153864857Y-66524285D01*
X154055333Y-66476666D01*
X154293428Y-66476666D01*
X154483904Y-66524285D01*
X154579142Y-66571904D01*
X154626761Y-66619523D01*
X154674380Y-66714761D01*
X154674380Y-66810000D01*
X154626761Y-66905238D01*
X154579142Y-66952857D01*
X154483904Y-67000476D01*
X154293428Y-67048095D01*
X154055333Y-67048095D01*
X153864857Y-67000476D01*
X153769619Y-66952857D01*
X153722000Y-66905238D01*
X153674380Y-66810000D01*
X153674380Y-65619523D02*
X153674380Y-65810000D01*
X153722000Y-65905238D01*
X153769619Y-65952857D01*
X153912476Y-66048095D01*
X154102952Y-66095714D01*
X154483904Y-66095714D01*
X154579142Y-66048095D01*
X154626761Y-66000476D01*
X154674380Y-65905238D01*
X154674380Y-65714761D01*
X154626761Y-65619523D01*
X154579142Y-65571904D01*
X154483904Y-65524285D01*
X154245809Y-65524285D01*
X154150571Y-65571904D01*
X154102952Y-65619523D01*
X154055333Y-65714761D01*
X154055333Y-65905238D01*
X154102952Y-66000476D01*
X154150571Y-66048095D01*
X154245809Y-66095714D01*
X153674380Y-65190952D02*
X153674380Y-64571904D01*
X154055333Y-64905238D01*
X154055333Y-64762380D01*
X154102952Y-64667142D01*
X154150571Y-64619523D01*
X154245809Y-64571904D01*
X154483904Y-64571904D01*
X154579142Y-64619523D01*
X154626761Y-64667142D01*
X154674380Y-64762380D01*
X154674380Y-65048095D01*
X154626761Y-65143333D01*
X154579142Y-65190952D01*
X154674380Y-64143333D02*
X153674380Y-64143333D01*
X154388666Y-63810000D01*
X153674380Y-63476666D01*
X154674380Y-63476666D01*
X148804380Y-68071904D02*
X149613904Y-68071904D01*
X149709142Y-68024285D01*
X149756761Y-67976666D01*
X149804380Y-67881428D01*
X149804380Y-67690952D01*
X149756761Y-67595714D01*
X149709142Y-67548095D01*
X149613904Y-67500476D01*
X148804380Y-67500476D01*
X149804380Y-66500476D02*
X149804380Y-67071904D01*
X149804380Y-66786190D02*
X148804380Y-66786190D01*
X148947238Y-66881428D01*
X149042476Y-66976666D01*
X149090095Y-67071904D01*
G04 #@! TO.C,R1*
X150169523Y-56562380D02*
X149836190Y-56086190D01*
X149598095Y-56562380D02*
X149598095Y-55562380D01*
X149979047Y-55562380D01*
X150074285Y-55610000D01*
X150121904Y-55657619D01*
X150169523Y-55752857D01*
X150169523Y-55895714D01*
X150121904Y-55990952D01*
X150074285Y-56038571D01*
X149979047Y-56086190D01*
X149598095Y-56086190D01*
G04 #@! TO.C,R2*
X151439523Y-45942380D02*
X151106190Y-45466190D01*
X150868095Y-45942380D02*
X150868095Y-44942380D01*
X151249047Y-44942380D01*
X151344285Y-44990000D01*
X151391904Y-45037619D01*
X151439523Y-45132857D01*
X151439523Y-45275714D01*
X151391904Y-45370952D01*
X151344285Y-45418571D01*
X151249047Y-45466190D01*
X150868095Y-45466190D01*
G04 #@! TO.C,U2*
D14*
X123710714Y-82423000D02*
X122948714Y-82423000D01*
X123311571Y-82423000D02*
X123311571Y-81987571D01*
X123710714Y-81987571D02*
X122948714Y-81987571D01*
X123710714Y-81261857D02*
X123710714Y-81624714D01*
X122948714Y-81624714D01*
X123710714Y-81007857D02*
X122948714Y-81007857D01*
X123710714Y-80572428D02*
X123275285Y-80899000D01*
X122948714Y-80572428D02*
X123384142Y-81007857D01*
X123420428Y-80245857D02*
X123420428Y-79665285D01*
X123710714Y-79302428D02*
X122948714Y-79302428D01*
X122948714Y-79012142D01*
X122985000Y-78939571D01*
X123021285Y-78903285D01*
X123093857Y-78867000D01*
X123202714Y-78867000D01*
X123275285Y-78903285D01*
X123311571Y-78939571D01*
X123347857Y-79012142D01*
X123347857Y-79302428D01*
X123710714Y-78540428D02*
X122948714Y-78540428D01*
X123493000Y-78286428D01*
X122948714Y-78032428D01*
X123710714Y-78032428D01*
X122948714Y-77524428D02*
X122948714Y-77451857D01*
X122985000Y-77379285D01*
X123021285Y-77343000D01*
X123093857Y-77306714D01*
X123239000Y-77270428D01*
X123420428Y-77270428D01*
X123565571Y-77306714D01*
X123638142Y-77343000D01*
X123674428Y-77379285D01*
X123710714Y-77451857D01*
X123710714Y-77524428D01*
X123674428Y-77597000D01*
X123638142Y-77633285D01*
X123565571Y-77669571D01*
X123420428Y-77705857D01*
X123239000Y-77705857D01*
X123093857Y-77669571D01*
X123021285Y-77633285D01*
X122985000Y-77597000D01*
X122948714Y-77524428D01*
X122948714Y-77016428D02*
X122948714Y-76544714D01*
X123239000Y-76798714D01*
X123239000Y-76689857D01*
X123275285Y-76617285D01*
X123311571Y-76581000D01*
X123384142Y-76544714D01*
X123565571Y-76544714D01*
X123638142Y-76581000D01*
X123674428Y-76617285D01*
X123710714Y-76689857D01*
X123710714Y-76907571D01*
X123674428Y-76980142D01*
X123638142Y-77016428D01*
G04 #@! TO.C,J3*
D11*
X178709142Y-106607714D02*
X178756761Y-106655333D01*
X178804380Y-106798190D01*
X178804380Y-106893428D01*
X178756761Y-107036285D01*
X178661523Y-107131523D01*
X178566285Y-107179142D01*
X178375809Y-107226761D01*
X178232952Y-107226761D01*
X178042476Y-107179142D01*
X177947238Y-107131523D01*
X177852000Y-107036285D01*
X177804380Y-106893428D01*
X177804380Y-106798190D01*
X177852000Y-106655333D01*
X177899619Y-106607714D01*
X178804380Y-106036285D02*
X178756761Y-106131523D01*
X178709142Y-106179142D01*
X178613904Y-106226761D01*
X178328190Y-106226761D01*
X178232952Y-106179142D01*
X178185333Y-106131523D01*
X178137714Y-106036285D01*
X178137714Y-105893428D01*
X178185333Y-105798190D01*
X178232952Y-105750571D01*
X178328190Y-105702952D01*
X178613904Y-105702952D01*
X178709142Y-105750571D01*
X178756761Y-105798190D01*
X178804380Y-105893428D01*
X178804380Y-106036285D01*
X178137714Y-105274380D02*
X178804380Y-105274380D01*
X178232952Y-105274380D02*
X178185333Y-105226761D01*
X178137714Y-105131523D01*
X178137714Y-104988666D01*
X178185333Y-104893428D01*
X178280571Y-104845809D01*
X178804380Y-104845809D01*
X178137714Y-104369619D02*
X178804380Y-104369619D01*
X178232952Y-104369619D02*
X178185333Y-104322000D01*
X178137714Y-104226761D01*
X178137714Y-104083904D01*
X178185333Y-103988666D01*
X178280571Y-103941047D01*
X178804380Y-103941047D01*
X178899619Y-103702952D02*
X178899619Y-102941047D01*
X177804380Y-102512476D02*
X177804380Y-102417238D01*
X177852000Y-102322000D01*
X177899619Y-102274380D01*
X177994857Y-102226761D01*
X178185333Y-102179142D01*
X178423428Y-102179142D01*
X178613904Y-102226761D01*
X178709142Y-102274380D01*
X178756761Y-102322000D01*
X178804380Y-102417238D01*
X178804380Y-102512476D01*
X178756761Y-102607714D01*
X178709142Y-102655333D01*
X178613904Y-102702952D01*
X178423428Y-102750571D01*
X178185333Y-102750571D01*
X177994857Y-102702952D01*
X177899619Y-102655333D01*
X177852000Y-102607714D01*
X177804380Y-102512476D01*
X178804380Y-101226761D02*
X178804380Y-101798190D01*
X178804380Y-101512476D02*
X177804380Y-101512476D01*
X177947238Y-101607714D01*
X178042476Y-101702952D01*
X178090095Y-101798190D01*
X178804380Y-100893428D02*
X178137714Y-100369619D01*
X178137714Y-100893428D02*
X178804380Y-100369619D01*
X177804380Y-99798190D02*
X177804380Y-99702952D01*
X177852000Y-99607714D01*
X177899619Y-99560095D01*
X177994857Y-99512476D01*
X178185333Y-99464857D01*
X178423428Y-99464857D01*
X178613904Y-99512476D01*
X178709142Y-99560095D01*
X178756761Y-99607714D01*
X178804380Y-99702952D01*
X178804380Y-99798190D01*
X178756761Y-99893428D01*
X178709142Y-99941047D01*
X178613904Y-99988666D01*
X178423428Y-100036285D01*
X178185333Y-100036285D01*
X177994857Y-99988666D01*
X177899619Y-99941047D01*
X177852000Y-99893428D01*
X177804380Y-99798190D01*
X177804380Y-98607714D02*
X177804380Y-98798190D01*
X177852000Y-98893428D01*
X177899619Y-98941047D01*
X178042476Y-99036285D01*
X178232952Y-99083904D01*
X178613904Y-99083904D01*
X178709142Y-99036285D01*
X178756761Y-98988666D01*
X178804380Y-98893428D01*
X178804380Y-98702952D01*
X178756761Y-98607714D01*
X178709142Y-98560095D01*
X178613904Y-98512476D01*
X178375809Y-98512476D01*
X178280571Y-98560095D01*
X178232952Y-98607714D01*
X178185333Y-98702952D01*
X178185333Y-98893428D01*
X178232952Y-98988666D01*
X178280571Y-99036285D01*
X178375809Y-99083904D01*
X178899619Y-98322000D02*
X178899619Y-97560095D01*
X178280571Y-96988666D02*
X178280571Y-97322000D01*
X178804380Y-97322000D02*
X177804380Y-97322000D01*
X177804380Y-96845809D01*
X178756761Y-96083904D02*
X178804380Y-96179142D01*
X178804380Y-96369619D01*
X178756761Y-96464857D01*
X178661523Y-96512476D01*
X178280571Y-96512476D01*
X178185333Y-96464857D01*
X178137714Y-96369619D01*
X178137714Y-96179142D01*
X178185333Y-96083904D01*
X178280571Y-96036285D01*
X178375809Y-96036285D01*
X178471047Y-96512476D01*
X178804380Y-95607714D02*
X178137714Y-95607714D01*
X178232952Y-95607714D02*
X178185333Y-95560095D01*
X178137714Y-95464857D01*
X178137714Y-95322000D01*
X178185333Y-95226761D01*
X178280571Y-95179142D01*
X178804380Y-95179142D01*
X178280571Y-95179142D02*
X178185333Y-95131523D01*
X178137714Y-95036285D01*
X178137714Y-94893428D01*
X178185333Y-94798190D01*
X178280571Y-94750571D01*
X178804380Y-94750571D01*
X178804380Y-93845809D02*
X178280571Y-93845809D01*
X178185333Y-93893428D01*
X178137714Y-93988666D01*
X178137714Y-94179142D01*
X178185333Y-94274380D01*
X178756761Y-93845809D02*
X178804380Y-93941047D01*
X178804380Y-94179142D01*
X178756761Y-94274380D01*
X178661523Y-94322000D01*
X178566285Y-94322000D01*
X178471047Y-94274380D01*
X178423428Y-94179142D01*
X178423428Y-93941047D01*
X178375809Y-93845809D01*
X178804380Y-93226761D02*
X178756761Y-93322000D01*
X178661523Y-93369619D01*
X177804380Y-93369619D01*
X178756761Y-92464857D02*
X178804380Y-92560095D01*
X178804380Y-92750571D01*
X178756761Y-92845809D01*
X178661523Y-92893428D01*
X178280571Y-92893428D01*
X178185333Y-92845809D01*
X178137714Y-92750571D01*
X178137714Y-92560095D01*
X178185333Y-92464857D01*
X178280571Y-92417238D01*
X178375809Y-92417238D01*
X178471047Y-92893428D01*
X169338666Y-99274380D02*
X169338666Y-99988666D01*
X169291047Y-100131523D01*
X169195809Y-100226761D01*
X169052952Y-100274380D01*
X168957714Y-100274380D01*
X169719619Y-99274380D02*
X170338666Y-99274380D01*
X170005333Y-99655333D01*
X170148190Y-99655333D01*
X170243428Y-99702952D01*
X170291047Y-99750571D01*
X170338666Y-99845809D01*
X170338666Y-100083904D01*
X170291047Y-100179142D01*
X170243428Y-100226761D01*
X170148190Y-100274380D01*
X169862476Y-100274380D01*
X169767238Y-100226761D01*
X169719619Y-100179142D01*
G04 #@! TO.C,C1*
X160425142Y-97226476D02*
X160472761Y-97274095D01*
X160520380Y-97416952D01*
X160520380Y-97512190D01*
X160472761Y-97655047D01*
X160377523Y-97750285D01*
X160282285Y-97797904D01*
X160091809Y-97845523D01*
X159948952Y-97845523D01*
X159758476Y-97797904D01*
X159663238Y-97750285D01*
X159568000Y-97655047D01*
X159520380Y-97512190D01*
X159520380Y-97416952D01*
X159568000Y-97274095D01*
X159615619Y-97226476D01*
X157075142Y-97702666D02*
X157122761Y-97750285D01*
X157170380Y-97893142D01*
X157170380Y-97988380D01*
X157122761Y-98131238D01*
X157027523Y-98226476D01*
X156932285Y-98274095D01*
X156741809Y-98321714D01*
X156598952Y-98321714D01*
X156408476Y-98274095D01*
X156313238Y-98226476D01*
X156218000Y-98131238D01*
X156170380Y-97988380D01*
X156170380Y-97893142D01*
X156218000Y-97750285D01*
X156265619Y-97702666D01*
X157170380Y-96750285D02*
X157170380Y-97321714D01*
X157170380Y-97036000D02*
X156170380Y-97036000D01*
X156313238Y-97131238D01*
X156408476Y-97226476D01*
X156456095Y-97321714D01*
G04 #@! TO.C,J5*
X178709142Y-113211714D02*
X178756761Y-113259333D01*
X178804380Y-113402190D01*
X178804380Y-113497428D01*
X178756761Y-113640285D01*
X178661523Y-113735523D01*
X178566285Y-113783142D01*
X178375809Y-113830761D01*
X178232952Y-113830761D01*
X178042476Y-113783142D01*
X177947238Y-113735523D01*
X177852000Y-113640285D01*
X177804380Y-113497428D01*
X177804380Y-113402190D01*
X177852000Y-113259333D01*
X177899619Y-113211714D01*
X178804380Y-112640285D02*
X178756761Y-112735523D01*
X178709142Y-112783142D01*
X178613904Y-112830761D01*
X178328190Y-112830761D01*
X178232952Y-112783142D01*
X178185333Y-112735523D01*
X178137714Y-112640285D01*
X178137714Y-112497428D01*
X178185333Y-112402190D01*
X178232952Y-112354571D01*
X178328190Y-112306952D01*
X178613904Y-112306952D01*
X178709142Y-112354571D01*
X178756761Y-112402190D01*
X178804380Y-112497428D01*
X178804380Y-112640285D01*
X178137714Y-111878380D02*
X178804380Y-111878380D01*
X178232952Y-111878380D02*
X178185333Y-111830761D01*
X178137714Y-111735523D01*
X178137714Y-111592666D01*
X178185333Y-111497428D01*
X178280571Y-111449809D01*
X178804380Y-111449809D01*
X178137714Y-110973619D02*
X178804380Y-110973619D01*
X178232952Y-110973619D02*
X178185333Y-110926000D01*
X178137714Y-110830761D01*
X178137714Y-110687904D01*
X178185333Y-110592666D01*
X178280571Y-110545047D01*
X178804380Y-110545047D01*
X178899619Y-110306952D02*
X178899619Y-109545047D01*
X177804380Y-109116476D02*
X177804380Y-109021238D01*
X177852000Y-108926000D01*
X177899619Y-108878380D01*
X177994857Y-108830761D01*
X178185333Y-108783142D01*
X178423428Y-108783142D01*
X178613904Y-108830761D01*
X178709142Y-108878380D01*
X178756761Y-108926000D01*
X178804380Y-109021238D01*
X178804380Y-109116476D01*
X178756761Y-109211714D01*
X178709142Y-109259333D01*
X178613904Y-109306952D01*
X178423428Y-109354571D01*
X178185333Y-109354571D01*
X177994857Y-109306952D01*
X177899619Y-109259333D01*
X177852000Y-109211714D01*
X177804380Y-109116476D01*
X178804380Y-107830761D02*
X178804380Y-108402190D01*
X178804380Y-108116476D02*
X177804380Y-108116476D01*
X177947238Y-108211714D01*
X178042476Y-108306952D01*
X178090095Y-108402190D01*
X178804380Y-107497428D02*
X178137714Y-106973619D01*
X178137714Y-107497428D02*
X178804380Y-106973619D01*
X177804380Y-106402190D02*
X177804380Y-106306952D01*
X177852000Y-106211714D01*
X177899619Y-106164095D01*
X177994857Y-106116476D01*
X178185333Y-106068857D01*
X178423428Y-106068857D01*
X178613904Y-106116476D01*
X178709142Y-106164095D01*
X178756761Y-106211714D01*
X178804380Y-106306952D01*
X178804380Y-106402190D01*
X178756761Y-106497428D01*
X178709142Y-106545047D01*
X178613904Y-106592666D01*
X178423428Y-106640285D01*
X178185333Y-106640285D01*
X177994857Y-106592666D01*
X177899619Y-106545047D01*
X177852000Y-106497428D01*
X177804380Y-106402190D01*
X177804380Y-105211714D02*
X177804380Y-105402190D01*
X177852000Y-105497428D01*
X177899619Y-105545047D01*
X178042476Y-105640285D01*
X178232952Y-105687904D01*
X178613904Y-105687904D01*
X178709142Y-105640285D01*
X178756761Y-105592666D01*
X178804380Y-105497428D01*
X178804380Y-105306952D01*
X178756761Y-105211714D01*
X178709142Y-105164095D01*
X178613904Y-105116476D01*
X178375809Y-105116476D01*
X178280571Y-105164095D01*
X178232952Y-105211714D01*
X178185333Y-105306952D01*
X178185333Y-105497428D01*
X178232952Y-105592666D01*
X178280571Y-105640285D01*
X178375809Y-105687904D01*
X178899619Y-104926000D02*
X178899619Y-104164095D01*
X178280571Y-103592666D02*
X178280571Y-103926000D01*
X178804380Y-103926000D02*
X177804380Y-103926000D01*
X177804380Y-103449809D01*
X178756761Y-102687904D02*
X178804380Y-102783142D01*
X178804380Y-102973619D01*
X178756761Y-103068857D01*
X178661523Y-103116476D01*
X178280571Y-103116476D01*
X178185333Y-103068857D01*
X178137714Y-102973619D01*
X178137714Y-102783142D01*
X178185333Y-102687904D01*
X178280571Y-102640285D01*
X178375809Y-102640285D01*
X178471047Y-103116476D01*
X178804380Y-102211714D02*
X178137714Y-102211714D01*
X178232952Y-102211714D02*
X178185333Y-102164095D01*
X178137714Y-102068857D01*
X178137714Y-101926000D01*
X178185333Y-101830761D01*
X178280571Y-101783142D01*
X178804380Y-101783142D01*
X178280571Y-101783142D02*
X178185333Y-101735523D01*
X178137714Y-101640285D01*
X178137714Y-101497428D01*
X178185333Y-101402190D01*
X178280571Y-101354571D01*
X178804380Y-101354571D01*
X178804380Y-100449809D02*
X178280571Y-100449809D01*
X178185333Y-100497428D01*
X178137714Y-100592666D01*
X178137714Y-100783142D01*
X178185333Y-100878380D01*
X178756761Y-100449809D02*
X178804380Y-100545047D01*
X178804380Y-100783142D01*
X178756761Y-100878380D01*
X178661523Y-100926000D01*
X178566285Y-100926000D01*
X178471047Y-100878380D01*
X178423428Y-100783142D01*
X178423428Y-100545047D01*
X178375809Y-100449809D01*
X178804380Y-99830761D02*
X178756761Y-99926000D01*
X178661523Y-99973619D01*
X177804380Y-99973619D01*
X178756761Y-99068857D02*
X178804380Y-99164095D01*
X178804380Y-99354571D01*
X178756761Y-99449809D01*
X178661523Y-99497428D01*
X178280571Y-99497428D01*
X178185333Y-99449809D01*
X178137714Y-99354571D01*
X178137714Y-99164095D01*
X178185333Y-99068857D01*
X178280571Y-99021238D01*
X178375809Y-99021238D01*
X178471047Y-99497428D01*
X169338666Y-105878380D02*
X169338666Y-106592666D01*
X169291047Y-106735523D01*
X169195809Y-106830761D01*
X169052952Y-106878380D01*
X168957714Y-106878380D01*
X170291047Y-105878380D02*
X169814857Y-105878380D01*
X169767238Y-106354571D01*
X169814857Y-106306952D01*
X169910095Y-106259333D01*
X170148190Y-106259333D01*
X170243428Y-106306952D01*
X170291047Y-106354571D01*
X170338666Y-106449809D01*
X170338666Y-106687904D01*
X170291047Y-106783142D01*
X170243428Y-106830761D01*
X170148190Y-106878380D01*
X169910095Y-106878380D01*
X169814857Y-106830761D01*
X169767238Y-106783142D01*
G04 #@! TO.C,U5*
X156908952Y-72340380D02*
X156908952Y-71340380D01*
X157242285Y-72054666D01*
X157575619Y-71340380D01*
X157575619Y-72340380D01*
X158004190Y-72054666D02*
X158480380Y-72054666D01*
X157908952Y-72340380D02*
X158242285Y-71340380D01*
X158575619Y-72340380D01*
X158813714Y-71340380D02*
X159480380Y-72340380D01*
X159480380Y-71340380D02*
X158813714Y-72340380D01*
X159766095Y-71340380D02*
X160385142Y-71340380D01*
X160051809Y-71721333D01*
X160194666Y-71721333D01*
X160289904Y-71768952D01*
X160337523Y-71816571D01*
X160385142Y-71911809D01*
X160385142Y-72149904D01*
X160337523Y-72245142D01*
X160289904Y-72292761D01*
X160194666Y-72340380D01*
X159908952Y-72340380D01*
X159813714Y-72292761D01*
X159766095Y-72245142D01*
X161337523Y-72340380D02*
X160766095Y-72340380D01*
X161051809Y-72340380D02*
X161051809Y-71340380D01*
X160956571Y-71483238D01*
X160861333Y-71578476D01*
X160766095Y-71626095D01*
X161908952Y-71768952D02*
X161813714Y-71721333D01*
X161766095Y-71673714D01*
X161718476Y-71578476D01*
X161718476Y-71530857D01*
X161766095Y-71435619D01*
X161813714Y-71388000D01*
X161908952Y-71340380D01*
X162099428Y-71340380D01*
X162194666Y-71388000D01*
X162242285Y-71435619D01*
X162289904Y-71530857D01*
X162289904Y-71578476D01*
X162242285Y-71673714D01*
X162194666Y-71721333D01*
X162099428Y-71768952D01*
X161908952Y-71768952D01*
X161813714Y-71816571D01*
X161766095Y-71864190D01*
X161718476Y-71959428D01*
X161718476Y-72149904D01*
X161766095Y-72245142D01*
X161813714Y-72292761D01*
X161908952Y-72340380D01*
X162099428Y-72340380D01*
X162194666Y-72292761D01*
X162242285Y-72245142D01*
X162289904Y-72149904D01*
X162289904Y-71959428D01*
X162242285Y-71864190D01*
X162194666Y-71816571D01*
X162099428Y-71768952D01*
X163194666Y-71340380D02*
X162718476Y-71340380D01*
X162670857Y-71816571D01*
X162718476Y-71768952D01*
X162813714Y-71721333D01*
X163051809Y-71721333D01*
X163147047Y-71768952D01*
X163194666Y-71816571D01*
X163242285Y-71911809D01*
X163242285Y-72149904D01*
X163194666Y-72245142D01*
X163147047Y-72292761D01*
X163051809Y-72340380D01*
X162813714Y-72340380D01*
X162718476Y-72292761D01*
X162670857Y-72245142D01*
X164099428Y-71340380D02*
X163908952Y-71340380D01*
X163813714Y-71388000D01*
X163766095Y-71435619D01*
X163670857Y-71578476D01*
X163623238Y-71768952D01*
X163623238Y-72149904D01*
X163670857Y-72245142D01*
X163718476Y-72292761D01*
X163813714Y-72340380D01*
X164004190Y-72340380D01*
X164099428Y-72292761D01*
X164147047Y-72245142D01*
X164194666Y-72149904D01*
X164194666Y-71911809D01*
X164147047Y-71816571D01*
X164099428Y-71768952D01*
X164004190Y-71721333D01*
X163813714Y-71721333D01*
X163718476Y-71768952D01*
X163670857Y-71816571D01*
X163623238Y-71911809D01*
X159918476Y-74999904D02*
X159918476Y-75647523D01*
X159956571Y-75723714D01*
X159994666Y-75761809D01*
X160070857Y-75799904D01*
X160223238Y-75799904D01*
X160299428Y-75761809D01*
X160337523Y-75723714D01*
X160375619Y-75647523D01*
X160375619Y-74999904D01*
X161137523Y-74999904D02*
X160756571Y-74999904D01*
X160718476Y-75380857D01*
X160756571Y-75342761D01*
X160832761Y-75304666D01*
X161023238Y-75304666D01*
X161099428Y-75342761D01*
X161137523Y-75380857D01*
X161175619Y-75457047D01*
X161175619Y-75647523D01*
X161137523Y-75723714D01*
X161099428Y-75761809D01*
X161023238Y-75799904D01*
X160832761Y-75799904D01*
X160756571Y-75761809D01*
X160718476Y-75723714D01*
G04 #@! TO.C,C2*
X158739523Y-73481142D02*
X158691904Y-73528761D01*
X158549047Y-73576380D01*
X158453809Y-73576380D01*
X158310952Y-73528761D01*
X158215714Y-73433523D01*
X158168095Y-73338285D01*
X158120476Y-73147809D01*
X158120476Y-73004952D01*
X158168095Y-72814476D01*
X158215714Y-72719238D01*
X158310952Y-72624000D01*
X158453809Y-72576380D01*
X158549047Y-72576380D01*
X158691904Y-72624000D01*
X158739523Y-72671619D01*
D13*
X158346666Y-71552571D02*
X158322857Y-71576380D01*
X158251428Y-71600190D01*
X158203809Y-71600190D01*
X158132380Y-71576380D01*
X158084761Y-71528761D01*
X158060952Y-71481142D01*
X158037142Y-71385904D01*
X158037142Y-71314476D01*
X158060952Y-71219238D01*
X158084761Y-71171619D01*
X158132380Y-71124000D01*
X158203809Y-71100190D01*
X158251428Y-71100190D01*
X158322857Y-71124000D01*
X158346666Y-71147809D01*
X158537142Y-71147809D02*
X158560952Y-71124000D01*
X158608571Y-71100190D01*
X158727619Y-71100190D01*
X158775238Y-71124000D01*
X158799047Y-71147809D01*
X158822857Y-71195428D01*
X158822857Y-71243047D01*
X158799047Y-71314476D01*
X158513333Y-71600190D01*
X158822857Y-71600190D01*
G04 #@! TO.C,C3*
D11*
X163189523Y-73481142D02*
X163141904Y-73528761D01*
X162999047Y-73576380D01*
X162903809Y-73576380D01*
X162760952Y-73528761D01*
X162665714Y-73433523D01*
X162618095Y-73338285D01*
X162570476Y-73147809D01*
X162570476Y-73004952D01*
X162618095Y-72814476D01*
X162665714Y-72719238D01*
X162760952Y-72624000D01*
X162903809Y-72576380D01*
X162999047Y-72576380D01*
X163141904Y-72624000D01*
X163189523Y-72671619D01*
D13*
X162796666Y-71552571D02*
X162772857Y-71576380D01*
X162701428Y-71600190D01*
X162653809Y-71600190D01*
X162582380Y-71576380D01*
X162534761Y-71528761D01*
X162510952Y-71481142D01*
X162487142Y-71385904D01*
X162487142Y-71314476D01*
X162510952Y-71219238D01*
X162534761Y-71171619D01*
X162582380Y-71124000D01*
X162653809Y-71100190D01*
X162701428Y-71100190D01*
X162772857Y-71124000D01*
X162796666Y-71147809D01*
X162963333Y-71100190D02*
X163272857Y-71100190D01*
X163106190Y-71290666D01*
X163177619Y-71290666D01*
X163225238Y-71314476D01*
X163249047Y-71338285D01*
X163272857Y-71385904D01*
X163272857Y-71504952D01*
X163249047Y-71552571D01*
X163225238Y-71576380D01*
X163177619Y-71600190D01*
X163034761Y-71600190D01*
X162987142Y-71576380D01*
X162963333Y-71552571D01*
G04 #@! TO.C,C4*
D11*
X168223142Y-78938476D02*
X168270761Y-78986095D01*
X168318380Y-79128952D01*
X168318380Y-79224190D01*
X168270761Y-79367047D01*
X168175523Y-79462285D01*
X168080285Y-79509904D01*
X167889809Y-79557523D01*
X167746952Y-79557523D01*
X167556476Y-79509904D01*
X167461238Y-79462285D01*
X167366000Y-79367047D01*
X167318380Y-79224190D01*
X167318380Y-79128952D01*
X167366000Y-78986095D01*
X167413619Y-78938476D01*
D13*
X166294571Y-79331333D02*
X166318380Y-79355142D01*
X166342190Y-79426571D01*
X166342190Y-79474190D01*
X166318380Y-79545619D01*
X166270761Y-79593238D01*
X166223142Y-79617047D01*
X166127904Y-79640857D01*
X166056476Y-79640857D01*
X165961238Y-79617047D01*
X165913619Y-79593238D01*
X165866000Y-79545619D01*
X165842190Y-79474190D01*
X165842190Y-79426571D01*
X165866000Y-79355142D01*
X165889809Y-79331333D01*
X166008857Y-78902761D02*
X166342190Y-78902761D01*
X165818380Y-79021809D02*
X166175523Y-79140857D01*
X166175523Y-78831333D01*
G04 #@! TO.C,C5*
D11*
X168223142Y-75636476D02*
X168270761Y-75684095D01*
X168318380Y-75826952D01*
X168318380Y-75922190D01*
X168270761Y-76065047D01*
X168175523Y-76160285D01*
X168080285Y-76207904D01*
X167889809Y-76255523D01*
X167746952Y-76255523D01*
X167556476Y-76207904D01*
X167461238Y-76160285D01*
X167366000Y-76065047D01*
X167318380Y-75922190D01*
X167318380Y-75826952D01*
X167366000Y-75684095D01*
X167413619Y-75636476D01*
D13*
X166294571Y-76029333D02*
X166318380Y-76053142D01*
X166342190Y-76124571D01*
X166342190Y-76172190D01*
X166318380Y-76243619D01*
X166270761Y-76291238D01*
X166223142Y-76315047D01*
X166127904Y-76338857D01*
X166056476Y-76338857D01*
X165961238Y-76315047D01*
X165913619Y-76291238D01*
X165866000Y-76243619D01*
X165842190Y-76172190D01*
X165842190Y-76124571D01*
X165866000Y-76053142D01*
X165889809Y-76029333D01*
X165842190Y-75576952D02*
X165842190Y-75815047D01*
X166080285Y-75838857D01*
X166056476Y-75815047D01*
X166032666Y-75767428D01*
X166032666Y-75648380D01*
X166056476Y-75600761D01*
X166080285Y-75576952D01*
X166127904Y-75553142D01*
X166246952Y-75553142D01*
X166294571Y-75576952D01*
X166318380Y-75600761D01*
X166342190Y-75648380D01*
X166342190Y-75767428D01*
X166318380Y-75815047D01*
X166294571Y-75838857D01*
G04 #@! TO.C,C6*
D11*
X168223142Y-72334476D02*
X168270761Y-72382095D01*
X168318380Y-72524952D01*
X168318380Y-72620190D01*
X168270761Y-72763047D01*
X168175523Y-72858285D01*
X168080285Y-72905904D01*
X167889809Y-72953523D01*
X167746952Y-72953523D01*
X167556476Y-72905904D01*
X167461238Y-72858285D01*
X167366000Y-72763047D01*
X167318380Y-72620190D01*
X167318380Y-72524952D01*
X167366000Y-72382095D01*
X167413619Y-72334476D01*
D13*
X166294571Y-72727333D02*
X166318380Y-72751142D01*
X166342190Y-72822571D01*
X166342190Y-72870190D01*
X166318380Y-72941619D01*
X166270761Y-72989238D01*
X166223142Y-73013047D01*
X166127904Y-73036857D01*
X166056476Y-73036857D01*
X165961238Y-73013047D01*
X165913619Y-72989238D01*
X165866000Y-72941619D01*
X165842190Y-72870190D01*
X165842190Y-72822571D01*
X165866000Y-72751142D01*
X165889809Y-72727333D01*
X165842190Y-72298761D02*
X165842190Y-72394000D01*
X165866000Y-72441619D01*
X165889809Y-72465428D01*
X165961238Y-72513047D01*
X166056476Y-72536857D01*
X166246952Y-72536857D01*
X166294571Y-72513047D01*
X166318380Y-72489238D01*
X166342190Y-72441619D01*
X166342190Y-72346380D01*
X166318380Y-72298761D01*
X166294571Y-72274952D01*
X166246952Y-72251142D01*
X166127904Y-72251142D01*
X166080285Y-72274952D01*
X166056476Y-72298761D01*
X166032666Y-72346380D01*
X166032666Y-72441619D01*
X166056476Y-72489238D01*
X166080285Y-72513047D01*
X166127904Y-72536857D01*
G04 #@! TO.C,R3*
D11*
X159059523Y-122598380D02*
X158726190Y-122122190D01*
X158488095Y-122598380D02*
X158488095Y-121598380D01*
X158869047Y-121598380D01*
X158964285Y-121646000D01*
X159011904Y-121693619D01*
X159059523Y-121788857D01*
X159059523Y-121931714D01*
X159011904Y-122026952D01*
X158964285Y-122074571D01*
X158869047Y-122122190D01*
X158488095Y-122122190D01*
D13*
X158666666Y-120622190D02*
X158500000Y-120384095D01*
X158380952Y-120622190D02*
X158380952Y-120122190D01*
X158571428Y-120122190D01*
X158619047Y-120146000D01*
X158642857Y-120169809D01*
X158666666Y-120217428D01*
X158666666Y-120288857D01*
X158642857Y-120336476D01*
X158619047Y-120360285D01*
X158571428Y-120384095D01*
X158380952Y-120384095D01*
X158833333Y-120122190D02*
X159142857Y-120122190D01*
X158976190Y-120312666D01*
X159047619Y-120312666D01*
X159095238Y-120336476D01*
X159119047Y-120360285D01*
X159142857Y-120407904D01*
X159142857Y-120526952D01*
X159119047Y-120574571D01*
X159095238Y-120598380D01*
X159047619Y-120622190D01*
X158904761Y-120622190D01*
X158857142Y-120598380D01*
X158833333Y-120574571D01*
G04 #@! TO.C,R4*
D11*
X159059523Y-118788380D02*
X158726190Y-118312190D01*
X158488095Y-118788380D02*
X158488095Y-117788380D01*
X158869047Y-117788380D01*
X158964285Y-117836000D01*
X159011904Y-117883619D01*
X159059523Y-117978857D01*
X159059523Y-118121714D01*
X159011904Y-118216952D01*
X158964285Y-118264571D01*
X158869047Y-118312190D01*
X158488095Y-118312190D01*
D13*
X158666666Y-116812190D02*
X158500000Y-116574095D01*
X158380952Y-116812190D02*
X158380952Y-116312190D01*
X158571428Y-116312190D01*
X158619047Y-116336000D01*
X158642857Y-116359809D01*
X158666666Y-116407428D01*
X158666666Y-116478857D01*
X158642857Y-116526476D01*
X158619047Y-116550285D01*
X158571428Y-116574095D01*
X158380952Y-116574095D01*
X159095238Y-116478857D02*
X159095238Y-116812190D01*
X158976190Y-116288380D02*
X158857142Y-116645523D01*
X159166666Y-116645523D01*
G04 #@! TO.C,R5*
D11*
X144752380Y-100194476D02*
X144276190Y-100527809D01*
X144752380Y-100765904D02*
X143752380Y-100765904D01*
X143752380Y-100384952D01*
X143800000Y-100289714D01*
X143847619Y-100242095D01*
X143942857Y-100194476D01*
X144085714Y-100194476D01*
X144180952Y-100242095D01*
X144228571Y-100289714D01*
X144276190Y-100384952D01*
X144276190Y-100765904D01*
D13*
X146276190Y-100587333D02*
X146038095Y-100754000D01*
X146276190Y-100873047D02*
X145776190Y-100873047D01*
X145776190Y-100682571D01*
X145800000Y-100634952D01*
X145823809Y-100611142D01*
X145871428Y-100587333D01*
X145942857Y-100587333D01*
X145990476Y-100611142D01*
X146014285Y-100634952D01*
X146038095Y-100682571D01*
X146038095Y-100873047D01*
X145776190Y-100134952D02*
X145776190Y-100373047D01*
X146014285Y-100396857D01*
X145990476Y-100373047D01*
X145966666Y-100325428D01*
X145966666Y-100206380D01*
X145990476Y-100158761D01*
X146014285Y-100134952D01*
X146061904Y-100111142D01*
X146180952Y-100111142D01*
X146228571Y-100134952D01*
X146252380Y-100158761D01*
X146276190Y-100206380D01*
X146276190Y-100325428D01*
X146252380Y-100373047D01*
X146228571Y-100396857D01*
G04 #@! TO.C,R6*
D11*
X142720380Y-100194476D02*
X142244190Y-100527809D01*
X142720380Y-100765904D02*
X141720380Y-100765904D01*
X141720380Y-100384952D01*
X141768000Y-100289714D01*
X141815619Y-100242095D01*
X141910857Y-100194476D01*
X142053714Y-100194476D01*
X142148952Y-100242095D01*
X142196571Y-100289714D01*
X142244190Y-100384952D01*
X142244190Y-100765904D01*
D13*
X144244190Y-100587333D02*
X144006095Y-100754000D01*
X144244190Y-100873047D02*
X143744190Y-100873047D01*
X143744190Y-100682571D01*
X143768000Y-100634952D01*
X143791809Y-100611142D01*
X143839428Y-100587333D01*
X143910857Y-100587333D01*
X143958476Y-100611142D01*
X143982285Y-100634952D01*
X144006095Y-100682571D01*
X144006095Y-100873047D01*
X143744190Y-100158761D02*
X143744190Y-100254000D01*
X143768000Y-100301619D01*
X143791809Y-100325428D01*
X143863238Y-100373047D01*
X143958476Y-100396857D01*
X144148952Y-100396857D01*
X144196571Y-100373047D01*
X144220380Y-100349238D01*
X144244190Y-100301619D01*
X144244190Y-100206380D01*
X144220380Y-100158761D01*
X144196571Y-100134952D01*
X144148952Y-100111142D01*
X144029904Y-100111142D01*
X143982285Y-100134952D01*
X143958476Y-100158761D01*
X143934666Y-100206380D01*
X143934666Y-100301619D01*
X143958476Y-100349238D01*
X143982285Y-100373047D01*
X144029904Y-100396857D01*
G04 #@! TO.C,R7*
D11*
X140688380Y-100194476D02*
X140212190Y-100527809D01*
X140688380Y-100765904D02*
X139688380Y-100765904D01*
X139688380Y-100384952D01*
X139736000Y-100289714D01*
X139783619Y-100242095D01*
X139878857Y-100194476D01*
X140021714Y-100194476D01*
X140116952Y-100242095D01*
X140164571Y-100289714D01*
X140212190Y-100384952D01*
X140212190Y-100765904D01*
D13*
X142212190Y-100587333D02*
X141974095Y-100754000D01*
X142212190Y-100873047D02*
X141712190Y-100873047D01*
X141712190Y-100682571D01*
X141736000Y-100634952D01*
X141759809Y-100611142D01*
X141807428Y-100587333D01*
X141878857Y-100587333D01*
X141926476Y-100611142D01*
X141950285Y-100634952D01*
X141974095Y-100682571D01*
X141974095Y-100873047D01*
X141712190Y-100420666D02*
X141712190Y-100087333D01*
X142212190Y-100301619D01*
G04 #@! TO.C,R12*
D11*
X160246380Y-115260476D02*
X159770190Y-115593809D01*
X160246380Y-115831904D02*
X159246380Y-115831904D01*
X159246380Y-115450952D01*
X159294000Y-115355714D01*
X159341619Y-115308095D01*
X159436857Y-115260476D01*
X159579714Y-115260476D01*
X159674952Y-115308095D01*
X159722571Y-115355714D01*
X159770190Y-115450952D01*
X159770190Y-115831904D01*
D13*
X161770190Y-115891428D02*
X161532095Y-116058095D01*
X161770190Y-116177142D02*
X161270190Y-116177142D01*
X161270190Y-115986666D01*
X161294000Y-115939047D01*
X161317809Y-115915238D01*
X161365428Y-115891428D01*
X161436857Y-115891428D01*
X161484476Y-115915238D01*
X161508285Y-115939047D01*
X161532095Y-115986666D01*
X161532095Y-116177142D01*
X161770190Y-115415238D02*
X161770190Y-115700952D01*
X161770190Y-115558095D02*
X161270190Y-115558095D01*
X161341619Y-115605714D01*
X161389238Y-115653333D01*
X161413047Y-115700952D01*
X161317809Y-115224761D02*
X161294000Y-115200952D01*
X161270190Y-115153333D01*
X161270190Y-115034285D01*
X161294000Y-114986666D01*
X161317809Y-114962857D01*
X161365428Y-114939047D01*
X161413047Y-114939047D01*
X161484476Y-114962857D01*
X161770190Y-115248571D01*
X161770190Y-114939047D01*
G04 #@! TO.C,R13*
D11*
X159059523Y-114724380D02*
X158726190Y-114248190D01*
X158488095Y-114724380D02*
X158488095Y-113724380D01*
X158869047Y-113724380D01*
X158964285Y-113772000D01*
X159011904Y-113819619D01*
X159059523Y-113914857D01*
X159059523Y-114057714D01*
X159011904Y-114152952D01*
X158964285Y-114200571D01*
X158869047Y-114248190D01*
X158488095Y-114248190D01*
D13*
X158428571Y-112748190D02*
X158261904Y-112510095D01*
X158142857Y-112748190D02*
X158142857Y-112248190D01*
X158333333Y-112248190D01*
X158380952Y-112272000D01*
X158404761Y-112295809D01*
X158428571Y-112343428D01*
X158428571Y-112414857D01*
X158404761Y-112462476D01*
X158380952Y-112486285D01*
X158333333Y-112510095D01*
X158142857Y-112510095D01*
X158904761Y-112748190D02*
X158619047Y-112748190D01*
X158761904Y-112748190D02*
X158761904Y-112248190D01*
X158714285Y-112319619D01*
X158666666Y-112367238D01*
X158619047Y-112391047D01*
X159071428Y-112248190D02*
X159380952Y-112248190D01*
X159214285Y-112438666D01*
X159285714Y-112438666D01*
X159333333Y-112462476D01*
X159357142Y-112486285D01*
X159380952Y-112533904D01*
X159380952Y-112652952D01*
X159357142Y-112700571D01*
X159333333Y-112724380D01*
X159285714Y-112748190D01*
X159142857Y-112748190D01*
X159095238Y-112724380D01*
X159071428Y-112700571D01*
G04 #@! TO.C,R14*
D11*
X159059523Y-112692380D02*
X158726190Y-112216190D01*
X158488095Y-112692380D02*
X158488095Y-111692380D01*
X158869047Y-111692380D01*
X158964285Y-111740000D01*
X159011904Y-111787619D01*
X159059523Y-111882857D01*
X159059523Y-112025714D01*
X159011904Y-112120952D01*
X158964285Y-112168571D01*
X158869047Y-112216190D01*
X158488095Y-112216190D01*
D13*
X158428571Y-110716190D02*
X158261904Y-110478095D01*
X158142857Y-110716190D02*
X158142857Y-110216190D01*
X158333333Y-110216190D01*
X158380952Y-110240000D01*
X158404761Y-110263809D01*
X158428571Y-110311428D01*
X158428571Y-110382857D01*
X158404761Y-110430476D01*
X158380952Y-110454285D01*
X158333333Y-110478095D01*
X158142857Y-110478095D01*
X158904761Y-110716190D02*
X158619047Y-110716190D01*
X158761904Y-110716190D02*
X158761904Y-110216190D01*
X158714285Y-110287619D01*
X158666666Y-110335238D01*
X158619047Y-110359047D01*
X159333333Y-110382857D02*
X159333333Y-110716190D01*
X159214285Y-110192380D02*
X159095238Y-110549523D01*
X159404761Y-110549523D01*
G04 #@! TO.C,R15*
D11*
X159059523Y-107160380D02*
X158726190Y-106684190D01*
X158488095Y-107160380D02*
X158488095Y-106160380D01*
X158869047Y-106160380D01*
X158964285Y-106208000D01*
X159011904Y-106255619D01*
X159059523Y-106350857D01*
X159059523Y-106493714D01*
X159011904Y-106588952D01*
X158964285Y-106636571D01*
X158869047Y-106684190D01*
X158488095Y-106684190D01*
D13*
X158428571Y-108684190D02*
X158261904Y-108446095D01*
X158142857Y-108684190D02*
X158142857Y-108184190D01*
X158333333Y-108184190D01*
X158380952Y-108208000D01*
X158404761Y-108231809D01*
X158428571Y-108279428D01*
X158428571Y-108350857D01*
X158404761Y-108398476D01*
X158380952Y-108422285D01*
X158333333Y-108446095D01*
X158142857Y-108446095D01*
X158904761Y-108684190D02*
X158619047Y-108684190D01*
X158761904Y-108684190D02*
X158761904Y-108184190D01*
X158714285Y-108255619D01*
X158666666Y-108303238D01*
X158619047Y-108327047D01*
X159357142Y-108184190D02*
X159119047Y-108184190D01*
X159095238Y-108422285D01*
X159119047Y-108398476D01*
X159166666Y-108374666D01*
X159285714Y-108374666D01*
X159333333Y-108398476D01*
X159357142Y-108422285D01*
X159380952Y-108469904D01*
X159380952Y-108588952D01*
X159357142Y-108636571D01*
X159333333Y-108660380D01*
X159285714Y-108684190D01*
X159166666Y-108684190D01*
X159119047Y-108660380D01*
X159095238Y-108636571D01*
G04 #@! TO.C,R8*
D11*
X153642380Y-85542476D02*
X153166190Y-85875809D01*
X153642380Y-86113904D02*
X152642380Y-86113904D01*
X152642380Y-85732952D01*
X152690000Y-85637714D01*
X152737619Y-85590095D01*
X152832857Y-85542476D01*
X152975714Y-85542476D01*
X153070952Y-85590095D01*
X153118571Y-85637714D01*
X153166190Y-85732952D01*
X153166190Y-86113904D01*
D13*
X155166190Y-85935333D02*
X154928095Y-86102000D01*
X155166190Y-86221047D02*
X154666190Y-86221047D01*
X154666190Y-86030571D01*
X154690000Y-85982952D01*
X154713809Y-85959142D01*
X154761428Y-85935333D01*
X154832857Y-85935333D01*
X154880476Y-85959142D01*
X154904285Y-85982952D01*
X154928095Y-86030571D01*
X154928095Y-86221047D01*
X154880476Y-85649619D02*
X154856666Y-85697238D01*
X154832857Y-85721047D01*
X154785238Y-85744857D01*
X154761428Y-85744857D01*
X154713809Y-85721047D01*
X154690000Y-85697238D01*
X154666190Y-85649619D01*
X154666190Y-85554380D01*
X154690000Y-85506761D01*
X154713809Y-85482952D01*
X154761428Y-85459142D01*
X154785238Y-85459142D01*
X154832857Y-85482952D01*
X154856666Y-85506761D01*
X154880476Y-85554380D01*
X154880476Y-85649619D01*
X154904285Y-85697238D01*
X154928095Y-85721047D01*
X154975714Y-85744857D01*
X155070952Y-85744857D01*
X155118571Y-85721047D01*
X155142380Y-85697238D01*
X155166190Y-85649619D01*
X155166190Y-85554380D01*
X155142380Y-85506761D01*
X155118571Y-85482952D01*
X155070952Y-85459142D01*
X154975714Y-85459142D01*
X154928095Y-85482952D01*
X154904285Y-85506761D01*
X154880476Y-85554380D01*
G04 #@! TO.C,R9*
D11*
X153642380Y-72842476D02*
X153166190Y-73175809D01*
X153642380Y-73413904D02*
X152642380Y-73413904D01*
X152642380Y-73032952D01*
X152690000Y-72937714D01*
X152737619Y-72890095D01*
X152832857Y-72842476D01*
X152975714Y-72842476D01*
X153070952Y-72890095D01*
X153118571Y-72937714D01*
X153166190Y-73032952D01*
X153166190Y-73413904D01*
D13*
X155166190Y-73235333D02*
X154928095Y-73402000D01*
X155166190Y-73521047D02*
X154666190Y-73521047D01*
X154666190Y-73330571D01*
X154690000Y-73282952D01*
X154713809Y-73259142D01*
X154761428Y-73235333D01*
X154832857Y-73235333D01*
X154880476Y-73259142D01*
X154904285Y-73282952D01*
X154928095Y-73330571D01*
X154928095Y-73521047D01*
X155166190Y-72997238D02*
X155166190Y-72902000D01*
X155142380Y-72854380D01*
X155118571Y-72830571D01*
X155047142Y-72782952D01*
X154951904Y-72759142D01*
X154761428Y-72759142D01*
X154713809Y-72782952D01*
X154690000Y-72806761D01*
X154666190Y-72854380D01*
X154666190Y-72949619D01*
X154690000Y-72997238D01*
X154713809Y-73021047D01*
X154761428Y-73044857D01*
X154880476Y-73044857D01*
X154928095Y-73021047D01*
X154951904Y-72997238D01*
X154975714Y-72949619D01*
X154975714Y-72854380D01*
X154951904Y-72806761D01*
X154928095Y-72782952D01*
X154880476Y-72759142D01*
G04 #@! TO.C,R10*
D11*
X145514380Y-74874476D02*
X145038190Y-75207809D01*
X145514380Y-75445904D02*
X144514380Y-75445904D01*
X144514380Y-75064952D01*
X144562000Y-74969714D01*
X144609619Y-74922095D01*
X144704857Y-74874476D01*
X144847714Y-74874476D01*
X144942952Y-74922095D01*
X144990571Y-74969714D01*
X145038190Y-75064952D01*
X145038190Y-75445904D01*
D13*
X147038190Y-75505428D02*
X146800095Y-75672095D01*
X147038190Y-75791142D02*
X146538190Y-75791142D01*
X146538190Y-75600666D01*
X146562000Y-75553047D01*
X146585809Y-75529238D01*
X146633428Y-75505428D01*
X146704857Y-75505428D01*
X146752476Y-75529238D01*
X146776285Y-75553047D01*
X146800095Y-75600666D01*
X146800095Y-75791142D01*
X147038190Y-75029238D02*
X147038190Y-75314952D01*
X147038190Y-75172095D02*
X146538190Y-75172095D01*
X146609619Y-75219714D01*
X146657238Y-75267333D01*
X146681047Y-75314952D01*
X146538190Y-74719714D02*
X146538190Y-74672095D01*
X146562000Y-74624476D01*
X146585809Y-74600666D01*
X146633428Y-74576857D01*
X146728666Y-74553047D01*
X146847714Y-74553047D01*
X146942952Y-74576857D01*
X146990571Y-74600666D01*
X147014380Y-74624476D01*
X147038190Y-74672095D01*
X147038190Y-74719714D01*
X147014380Y-74767333D01*
X146990571Y-74791142D01*
X146942952Y-74814952D01*
X146847714Y-74838761D01*
X146728666Y-74838761D01*
X146633428Y-74814952D01*
X146585809Y-74791142D01*
X146562000Y-74767333D01*
X146538190Y-74719714D01*
G04 #@! TO.C,MH1*
D11*
X171744285Y-28782380D02*
X171744285Y-27782380D01*
X172077619Y-28496666D01*
X172410952Y-27782380D01*
X172410952Y-28782380D01*
X173030000Y-28782380D02*
X172934761Y-28734761D01*
X172887142Y-28687142D01*
X172839523Y-28591904D01*
X172839523Y-28306190D01*
X172887142Y-28210952D01*
X172934761Y-28163333D01*
X173030000Y-28115714D01*
X173172857Y-28115714D01*
X173268095Y-28163333D01*
X173315714Y-28210952D01*
X173363333Y-28306190D01*
X173363333Y-28591904D01*
X173315714Y-28687142D01*
X173268095Y-28734761D01*
X173172857Y-28782380D01*
X173030000Y-28782380D01*
X174220476Y-28115714D02*
X174220476Y-28782380D01*
X173791904Y-28115714D02*
X173791904Y-28639523D01*
X173839523Y-28734761D01*
X173934761Y-28782380D01*
X174077619Y-28782380D01*
X174172857Y-28734761D01*
X174220476Y-28687142D01*
X174696666Y-28115714D02*
X174696666Y-28782380D01*
X174696666Y-28210952D02*
X174744285Y-28163333D01*
X174839523Y-28115714D01*
X174982380Y-28115714D01*
X175077619Y-28163333D01*
X175125238Y-28258571D01*
X175125238Y-28782380D01*
X175458571Y-28115714D02*
X175839523Y-28115714D01*
X175601428Y-27782380D02*
X175601428Y-28639523D01*
X175649047Y-28734761D01*
X175744285Y-28782380D01*
X175839523Y-28782380D01*
X176172857Y-28782380D02*
X176172857Y-28115714D01*
X176172857Y-27782380D02*
X176125238Y-27830000D01*
X176172857Y-27877619D01*
X176220476Y-27830000D01*
X176172857Y-27782380D01*
X176172857Y-27877619D01*
X176649047Y-28115714D02*
X176649047Y-28782380D01*
X176649047Y-28210952D02*
X176696666Y-28163333D01*
X176791904Y-28115714D01*
X176934761Y-28115714D01*
X177030000Y-28163333D01*
X177077619Y-28258571D01*
X177077619Y-28782380D01*
X177982380Y-28115714D02*
X177982380Y-28925238D01*
X177934761Y-29020476D01*
X177887142Y-29068095D01*
X177791904Y-29115714D01*
X177649047Y-29115714D01*
X177553809Y-29068095D01*
X177982380Y-28734761D02*
X177887142Y-28782380D01*
X177696666Y-28782380D01*
X177601428Y-28734761D01*
X177553809Y-28687142D01*
X177506190Y-28591904D01*
X177506190Y-28306190D01*
X177553809Y-28210952D01*
X177601428Y-28163333D01*
X177696666Y-28115714D01*
X177887142Y-28115714D01*
X177982380Y-28163333D01*
X178458571Y-28782380D02*
X178458571Y-27782380D01*
X178458571Y-28258571D02*
X179030000Y-28258571D01*
X179030000Y-28782380D02*
X179030000Y-27782380D01*
X179649047Y-28782380D02*
X179553809Y-28734761D01*
X179506190Y-28687142D01*
X179458571Y-28591904D01*
X179458571Y-28306190D01*
X179506190Y-28210952D01*
X179553809Y-28163333D01*
X179649047Y-28115714D01*
X179791904Y-28115714D01*
X179887142Y-28163333D01*
X179934761Y-28210952D01*
X179982380Y-28306190D01*
X179982380Y-28591904D01*
X179934761Y-28687142D01*
X179887142Y-28734761D01*
X179791904Y-28782380D01*
X179649047Y-28782380D01*
X180553809Y-28782380D02*
X180458571Y-28734761D01*
X180410952Y-28639523D01*
X180410952Y-27782380D01*
X181315714Y-28734761D02*
X181220476Y-28782380D01*
X181030000Y-28782380D01*
X180934761Y-28734761D01*
X180887142Y-28639523D01*
X180887142Y-28258571D01*
X180934761Y-28163333D01*
X181030000Y-28115714D01*
X181220476Y-28115714D01*
X181315714Y-28163333D01*
X181363333Y-28258571D01*
X181363333Y-28353809D01*
X180887142Y-28449047D01*
X175496666Y-24582380D02*
X175496666Y-23582380D01*
X175830000Y-24296666D01*
X176163333Y-23582380D01*
X176163333Y-24582380D01*
X176639523Y-24582380D02*
X176639523Y-23582380D01*
X176639523Y-24058571D02*
X177210952Y-24058571D01*
X177210952Y-24582380D02*
X177210952Y-23582380D01*
X178210952Y-24582380D02*
X177639523Y-24582380D01*
X177925238Y-24582380D02*
X177925238Y-23582380D01*
X177830000Y-23725238D01*
X177734761Y-23820476D01*
X177639523Y-23868095D01*
G04 #@! TO.C,MH2*
X120944285Y-122762380D02*
X120944285Y-121762380D01*
X121277619Y-122476666D01*
X121610952Y-121762380D01*
X121610952Y-122762380D01*
X122230000Y-122762380D02*
X122134761Y-122714761D01*
X122087142Y-122667142D01*
X122039523Y-122571904D01*
X122039523Y-122286190D01*
X122087142Y-122190952D01*
X122134761Y-122143333D01*
X122230000Y-122095714D01*
X122372857Y-122095714D01*
X122468095Y-122143333D01*
X122515714Y-122190952D01*
X122563333Y-122286190D01*
X122563333Y-122571904D01*
X122515714Y-122667142D01*
X122468095Y-122714761D01*
X122372857Y-122762380D01*
X122230000Y-122762380D01*
X123420476Y-122095714D02*
X123420476Y-122762380D01*
X122991904Y-122095714D02*
X122991904Y-122619523D01*
X123039523Y-122714761D01*
X123134761Y-122762380D01*
X123277619Y-122762380D01*
X123372857Y-122714761D01*
X123420476Y-122667142D01*
X123896666Y-122095714D02*
X123896666Y-122762380D01*
X123896666Y-122190952D02*
X123944285Y-122143333D01*
X124039523Y-122095714D01*
X124182380Y-122095714D01*
X124277619Y-122143333D01*
X124325238Y-122238571D01*
X124325238Y-122762380D01*
X124658571Y-122095714D02*
X125039523Y-122095714D01*
X124801428Y-121762380D02*
X124801428Y-122619523D01*
X124849047Y-122714761D01*
X124944285Y-122762380D01*
X125039523Y-122762380D01*
X125372857Y-122762380D02*
X125372857Y-122095714D01*
X125372857Y-121762380D02*
X125325238Y-121810000D01*
X125372857Y-121857619D01*
X125420476Y-121810000D01*
X125372857Y-121762380D01*
X125372857Y-121857619D01*
X125849047Y-122095714D02*
X125849047Y-122762380D01*
X125849047Y-122190952D02*
X125896666Y-122143333D01*
X125991904Y-122095714D01*
X126134761Y-122095714D01*
X126230000Y-122143333D01*
X126277619Y-122238571D01*
X126277619Y-122762380D01*
X127182380Y-122095714D02*
X127182380Y-122905238D01*
X127134761Y-123000476D01*
X127087142Y-123048095D01*
X126991904Y-123095714D01*
X126849047Y-123095714D01*
X126753809Y-123048095D01*
X127182380Y-122714761D02*
X127087142Y-122762380D01*
X126896666Y-122762380D01*
X126801428Y-122714761D01*
X126753809Y-122667142D01*
X126706190Y-122571904D01*
X126706190Y-122286190D01*
X126753809Y-122190952D01*
X126801428Y-122143333D01*
X126896666Y-122095714D01*
X127087142Y-122095714D01*
X127182380Y-122143333D01*
X127658571Y-122762380D02*
X127658571Y-121762380D01*
X127658571Y-122238571D02*
X128230000Y-122238571D01*
X128230000Y-122762380D02*
X128230000Y-121762380D01*
X128849047Y-122762380D02*
X128753809Y-122714761D01*
X128706190Y-122667142D01*
X128658571Y-122571904D01*
X128658571Y-122286190D01*
X128706190Y-122190952D01*
X128753809Y-122143333D01*
X128849047Y-122095714D01*
X128991904Y-122095714D01*
X129087142Y-122143333D01*
X129134761Y-122190952D01*
X129182380Y-122286190D01*
X129182380Y-122571904D01*
X129134761Y-122667142D01*
X129087142Y-122714761D01*
X128991904Y-122762380D01*
X128849047Y-122762380D01*
X129753809Y-122762380D02*
X129658571Y-122714761D01*
X129610952Y-122619523D01*
X129610952Y-121762380D01*
X130515714Y-122714761D02*
X130420476Y-122762380D01*
X130230000Y-122762380D01*
X130134761Y-122714761D01*
X130087142Y-122619523D01*
X130087142Y-122238571D01*
X130134761Y-122143333D01*
X130230000Y-122095714D01*
X130420476Y-122095714D01*
X130515714Y-122143333D01*
X130563333Y-122238571D01*
X130563333Y-122333809D01*
X130087142Y-122429047D01*
X124696666Y-118562380D02*
X124696666Y-117562380D01*
X125030000Y-118276666D01*
X125363333Y-117562380D01*
X125363333Y-118562380D01*
X125839523Y-118562380D02*
X125839523Y-117562380D01*
X125839523Y-118038571D02*
X126410952Y-118038571D01*
X126410952Y-118562380D02*
X126410952Y-117562380D01*
X126839523Y-117657619D02*
X126887142Y-117610000D01*
X126982380Y-117562380D01*
X127220476Y-117562380D01*
X127315714Y-117610000D01*
X127363333Y-117657619D01*
X127410952Y-117752857D01*
X127410952Y-117848095D01*
X127363333Y-117990952D01*
X126791904Y-118562380D01*
X127410952Y-118562380D01*
G04 #@! TO.C,MH3*
X120944285Y-28782380D02*
X120944285Y-27782380D01*
X121277619Y-28496666D01*
X121610952Y-27782380D01*
X121610952Y-28782380D01*
X122230000Y-28782380D02*
X122134761Y-28734761D01*
X122087142Y-28687142D01*
X122039523Y-28591904D01*
X122039523Y-28306190D01*
X122087142Y-28210952D01*
X122134761Y-28163333D01*
X122230000Y-28115714D01*
X122372857Y-28115714D01*
X122468095Y-28163333D01*
X122515714Y-28210952D01*
X122563333Y-28306190D01*
X122563333Y-28591904D01*
X122515714Y-28687142D01*
X122468095Y-28734761D01*
X122372857Y-28782380D01*
X122230000Y-28782380D01*
X123420476Y-28115714D02*
X123420476Y-28782380D01*
X122991904Y-28115714D02*
X122991904Y-28639523D01*
X123039523Y-28734761D01*
X123134761Y-28782380D01*
X123277619Y-28782380D01*
X123372857Y-28734761D01*
X123420476Y-28687142D01*
X123896666Y-28115714D02*
X123896666Y-28782380D01*
X123896666Y-28210952D02*
X123944285Y-28163333D01*
X124039523Y-28115714D01*
X124182380Y-28115714D01*
X124277619Y-28163333D01*
X124325238Y-28258571D01*
X124325238Y-28782380D01*
X124658571Y-28115714D02*
X125039523Y-28115714D01*
X124801428Y-27782380D02*
X124801428Y-28639523D01*
X124849047Y-28734761D01*
X124944285Y-28782380D01*
X125039523Y-28782380D01*
X125372857Y-28782380D02*
X125372857Y-28115714D01*
X125372857Y-27782380D02*
X125325238Y-27830000D01*
X125372857Y-27877619D01*
X125420476Y-27830000D01*
X125372857Y-27782380D01*
X125372857Y-27877619D01*
X125849047Y-28115714D02*
X125849047Y-28782380D01*
X125849047Y-28210952D02*
X125896666Y-28163333D01*
X125991904Y-28115714D01*
X126134761Y-28115714D01*
X126230000Y-28163333D01*
X126277619Y-28258571D01*
X126277619Y-28782380D01*
X127182380Y-28115714D02*
X127182380Y-28925238D01*
X127134761Y-29020476D01*
X127087142Y-29068095D01*
X126991904Y-29115714D01*
X126849047Y-29115714D01*
X126753809Y-29068095D01*
X127182380Y-28734761D02*
X127087142Y-28782380D01*
X126896666Y-28782380D01*
X126801428Y-28734761D01*
X126753809Y-28687142D01*
X126706190Y-28591904D01*
X126706190Y-28306190D01*
X126753809Y-28210952D01*
X126801428Y-28163333D01*
X126896666Y-28115714D01*
X127087142Y-28115714D01*
X127182380Y-28163333D01*
X127658571Y-28782380D02*
X127658571Y-27782380D01*
X127658571Y-28258571D02*
X128230000Y-28258571D01*
X128230000Y-28782380D02*
X128230000Y-27782380D01*
X128849047Y-28782380D02*
X128753809Y-28734761D01*
X128706190Y-28687142D01*
X128658571Y-28591904D01*
X128658571Y-28306190D01*
X128706190Y-28210952D01*
X128753809Y-28163333D01*
X128849047Y-28115714D01*
X128991904Y-28115714D01*
X129087142Y-28163333D01*
X129134761Y-28210952D01*
X129182380Y-28306190D01*
X129182380Y-28591904D01*
X129134761Y-28687142D01*
X129087142Y-28734761D01*
X128991904Y-28782380D01*
X128849047Y-28782380D01*
X129753809Y-28782380D02*
X129658571Y-28734761D01*
X129610952Y-28639523D01*
X129610952Y-27782380D01*
X130515714Y-28734761D02*
X130420476Y-28782380D01*
X130230000Y-28782380D01*
X130134761Y-28734761D01*
X130087142Y-28639523D01*
X130087142Y-28258571D01*
X130134761Y-28163333D01*
X130230000Y-28115714D01*
X130420476Y-28115714D01*
X130515714Y-28163333D01*
X130563333Y-28258571D01*
X130563333Y-28353809D01*
X130087142Y-28449047D01*
X124696666Y-24582380D02*
X124696666Y-23582380D01*
X125030000Y-24296666D01*
X125363333Y-23582380D01*
X125363333Y-24582380D01*
X125839523Y-24582380D02*
X125839523Y-23582380D01*
X125839523Y-24058571D02*
X126410952Y-24058571D01*
X126410952Y-24582380D02*
X126410952Y-23582380D01*
X126791904Y-23582380D02*
X127410952Y-23582380D01*
X127077619Y-23963333D01*
X127220476Y-23963333D01*
X127315714Y-24010952D01*
X127363333Y-24058571D01*
X127410952Y-24153809D01*
X127410952Y-24391904D01*
X127363333Y-24487142D01*
X127315714Y-24534761D01*
X127220476Y-24582380D01*
X126934761Y-24582380D01*
X126839523Y-24534761D01*
X126791904Y-24487142D01*
G04 #@! TO.C,MH4*
X171744285Y-63072380D02*
X171744285Y-62072380D01*
X172077619Y-62786666D01*
X172410952Y-62072380D01*
X172410952Y-63072380D01*
X173030000Y-63072380D02*
X172934761Y-63024761D01*
X172887142Y-62977142D01*
X172839523Y-62881904D01*
X172839523Y-62596190D01*
X172887142Y-62500952D01*
X172934761Y-62453333D01*
X173030000Y-62405714D01*
X173172857Y-62405714D01*
X173268095Y-62453333D01*
X173315714Y-62500952D01*
X173363333Y-62596190D01*
X173363333Y-62881904D01*
X173315714Y-62977142D01*
X173268095Y-63024761D01*
X173172857Y-63072380D01*
X173030000Y-63072380D01*
X174220476Y-62405714D02*
X174220476Y-63072380D01*
X173791904Y-62405714D02*
X173791904Y-62929523D01*
X173839523Y-63024761D01*
X173934761Y-63072380D01*
X174077619Y-63072380D01*
X174172857Y-63024761D01*
X174220476Y-62977142D01*
X174696666Y-62405714D02*
X174696666Y-63072380D01*
X174696666Y-62500952D02*
X174744285Y-62453333D01*
X174839523Y-62405714D01*
X174982380Y-62405714D01*
X175077619Y-62453333D01*
X175125238Y-62548571D01*
X175125238Y-63072380D01*
X175458571Y-62405714D02*
X175839523Y-62405714D01*
X175601428Y-62072380D02*
X175601428Y-62929523D01*
X175649047Y-63024761D01*
X175744285Y-63072380D01*
X175839523Y-63072380D01*
X176172857Y-63072380D02*
X176172857Y-62405714D01*
X176172857Y-62072380D02*
X176125238Y-62120000D01*
X176172857Y-62167619D01*
X176220476Y-62120000D01*
X176172857Y-62072380D01*
X176172857Y-62167619D01*
X176649047Y-62405714D02*
X176649047Y-63072380D01*
X176649047Y-62500952D02*
X176696666Y-62453333D01*
X176791904Y-62405714D01*
X176934761Y-62405714D01*
X177030000Y-62453333D01*
X177077619Y-62548571D01*
X177077619Y-63072380D01*
X177982380Y-62405714D02*
X177982380Y-63215238D01*
X177934761Y-63310476D01*
X177887142Y-63358095D01*
X177791904Y-63405714D01*
X177649047Y-63405714D01*
X177553809Y-63358095D01*
X177982380Y-63024761D02*
X177887142Y-63072380D01*
X177696666Y-63072380D01*
X177601428Y-63024761D01*
X177553809Y-62977142D01*
X177506190Y-62881904D01*
X177506190Y-62596190D01*
X177553809Y-62500952D01*
X177601428Y-62453333D01*
X177696666Y-62405714D01*
X177887142Y-62405714D01*
X177982380Y-62453333D01*
X178458571Y-63072380D02*
X178458571Y-62072380D01*
X178458571Y-62548571D02*
X179030000Y-62548571D01*
X179030000Y-63072380D02*
X179030000Y-62072380D01*
X179649047Y-63072380D02*
X179553809Y-63024761D01*
X179506190Y-62977142D01*
X179458571Y-62881904D01*
X179458571Y-62596190D01*
X179506190Y-62500952D01*
X179553809Y-62453333D01*
X179649047Y-62405714D01*
X179791904Y-62405714D01*
X179887142Y-62453333D01*
X179934761Y-62500952D01*
X179982380Y-62596190D01*
X179982380Y-62881904D01*
X179934761Y-62977142D01*
X179887142Y-63024761D01*
X179791904Y-63072380D01*
X179649047Y-63072380D01*
X180553809Y-63072380D02*
X180458571Y-63024761D01*
X180410952Y-62929523D01*
X180410952Y-62072380D01*
X181315714Y-63024761D02*
X181220476Y-63072380D01*
X181030000Y-63072380D01*
X180934761Y-63024761D01*
X180887142Y-62929523D01*
X180887142Y-62548571D01*
X180934761Y-62453333D01*
X181030000Y-62405714D01*
X181220476Y-62405714D01*
X181315714Y-62453333D01*
X181363333Y-62548571D01*
X181363333Y-62643809D01*
X180887142Y-62739047D01*
X175496666Y-58872380D02*
X175496666Y-57872380D01*
X175830000Y-58586666D01*
X176163333Y-57872380D01*
X176163333Y-58872380D01*
X176639523Y-58872380D02*
X176639523Y-57872380D01*
X176639523Y-58348571D02*
X177210952Y-58348571D01*
X177210952Y-58872380D02*
X177210952Y-57872380D01*
X178115714Y-58205714D02*
X178115714Y-58872380D01*
X177877619Y-57824761D02*
X177639523Y-58539047D01*
X178258571Y-58539047D01*
G04 #@! TO.C,MH5*
X120944285Y-63072380D02*
X120944285Y-62072380D01*
X121277619Y-62786666D01*
X121610952Y-62072380D01*
X121610952Y-63072380D01*
X122230000Y-63072380D02*
X122134761Y-63024761D01*
X122087142Y-62977142D01*
X122039523Y-62881904D01*
X122039523Y-62596190D01*
X122087142Y-62500952D01*
X122134761Y-62453333D01*
X122230000Y-62405714D01*
X122372857Y-62405714D01*
X122468095Y-62453333D01*
X122515714Y-62500952D01*
X122563333Y-62596190D01*
X122563333Y-62881904D01*
X122515714Y-62977142D01*
X122468095Y-63024761D01*
X122372857Y-63072380D01*
X122230000Y-63072380D01*
X123420476Y-62405714D02*
X123420476Y-63072380D01*
X122991904Y-62405714D02*
X122991904Y-62929523D01*
X123039523Y-63024761D01*
X123134761Y-63072380D01*
X123277619Y-63072380D01*
X123372857Y-63024761D01*
X123420476Y-62977142D01*
X123896666Y-62405714D02*
X123896666Y-63072380D01*
X123896666Y-62500952D02*
X123944285Y-62453333D01*
X124039523Y-62405714D01*
X124182380Y-62405714D01*
X124277619Y-62453333D01*
X124325238Y-62548571D01*
X124325238Y-63072380D01*
X124658571Y-62405714D02*
X125039523Y-62405714D01*
X124801428Y-62072380D02*
X124801428Y-62929523D01*
X124849047Y-63024761D01*
X124944285Y-63072380D01*
X125039523Y-63072380D01*
X125372857Y-63072380D02*
X125372857Y-62405714D01*
X125372857Y-62072380D02*
X125325238Y-62120000D01*
X125372857Y-62167619D01*
X125420476Y-62120000D01*
X125372857Y-62072380D01*
X125372857Y-62167619D01*
X125849047Y-62405714D02*
X125849047Y-63072380D01*
X125849047Y-62500952D02*
X125896666Y-62453333D01*
X125991904Y-62405714D01*
X126134761Y-62405714D01*
X126230000Y-62453333D01*
X126277619Y-62548571D01*
X126277619Y-63072380D01*
X127182380Y-62405714D02*
X127182380Y-63215238D01*
X127134761Y-63310476D01*
X127087142Y-63358095D01*
X126991904Y-63405714D01*
X126849047Y-63405714D01*
X126753809Y-63358095D01*
X127182380Y-63024761D02*
X127087142Y-63072380D01*
X126896666Y-63072380D01*
X126801428Y-63024761D01*
X126753809Y-62977142D01*
X126706190Y-62881904D01*
X126706190Y-62596190D01*
X126753809Y-62500952D01*
X126801428Y-62453333D01*
X126896666Y-62405714D01*
X127087142Y-62405714D01*
X127182380Y-62453333D01*
X127658571Y-63072380D02*
X127658571Y-62072380D01*
X127658571Y-62548571D02*
X128230000Y-62548571D01*
X128230000Y-63072380D02*
X128230000Y-62072380D01*
X128849047Y-63072380D02*
X128753809Y-63024761D01*
X128706190Y-62977142D01*
X128658571Y-62881904D01*
X128658571Y-62596190D01*
X128706190Y-62500952D01*
X128753809Y-62453333D01*
X128849047Y-62405714D01*
X128991904Y-62405714D01*
X129087142Y-62453333D01*
X129134761Y-62500952D01*
X129182380Y-62596190D01*
X129182380Y-62881904D01*
X129134761Y-62977142D01*
X129087142Y-63024761D01*
X128991904Y-63072380D01*
X128849047Y-63072380D01*
X129753809Y-63072380D02*
X129658571Y-63024761D01*
X129610952Y-62929523D01*
X129610952Y-62072380D01*
X130515714Y-63024761D02*
X130420476Y-63072380D01*
X130230000Y-63072380D01*
X130134761Y-63024761D01*
X130087142Y-62929523D01*
X130087142Y-62548571D01*
X130134761Y-62453333D01*
X130230000Y-62405714D01*
X130420476Y-62405714D01*
X130515714Y-62453333D01*
X130563333Y-62548571D01*
X130563333Y-62643809D01*
X130087142Y-62739047D01*
X124696666Y-58872380D02*
X124696666Y-57872380D01*
X125030000Y-58586666D01*
X125363333Y-57872380D01*
X125363333Y-58872380D01*
X125839523Y-58872380D02*
X125839523Y-57872380D01*
X125839523Y-58348571D02*
X126410952Y-58348571D01*
X126410952Y-58872380D02*
X126410952Y-57872380D01*
X127363333Y-57872380D02*
X126887142Y-57872380D01*
X126839523Y-58348571D01*
X126887142Y-58300952D01*
X126982380Y-58253333D01*
X127220476Y-58253333D01*
X127315714Y-58300952D01*
X127363333Y-58348571D01*
X127410952Y-58443809D01*
X127410952Y-58681904D01*
X127363333Y-58777142D01*
X127315714Y-58824761D01*
X127220476Y-58872380D01*
X126982380Y-58872380D01*
X126887142Y-58824761D01*
X126839523Y-58777142D01*
G04 #@! TO.C,MH6*
X171744285Y-122762380D02*
X171744285Y-121762380D01*
X172077619Y-122476666D01*
X172410952Y-121762380D01*
X172410952Y-122762380D01*
X173030000Y-122762380D02*
X172934761Y-122714761D01*
X172887142Y-122667142D01*
X172839523Y-122571904D01*
X172839523Y-122286190D01*
X172887142Y-122190952D01*
X172934761Y-122143333D01*
X173030000Y-122095714D01*
X173172857Y-122095714D01*
X173268095Y-122143333D01*
X173315714Y-122190952D01*
X173363333Y-122286190D01*
X173363333Y-122571904D01*
X173315714Y-122667142D01*
X173268095Y-122714761D01*
X173172857Y-122762380D01*
X173030000Y-122762380D01*
X174220476Y-122095714D02*
X174220476Y-122762380D01*
X173791904Y-122095714D02*
X173791904Y-122619523D01*
X173839523Y-122714761D01*
X173934761Y-122762380D01*
X174077619Y-122762380D01*
X174172857Y-122714761D01*
X174220476Y-122667142D01*
X174696666Y-122095714D02*
X174696666Y-122762380D01*
X174696666Y-122190952D02*
X174744285Y-122143333D01*
X174839523Y-122095714D01*
X174982380Y-122095714D01*
X175077619Y-122143333D01*
X175125238Y-122238571D01*
X175125238Y-122762380D01*
X175458571Y-122095714D02*
X175839523Y-122095714D01*
X175601428Y-121762380D02*
X175601428Y-122619523D01*
X175649047Y-122714761D01*
X175744285Y-122762380D01*
X175839523Y-122762380D01*
X176172857Y-122762380D02*
X176172857Y-122095714D01*
X176172857Y-121762380D02*
X176125238Y-121810000D01*
X176172857Y-121857619D01*
X176220476Y-121810000D01*
X176172857Y-121762380D01*
X176172857Y-121857619D01*
X176649047Y-122095714D02*
X176649047Y-122762380D01*
X176649047Y-122190952D02*
X176696666Y-122143333D01*
X176791904Y-122095714D01*
X176934761Y-122095714D01*
X177030000Y-122143333D01*
X177077619Y-122238571D01*
X177077619Y-122762380D01*
X177982380Y-122095714D02*
X177982380Y-122905238D01*
X177934761Y-123000476D01*
X177887142Y-123048095D01*
X177791904Y-123095714D01*
X177649047Y-123095714D01*
X177553809Y-123048095D01*
X177982380Y-122714761D02*
X177887142Y-122762380D01*
X177696666Y-122762380D01*
X177601428Y-122714761D01*
X177553809Y-122667142D01*
X177506190Y-122571904D01*
X177506190Y-122286190D01*
X177553809Y-122190952D01*
X177601428Y-122143333D01*
X177696666Y-122095714D01*
X177887142Y-122095714D01*
X177982380Y-122143333D01*
X178458571Y-122762380D02*
X178458571Y-121762380D01*
X178458571Y-122238571D02*
X179030000Y-122238571D01*
X179030000Y-122762380D02*
X179030000Y-121762380D01*
X179649047Y-122762380D02*
X179553809Y-122714761D01*
X179506190Y-122667142D01*
X179458571Y-122571904D01*
X179458571Y-122286190D01*
X179506190Y-122190952D01*
X179553809Y-122143333D01*
X179649047Y-122095714D01*
X179791904Y-122095714D01*
X179887142Y-122143333D01*
X179934761Y-122190952D01*
X179982380Y-122286190D01*
X179982380Y-122571904D01*
X179934761Y-122667142D01*
X179887142Y-122714761D01*
X179791904Y-122762380D01*
X179649047Y-122762380D01*
X180553809Y-122762380D02*
X180458571Y-122714761D01*
X180410952Y-122619523D01*
X180410952Y-121762380D01*
X181315714Y-122714761D02*
X181220476Y-122762380D01*
X181030000Y-122762380D01*
X180934761Y-122714761D01*
X180887142Y-122619523D01*
X180887142Y-122238571D01*
X180934761Y-122143333D01*
X181030000Y-122095714D01*
X181220476Y-122095714D01*
X181315714Y-122143333D01*
X181363333Y-122238571D01*
X181363333Y-122333809D01*
X180887142Y-122429047D01*
X175496666Y-118562380D02*
X175496666Y-117562380D01*
X175830000Y-118276666D01*
X176163333Y-117562380D01*
X176163333Y-118562380D01*
X176639523Y-118562380D02*
X176639523Y-117562380D01*
X176639523Y-118038571D02*
X177210952Y-118038571D01*
X177210952Y-118562380D02*
X177210952Y-117562380D01*
X178115714Y-117562380D02*
X177925238Y-117562380D01*
X177830000Y-117610000D01*
X177782380Y-117657619D01*
X177687142Y-117800476D01*
X177639523Y-117990952D01*
X177639523Y-118371904D01*
X177687142Y-118467142D01*
X177734761Y-118514761D01*
X177830000Y-118562380D01*
X178020476Y-118562380D01*
X178115714Y-118514761D01*
X178163333Y-118467142D01*
X178210952Y-118371904D01*
X178210952Y-118133809D01*
X178163333Y-118038571D01*
X178115714Y-117990952D01*
X178020476Y-117943333D01*
X177830000Y-117943333D01*
X177734761Y-117990952D01*
X177687142Y-118038571D01*
X177639523Y-118133809D01*
G04 #@! TO.C,F1*
X129079571Y-34783857D02*
X129079571Y-35117190D01*
X129603380Y-35117190D02*
X128603380Y-35117190D01*
X128603380Y-34641000D01*
X128936714Y-33831476D02*
X129603380Y-33831476D01*
X128936714Y-34260047D02*
X129460523Y-34260047D01*
X129555761Y-34212428D01*
X129603380Y-34117190D01*
X129603380Y-33974333D01*
X129555761Y-33879095D01*
X129508142Y-33831476D01*
X129555761Y-33402904D02*
X129603380Y-33307666D01*
X129603380Y-33117190D01*
X129555761Y-33021952D01*
X129460523Y-32974333D01*
X129412904Y-32974333D01*
X129317666Y-33021952D01*
X129270047Y-33117190D01*
X129270047Y-33260047D01*
X129222428Y-33355285D01*
X129127190Y-33402904D01*
X129079571Y-33402904D01*
X128984333Y-33355285D01*
X128936714Y-33260047D01*
X128936714Y-33117190D01*
X128984333Y-33021952D01*
X129555761Y-32164809D02*
X129603380Y-32260047D01*
X129603380Y-32450523D01*
X129555761Y-32545761D01*
X129460523Y-32593380D01*
X129079571Y-32593380D01*
X128984333Y-32545761D01*
X128936714Y-32450523D01*
X128936714Y-32260047D01*
X128984333Y-32164809D01*
X129079571Y-32117190D01*
X129174809Y-32117190D01*
X129270047Y-32593380D01*
G04 #@! TO.C,RV1*
X133545285Y-60757380D02*
X133878619Y-61757380D01*
X134211952Y-60757380D01*
X134973857Y-61757380D02*
X134973857Y-61233571D01*
X134926238Y-61138333D01*
X134831000Y-61090714D01*
X134640523Y-61090714D01*
X134545285Y-61138333D01*
X134973857Y-61709761D02*
X134878619Y-61757380D01*
X134640523Y-61757380D01*
X134545285Y-61709761D01*
X134497666Y-61614523D01*
X134497666Y-61519285D01*
X134545285Y-61424047D01*
X134640523Y-61376428D01*
X134878619Y-61376428D01*
X134973857Y-61328809D01*
X135450047Y-61757380D02*
X135450047Y-61090714D01*
X135450047Y-61281190D02*
X135497666Y-61185952D01*
X135545285Y-61138333D01*
X135640523Y-61090714D01*
X135735761Y-61090714D01*
X136069095Y-61757380D02*
X136069095Y-61090714D01*
X136069095Y-60757380D02*
X136021476Y-60805000D01*
X136069095Y-60852619D01*
X136116714Y-60805000D01*
X136069095Y-60757380D01*
X136069095Y-60852619D01*
X136497666Y-61709761D02*
X136592904Y-61757380D01*
X136783380Y-61757380D01*
X136878619Y-61709761D01*
X136926238Y-61614523D01*
X136926238Y-61566904D01*
X136878619Y-61471666D01*
X136783380Y-61424047D01*
X136640523Y-61424047D01*
X136545285Y-61376428D01*
X136497666Y-61281190D01*
X136497666Y-61233571D01*
X136545285Y-61138333D01*
X136640523Y-61090714D01*
X136783380Y-61090714D01*
X136878619Y-61138333D01*
X137211952Y-61090714D02*
X137592904Y-61090714D01*
X137354809Y-60757380D02*
X137354809Y-61614523D01*
X137402428Y-61709761D01*
X137497666Y-61757380D01*
X137592904Y-61757380D01*
X138069095Y-61757380D02*
X137973857Y-61709761D01*
X137926238Y-61662142D01*
X137878619Y-61566904D01*
X137878619Y-61281190D01*
X137926238Y-61185952D01*
X137973857Y-61138333D01*
X138069095Y-61090714D01*
X138211952Y-61090714D01*
X138307190Y-61138333D01*
X138354809Y-61185952D01*
X138402428Y-61281190D01*
X138402428Y-61566904D01*
X138354809Y-61662142D01*
X138307190Y-61709761D01*
X138211952Y-61757380D01*
X138069095Y-61757380D01*
X138831000Y-61757380D02*
X138831000Y-61090714D01*
X138831000Y-61281190D02*
X138878619Y-61185952D01*
X138926238Y-61138333D01*
X139021476Y-61090714D01*
X139116714Y-61090714D01*
G04 #@! TO.C,R11*
X123162380Y-112593476D02*
X122686190Y-112926809D01*
X123162380Y-113164904D02*
X122162380Y-113164904D01*
X122162380Y-112783952D01*
X122210000Y-112688714D01*
X122257619Y-112641095D01*
X122352857Y-112593476D01*
X122495714Y-112593476D01*
X122590952Y-112641095D01*
X122638571Y-112688714D01*
X122686190Y-112783952D01*
X122686190Y-113164904D01*
D13*
X124686190Y-113224428D02*
X124448095Y-113391095D01*
X124686190Y-113510142D02*
X124186190Y-113510142D01*
X124186190Y-113319666D01*
X124210000Y-113272047D01*
X124233809Y-113248238D01*
X124281428Y-113224428D01*
X124352857Y-113224428D01*
X124400476Y-113248238D01*
X124424285Y-113272047D01*
X124448095Y-113319666D01*
X124448095Y-113510142D01*
X124686190Y-112748238D02*
X124686190Y-113033952D01*
X124686190Y-112891095D02*
X124186190Y-112891095D01*
X124257619Y-112938714D01*
X124305238Y-112986333D01*
X124329047Y-113033952D01*
X124686190Y-112272047D02*
X124686190Y-112557761D01*
X124686190Y-112414904D02*
X124186190Y-112414904D01*
X124257619Y-112462523D01*
X124305238Y-112510142D01*
X124329047Y-112557761D01*
G04 #@! TO.C,R16*
D11*
X126591380Y-112593476D02*
X126115190Y-112926809D01*
X126591380Y-113164904D02*
X125591380Y-113164904D01*
X125591380Y-112783952D01*
X125639000Y-112688714D01*
X125686619Y-112641095D01*
X125781857Y-112593476D01*
X125924714Y-112593476D01*
X126019952Y-112641095D01*
X126067571Y-112688714D01*
X126115190Y-112783952D01*
X126115190Y-113164904D01*
D13*
X128115190Y-113224428D02*
X127877095Y-113391095D01*
X128115190Y-113510142D02*
X127615190Y-113510142D01*
X127615190Y-113319666D01*
X127639000Y-113272047D01*
X127662809Y-113248238D01*
X127710428Y-113224428D01*
X127781857Y-113224428D01*
X127829476Y-113248238D01*
X127853285Y-113272047D01*
X127877095Y-113319666D01*
X127877095Y-113510142D01*
X128115190Y-112748238D02*
X128115190Y-113033952D01*
X128115190Y-112891095D02*
X127615190Y-112891095D01*
X127686619Y-112938714D01*
X127734238Y-112986333D01*
X127758047Y-113033952D01*
X127615190Y-112319666D02*
X127615190Y-112414904D01*
X127639000Y-112462523D01*
X127662809Y-112486333D01*
X127734238Y-112533952D01*
X127829476Y-112557761D01*
X128019952Y-112557761D01*
X128067571Y-112533952D01*
X128091380Y-112510142D01*
X128115190Y-112462523D01*
X128115190Y-112367285D01*
X128091380Y-112319666D01*
X128067571Y-112295857D01*
X128019952Y-112272047D01*
X127900904Y-112272047D01*
X127853285Y-112295857D01*
X127829476Y-112319666D01*
X127805666Y-112367285D01*
X127805666Y-112462523D01*
X127829476Y-112510142D01*
X127853285Y-112533952D01*
X127900904Y-112557761D01*
G04 #@! TO.C,D2*
D11*
X123162380Y-111077095D02*
X123162380Y-111553285D01*
X122162380Y-111553285D01*
X122638571Y-110743761D02*
X122638571Y-110410428D01*
X123162380Y-110267571D02*
X123162380Y-110743761D01*
X122162380Y-110743761D01*
X122162380Y-110267571D01*
X123162380Y-109839000D02*
X122162380Y-109839000D01*
X122162380Y-109600904D01*
X122210000Y-109458047D01*
X122305238Y-109362809D01*
X122400476Y-109315190D01*
X122590952Y-109267571D01*
X122733809Y-109267571D01*
X122924285Y-109315190D01*
X123019523Y-109362809D01*
X123114761Y-109458047D01*
X123162380Y-109600904D01*
X123162380Y-109839000D01*
X123257619Y-109077095D02*
X123257619Y-108315190D01*
X122876666Y-108124714D02*
X122876666Y-107648523D01*
X123162380Y-108219952D02*
X122162380Y-107886619D01*
X123162380Y-107553285D01*
X123162380Y-106743761D02*
X123162380Y-107219952D01*
X122162380Y-107219952D01*
X122162380Y-106553285D02*
X122162380Y-105981857D01*
X123162380Y-106267571D02*
X122162380Y-106267571D01*
G04 #@! TO.C,D3*
X126591380Y-111077095D02*
X126591380Y-111553285D01*
X125591380Y-111553285D01*
X126067571Y-110743761D02*
X126067571Y-110410428D01*
X126591380Y-110267571D02*
X126591380Y-110743761D01*
X125591380Y-110743761D01*
X125591380Y-110267571D01*
X126591380Y-109839000D02*
X125591380Y-109839000D01*
X125591380Y-109600904D01*
X125639000Y-109458047D01*
X125734238Y-109362809D01*
X125829476Y-109315190D01*
X126019952Y-109267571D01*
X126162809Y-109267571D01*
X126353285Y-109315190D01*
X126448523Y-109362809D01*
X126543761Y-109458047D01*
X126591380Y-109600904D01*
X126591380Y-109839000D01*
X126686619Y-109077095D02*
X126686619Y-108315190D01*
X126305666Y-108124714D02*
X126305666Y-107648523D01*
X126591380Y-108219952D02*
X125591380Y-107886619D01*
X126591380Y-107553285D01*
X126591380Y-106743761D02*
X126591380Y-107219952D01*
X125591380Y-107219952D01*
X125591380Y-106553285D02*
X125591380Y-105981857D01*
X126591380Y-106267571D02*
X125591380Y-106267571D01*
G04 #@! TO.C,C12*
X163174323Y-84047542D02*
X163126704Y-84095161D01*
X162983847Y-84142780D01*
X162888609Y-84142780D01*
X162745752Y-84095161D01*
X162650514Y-83999923D01*
X162602895Y-83904685D01*
X162555276Y-83714209D01*
X162555276Y-83571352D01*
X162602895Y-83380876D01*
X162650514Y-83285638D01*
X162745752Y-83190400D01*
X162888609Y-83142780D01*
X162983847Y-83142780D01*
X163126704Y-83190400D01*
X163174323Y-83238019D01*
D13*
X162543371Y-82118971D02*
X162519561Y-82142780D01*
X162448133Y-82166590D01*
X162400514Y-82166590D01*
X162329085Y-82142780D01*
X162281466Y-82095161D01*
X162257657Y-82047542D01*
X162233847Y-81952304D01*
X162233847Y-81880876D01*
X162257657Y-81785638D01*
X162281466Y-81738019D01*
X162329085Y-81690400D01*
X162400514Y-81666590D01*
X162448133Y-81666590D01*
X162519561Y-81690400D01*
X162543371Y-81714209D01*
X163019561Y-82166590D02*
X162733847Y-82166590D01*
X162876704Y-82166590D02*
X162876704Y-81666590D01*
X162829085Y-81738019D01*
X162781466Y-81785638D01*
X162733847Y-81809447D01*
X163210038Y-81714209D02*
X163233847Y-81690400D01*
X163281466Y-81666590D01*
X163400514Y-81666590D01*
X163448133Y-81690400D01*
X163471942Y-81714209D01*
X163495752Y-81761828D01*
X163495752Y-81809447D01*
X163471942Y-81880876D01*
X163186228Y-82166590D01*
X163495752Y-82166590D01*
G04 #@! TD*
M02*
