M48
;DRILL file {KiCad (5.0.1)-4} date 15/2/2019 22:12:19
;FORMAT={-:-/ absolute / inch / decimal}
FMAT,2
INCH,TZ
T1C0.0157
T2C0.0315
T3C0.0394
T4C0.0472
T5C0.0492
T6C0.0512
T7C0.0650
T8C0.1083
%
G90
G05
M72
T1
X4.9Y-2.8
X4.9Y-3.1
X4.9Y-3.6
X4.9Y-4.1
X5.11Y-4.695
X5.4Y-2.8
X5.4Y-3.1
X5.4Y-3.6
X5.4Y-4.1
X5.6Y-4.7
X5.67Y-3.9943
X5.75Y-3.9194
X5.8Y-4.7
X6.05Y-4.1888
X6.1Y-3.2
X6.17Y-3.72
X6.205Y-3.09
X6.28Y-3.175
X6.285Y-3.74
X6.2874Y-4.59
X6.31Y-3.69
X6.315Y-3.125
X6.325Y-2.81
X6.33Y-2.935
X6.3435Y-3.075
X6.35Y-3.66
X6.38Y-3.615
X6.4Y-4.7
X6.7Y-3.2
X6.7Y-4.7
X7.Y-2.8
X7.Y-3.2
X7.Y-3.6
X7.Y-4.5
T2
X5.75Y-1.7
X6.15Y-1.7
X5.2197Y-2.2699
X5.515Y-2.325
X5.7Y-2.3
X6.1Y-2.3
X5.78Y-2.5
X5.78Y-2.8
X5.88Y-2.5
X5.88Y-2.8
X5.98Y-2.5
X5.98Y-2.8
T3
X5.2Y-4.2
X5.2Y-4.3
X5.2Y-4.4
X5.2Y-4.5
X5.2Y-4.6
X5.2Y-4.7
X6.43Y-4.19
X6.53Y-4.19
X6.63Y-4.19
X6.73Y-4.19
X6.83Y-4.19
X6.93Y-4.19
X6.43Y-3.93
X6.53Y-3.93
X6.63Y-3.93
X6.73Y-3.93
X6.83Y-3.93
X6.93Y-3.93
T4
X5.85Y-2.
X5.95Y-2.
X6.05Y-2.
T5
X4.9869Y-3.7087
X5.1916Y-2.5513
X5.3884Y-2.5513
X5.5931Y-3.7087
T6
X5.35Y-1.11
X5.5469Y-1.11
X6.3516Y-1.11
X6.5484Y-1.11
X6.8Y-2.8831
X6.8Y-3.08
X6.8Y-3.3831
X6.8Y-3.58
T7
X5.065Y-1.1744
X5.065Y-1.4744
X5.065Y-1.765
X5.065Y-2.065
T8
X5.45Y-1.8626
X6.45Y-1.8625
T0
M30
