G04 #@! TF.GenerationSoftware,KiCad,Pcbnew,(5.0.1)-4*
G04 #@! TF.CreationDate,2019-02-15T22:12:16-03:00*
G04 #@! TF.ProjectId,reflow,7265666C6F772E6B696361645F706362,rev?*
G04 #@! TF.SameCoordinates,Original*
G04 #@! TF.FileFunction,Paste,Top*
G04 #@! TF.FilePolarity,Positive*
%FSLAX46Y46*%
G04 Gerber Fmt 4.6, Leading zero omitted, Abs format (unit mm)*
G04 Created by KiCad (PCBNEW (5.0.1)-4) date 15/2/2019 22:12:16*
%MOMM*%
%LPD*%
G01*
G04 APERTURE LIST*
%ADD10R,1.300000X0.700000*%
%ADD11R,0.700000X1.300000*%
%ADD12R,1.450000X0.450000*%
%ADD13R,2.500000X1.100000*%
%ADD14R,2.500000X3.750000*%
%ADD15R,1.300000X1.500000*%
G04 APERTURE END LIST*
D10*
G04 #@! TO.C,C11*
X166116000Y-84394000D03*
X166116000Y-86294000D03*
G04 #@! TD*
D11*
G04 #@! TO.C,C7*
X157480000Y-84074000D03*
X159380000Y-84074000D03*
G04 #@! TD*
G04 #@! TO.C,C8*
X163830000Y-84074000D03*
X161930000Y-84074000D03*
G04 #@! TD*
D10*
G04 #@! TO.C,C9*
X166116000Y-92898000D03*
X166116000Y-90998000D03*
G04 #@! TD*
D12*
G04 #@! TO.C,U4*
X157578000Y-90088000D03*
X157578000Y-89438000D03*
X157578000Y-88788000D03*
X157578000Y-88138000D03*
X157578000Y-87488000D03*
X157578000Y-86838000D03*
X157578000Y-86188000D03*
X163478000Y-86188000D03*
X163478000Y-86838000D03*
X163478000Y-87488000D03*
X163478000Y-88138000D03*
X163478000Y-88788000D03*
X163478000Y-89438000D03*
X163478000Y-90088000D03*
G04 #@! TD*
D10*
G04 #@! TO.C,C10*
X166116000Y-89596000D03*
X166116000Y-87696000D03*
G04 #@! TD*
D13*
G04 #@! TO.C,U3*
X153608000Y-120396000D03*
X153608000Y-118396000D03*
X153608000Y-116396000D03*
X153608000Y-114396000D03*
X153608000Y-112396000D03*
X153608000Y-110396000D03*
X153608000Y-108396000D03*
X153608000Y-106396000D03*
X138208000Y-106396000D03*
X138208000Y-108396000D03*
X138208000Y-110396000D03*
X138208000Y-112396000D03*
X138208000Y-114396000D03*
X138208000Y-116396000D03*
X138208000Y-118396000D03*
X138208000Y-120396000D03*
G04 #@! TD*
D14*
G04 #@! TO.C,C1*
X156718000Y-94411000D03*
X156718000Y-100661000D03*
G04 #@! TD*
D12*
G04 #@! TO.C,U5*
X163478000Y-77388000D03*
X163478000Y-76738000D03*
X163478000Y-76088000D03*
X163478000Y-75438000D03*
X163478000Y-74788000D03*
X163478000Y-74138000D03*
X163478000Y-73488000D03*
X157578000Y-73488000D03*
X157578000Y-74138000D03*
X157578000Y-74788000D03*
X157578000Y-75438000D03*
X157578000Y-76088000D03*
X157578000Y-76738000D03*
X157578000Y-77388000D03*
G04 #@! TD*
D11*
G04 #@! TO.C,C2*
X159380000Y-71374000D03*
X157480000Y-71374000D03*
G04 #@! TD*
G04 #@! TO.C,C3*
X161930000Y-71374000D03*
X163830000Y-71374000D03*
G04 #@! TD*
D10*
G04 #@! TO.C,C4*
X166116000Y-78298000D03*
X166116000Y-80198000D03*
G04 #@! TD*
G04 #@! TO.C,C5*
X166116000Y-74996000D03*
X166116000Y-76896000D03*
G04 #@! TD*
G04 #@! TO.C,C6*
X166116000Y-73594000D03*
X166116000Y-71694000D03*
G04 #@! TD*
D11*
G04 #@! TO.C,R3*
X159700000Y-120396000D03*
X157800000Y-120396000D03*
G04 #@! TD*
G04 #@! TO.C,R4*
X157800000Y-116586000D03*
X159700000Y-116586000D03*
G04 #@! TD*
D10*
G04 #@! TO.C,R5*
X146050000Y-101454000D03*
X146050000Y-99554000D03*
G04 #@! TD*
G04 #@! TO.C,R6*
X144018000Y-99554000D03*
X144018000Y-101454000D03*
G04 #@! TD*
G04 #@! TO.C,R7*
X141986000Y-101454000D03*
X141986000Y-99554000D03*
G04 #@! TD*
G04 #@! TO.C,R12*
X161544000Y-114620000D03*
X161544000Y-116520000D03*
G04 #@! TD*
D11*
G04 #@! TO.C,R13*
X159700000Y-112522000D03*
X157800000Y-112522000D03*
G04 #@! TD*
G04 #@! TO.C,R14*
X157800000Y-110490000D03*
X159700000Y-110490000D03*
G04 #@! TD*
G04 #@! TO.C,R15*
X157800000Y-108458000D03*
X159700000Y-108458000D03*
G04 #@! TD*
D10*
G04 #@! TO.C,R8*
X154940000Y-86802000D03*
X154940000Y-84902000D03*
G04 #@! TD*
G04 #@! TO.C,R9*
X154940000Y-72202000D03*
X154940000Y-74102000D03*
G04 #@! TD*
G04 #@! TO.C,R10*
X146812000Y-76134000D03*
X146812000Y-74234000D03*
G04 #@! TD*
G04 #@! TO.C,R11*
X124460000Y-113853000D03*
X124460000Y-111953000D03*
G04 #@! TD*
G04 #@! TO.C,R16*
X127889000Y-111953000D03*
X127889000Y-113853000D03*
G04 #@! TD*
D15*
G04 #@! TO.C,D2*
X124460000Y-107489000D03*
X124460000Y-110189000D03*
G04 #@! TD*
G04 #@! TO.C,D3*
X127889000Y-110189000D03*
X127889000Y-107489000D03*
G04 #@! TD*
D11*
G04 #@! TO.C,C12*
X163814800Y-81940400D03*
X161914800Y-81940400D03*
G04 #@! TD*
M02*
